M48
; DRILL file {KiCad 9.0.4} date 2026-03-06T19:45:00+0100
; FORMAT={-:-/ absolute / metric / decimal}
; #@! TF.CreationDate,2026-03-06T19:45:00+01:00
; #@! TF.GenerationSoftware,Kicad,Pcbnew,9.0.4
; #@! TF.FileFunction,MixedPlating,1,4
FMAT,2
METRIC
; #@! TA.AperFunction,Plated,PTH,ViaDrill
T1C0.300
; #@! TA.AperFunction,Plated,PTH,ViaDrill
T2C0.400
; #@! TA.AperFunction,Plated,PTH,ComponentDrill
T3C0.800
; #@! TA.AperFunction,Plated,PTH,ComponentDrill
T4C1.000
%
G90
G05
T1
X113.528Y-84.887
X113.528Y-96.139
X113.528Y-113.849
X114.328Y-84.887
X114.328Y-113.849
X115.128Y-84.887
X115.128Y-113.849
X115.928Y-84.887
X115.928Y-113.849
X116.728Y-84.887
X116.728Y-97.663
X116.728Y-100.191
X116.728Y-113.849
X117.475Y-78.867
X117.528Y-113.849
X117.538Y-97.663
X117.538Y-100.933
X119.928Y-84.887
X119.928Y-87.56
X119.928Y-90.297
X119.928Y-93.523
X119.928Y-105.199
X119.928Y-109.982
X119.928Y-111.506
X119.928Y-113.849
X120.015Y-76.2
X120.728Y-84.887
X120.728Y-86.96
X120.728Y-89.465
X120.728Y-93.523
X120.728Y-105.199
X120.728Y-109.184
X120.728Y-110.744
X120.728Y-113.849
X121.285Y-76.2
X121.285Y-78.07
X123.128Y-84.887
X123.128Y-86.36
X123.128Y-88.865
X123.128Y-93.523
X123.128Y-105.199
X123.128Y-107.696
X123.825Y-76.2
X123.825Y-77.435
X123.928Y-88.265
X123.928Y-93.523
X123.928Y-105.199
X123.928Y-108.458
X123.928Y-112.268
X123.928Y-113.849
X124.587Y-91.186
X125.095Y-76.2
X125.349Y-101.854
X126.328Y-82.169
X126.328Y-84.887
X126.328Y-113.849
X127.128Y-84.887
X127.152Y-98.044
X127.152Y-101.651
X127.928Y-84.887
X127.928Y-92.202
X127.928Y-93.523
X127.928Y-101.956
X127.928Y-113.849
X128.016Y-96.266
X128.728Y-84.887
X128.728Y-96.978
X128.728Y-102.26
X128.728Y-113.849
X129.528Y-84.887
X129.528Y-102.565
X129.528Y-113.849
X129.692Y-96.987
X130.328Y-84.887
X130.328Y-96.114
X130.328Y-113.849
X131.087Y-103.165
X133.731Y-75.565
X133.731Y-83.617
X134.483Y-93.522
X135.255Y-76.2
X135.255Y-82.169
X135.283Y-93.522
X136.083Y-81.499
X136.525Y-73.914
X136.883Y-80.899
X136.883Y-98.298
X136.883Y-102.616
X136.906Y-74.93
X137.668Y-99.095
X137.668Y-101.854
X137.683Y-80.899
X137.683Y-116.459
X137.795Y-73.152
X138.239Y-74.231
X138.483Y-82.169
X138.483Y-102.616
X138.483Y-117.221
X140.335Y-72.517
X140.883Y-84.887
X140.883Y-87.56
X140.883Y-90.297
X140.883Y-93.522
X140.883Y-105.207
X140.883Y-109.982
X140.883Y-111.506
X140.883Y-113.844
X141.683Y-84.887
X141.683Y-86.96
X141.683Y-89.465
X141.683Y-93.522
X141.683Y-105.207
X141.683Y-109.22
X141.683Y-110.744
X141.683Y-113.843
X142.875Y-63.611
X142.875Y-67.716
X142.875Y-70.815
X144.083Y-84.887
X144.083Y-86.36
X144.083Y-88.865
X144.083Y-93.522
X144.083Y-105.207
X144.083Y-107.696
X144.145Y-62.992
X144.145Y-67.716
X144.145Y-70.815
X144.883Y-88.265
X144.883Y-93.522
X144.883Y-105.207
X144.883Y-108.458
X144.883Y-112.268
X144.883Y-113.843
X145.415Y-62.992
X145.415Y-67.716
X145.415Y-70.815
X146.812Y-102.362
X146.964Y-82.245
X147.283Y-84.887
X147.283Y-117.348
X147.955Y-102.362
X148.883Y-93.522
X148.883Y-113.843
X148.971Y-101.346
X149.542Y-96.71
X149.683Y-116.459
X150.483Y-116.967
X151.283Y-117.475
X156.311Y-57.15
X156.57Y-87.56
X156.57Y-109.22
X157.378Y-56.49
X159.11Y-86.96
X159.11Y-88.265
X159.11Y-109.982
X159.11Y-111.506
X161.646Y-62.865
X161.646Y-70.46
X161.65Y-86.36
X161.65Y-89.56
X161.65Y-110.744
X163.474Y-66.675
X164.19Y-93.167
X165.506Y-84.277
X166.73Y-73.914
X169.215Y-64.135
X169.215Y-66.675
X169.27Y-74.676
X171.704Y-75.565
X174.142Y-67.945
X174.35Y-76.327
X176.89Y-77.089
X179.451Y-77.851
X181.97Y-78.613
T2
X102.413Y-59.334
X102.413Y-60.579
X103.124Y-117.983
X103.378Y-74.041
X104.521Y-63.5
X104.648Y-82.677
X109.347Y-77.978
X109.347Y-102.997
X110.617Y-115.443
X113.284Y-73.66
X114.173Y-73.66
X116.205Y-68.707
X116.205Y-69.85
X116.738Y-59.334
X116.738Y-60.579
X118.808Y-80.709
X118.808Y-81.597
X118.808Y-96.837
X118.808Y-97.727
X118.808Y-101.028
X118.808Y-101.917
X118.872Y-117.094
X118.872Y-117.983
X118.923Y-59.334
X118.923Y-60.579
X120.777Y-122.936
X123.698Y-80.709
X123.698Y-81.597
X123.698Y-96.837
X123.698Y-97.727
X123.698Y-101.028
X123.698Y-101.917
X123.698Y-117.094
X123.698Y-117.983
X124.206Y-62.865
X127.127Y-96.266
X127.127Y-116.586
X129.794Y-73.66
X130.683Y-73.66
X132.672Y-68.707
X132.672Y-69.85
X133.248Y-59.334
X133.248Y-60.579
X135.433Y-59.334
X135.433Y-60.579
X138.811Y-62.738
X139.763Y-80.709
X139.763Y-81.597
X139.763Y-96.837
X139.763Y-97.727
X139.763Y-101.028
X139.763Y-101.917
X139.763Y-117.094
X139.763Y-117.983
X140.208Y-52.07
X142.875Y-58.268
X143.637Y-75.057
X144.653Y-80.709
X144.653Y-81.597
X144.653Y-96.837
X144.653Y-97.727
X144.653Y-101.028
X144.653Y-101.917
X144.653Y-117.094
X144.653Y-117.983
X144.907Y-54.483
X146.304Y-73.66
X146.558Y-122.809
X147.193Y-73.66
X148.082Y-96.266
X148.082Y-116.586
X149.182Y-68.707
X149.182Y-69.85
X149.606Y-59.334
X149.606Y-60.579
X151.13Y-96.774
X151.511Y-106.553
X152.781Y-79.375
X153.162Y-92.075
X154.94Y-60.198
X159.436Y-71.78
X160.401Y-93.98
X160.68Y-71.78
X163.957Y-86.233
X164.084Y-122.682
X164.465Y-61.595
X164.846Y-108.966
X165.608Y-61.62
X166.37Y-92.202
X166.624Y-57.175
X166.624Y-58.014
X167.386Y-60.452
X167.386Y-69.037
X170.205Y-71.78
X171.45Y-71.78
X173.33Y-65.405
X173.38Y-60.046
X175.209Y-61.557
X176.352Y-61.582
X177.038Y-74.93
X177.343Y-57.226
X177.343Y-58.064
X180.086Y-53.594
X181.991Y-62.992
X182.118Y-69.342
X186.792Y-60.046
X186.792Y-62.992
X186.817Y-56.134
X188.341Y-74.168
X188.341Y-79.248
X192.13Y-88.9
X192.13Y-89.916
X192.13Y-109.22
X192.13Y-110.236
X196.469Y-73.025
X197.358Y-100.965
X197.612Y-84.836
X197.993Y-117.348
T3
X156.57Y-81.584
X156.57Y-96.824
X156.57Y-101.904
X156.57Y-117.144
X159.11Y-81.584
X159.11Y-96.824
X159.11Y-101.904
X159.11Y-117.144
X161.65Y-81.584
X161.65Y-96.824
X161.65Y-101.904
X161.65Y-117.144
X164.19Y-81.584
X164.19Y-96.824
X164.19Y-101.904
X164.19Y-117.144
X166.73Y-81.584
X166.73Y-96.824
X166.73Y-101.904
X166.73Y-117.144
X169.27Y-81.584
X169.27Y-96.824
X169.27Y-101.904
X169.27Y-117.144
X171.81Y-81.584
X171.81Y-96.824
X171.81Y-101.904
X171.81Y-117.144
X174.35Y-81.584
X174.35Y-96.824
X174.35Y-101.904
X174.35Y-117.144
X176.89Y-81.584
X176.89Y-96.824
X176.89Y-101.904
X176.89Y-117.144
X179.43Y-81.584
X179.43Y-96.824
X179.43Y-101.904
X179.43Y-117.144
X181.97Y-81.584
X181.97Y-96.824
X181.97Y-101.904
X181.97Y-117.144
X184.51Y-81.584
X184.51Y-96.824
X184.51Y-101.904
X184.51Y-117.144
X187.05Y-81.584
X187.05Y-96.824
X187.05Y-101.904
X187.05Y-117.144
X189.59Y-81.584
X189.59Y-96.824
X189.59Y-101.904
X189.59Y-117.144
X192.13Y-81.584
X192.13Y-96.824
X192.13Y-101.904
X192.13Y-117.144
X194.67Y-81.584
X194.67Y-96.824
X194.67Y-101.904
X194.67Y-117.144
T4
X101.921Y-87.23
X101.921Y-89.77
X101.921Y-92.31
X101.921Y-94.85
X101.921Y-97.39
X101.921Y-99.93
X101.921Y-102.47
X101.921Y-105.01
X101.921Y-107.55
X101.921Y-110.09
X101.921Y-112.63
X101.931Y-51.816
X101.931Y-54.355
X104.461Y-87.23
X104.461Y-89.77
X104.461Y-92.31
X104.461Y-94.85
X104.461Y-97.39
X104.461Y-99.93
X104.461Y-102.47
X104.461Y-105.01
X104.461Y-107.55
X104.461Y-110.09
X104.461Y-112.63
X104.471Y-51.816
X104.471Y-54.355
X107.011Y-51.816
X107.011Y-54.355
X109.551Y-51.816
X109.551Y-54.355
X112.091Y-51.816
X112.091Y-54.355
X114.631Y-51.816
X114.631Y-54.355
X117.171Y-51.816
X117.171Y-54.355
X119.711Y-51.816
X119.711Y-54.355
X122.251Y-51.816
X122.251Y-54.355
X124.791Y-51.816
X124.791Y-54.355
X127.331Y-51.816
X127.331Y-54.355
X129.871Y-51.816
X129.871Y-54.355
X132.411Y-51.816
X132.411Y-54.355
X134.951Y-51.816
X134.951Y-54.355
X150.796Y-51.805
X153.336Y-51.805
X155.876Y-51.805
X158.416Y-51.805
X160.956Y-51.805
X163.496Y-51.805
X166.036Y-51.805
X168.576Y-51.805
X171.116Y-51.805
X173.656Y-51.805
X184.411Y-121.995
X186.951Y-121.995
X189.491Y-51.805
X189.491Y-121.995
X192.031Y-51.805
X192.031Y-121.995
X194.571Y-51.805
X194.571Y-121.995
X197.111Y-51.805
X197.111Y-121.995
M30
