%TF.GenerationSoftware,KiCad,Pcbnew,9.0.4*%
%TF.CreationDate,2026-03-06T19:45:06+01:00*%
%TF.ProjectId,memory,6d656d6f-7279-42e6-9b69-6361645f7063,rev?*%
%TF.SameCoordinates,Original*%
%TF.FileFunction,Paste,Top*%
%TF.FilePolarity,Positive*%
%FSLAX46Y46*%
G04 Gerber Fmt 4.6, Leading zero omitted, Abs format (unit mm)*
G04 Created by KiCad (PCBNEW 9.0.4) date 2026-03-06 19:45:06*
%MOMM*%
%LPD*%
G01*
G04 APERTURE LIST*
G04 Aperture macros list*
%AMRoundRect*
0 Rectangle with rounded corners*
0 $1 Rounding radius*
0 $2 $3 $4 $5 $6 $7 $8 $9 X,Y pos of 4 corners*
0 Add a 4 corners polygon primitive as box body*
4,1,4,$2,$3,$4,$5,$6,$7,$8,$9,$2,$3,0*
0 Add four circle primitives for the rounded corners*
1,1,$1+$1,$2,$3*
1,1,$1+$1,$4,$5*
1,1,$1+$1,$6,$7*
1,1,$1+$1,$8,$9*
0 Add four rect primitives between the rounded corners*
20,1,$1+$1,$2,$3,$4,$5,0*
20,1,$1+$1,$4,$5,$6,$7,0*
20,1,$1+$1,$6,$7,$8,$9,0*
20,1,$1+$1,$8,$9,$2,$3,0*%
G04 Aperture macros list end*
%ADD10RoundRect,0.250000X0.337500X0.475000X-0.337500X0.475000X-0.337500X-0.475000X0.337500X-0.475000X0*%
%ADD11RoundRect,0.137500X-0.137500X0.625000X-0.137500X-0.625000X0.137500X-0.625000X0.137500X0.625000X0*%
%ADD12RoundRect,0.250001X-0.462499X-0.624999X0.462499X-0.624999X0.462499X0.624999X-0.462499X0.624999X0*%
%ADD13RoundRect,0.150000X-0.150000X0.875000X-0.150000X-0.875000X0.150000X-0.875000X0.150000X0.875000X0*%
%ADD14RoundRect,0.250000X-0.350000X-0.450000X0.350000X-0.450000X0.350000X0.450000X-0.350000X0.450000X0*%
%ADD15RoundRect,0.150000X-0.825000X-0.150000X0.825000X-0.150000X0.825000X0.150000X-0.825000X0.150000X0*%
%ADD16RoundRect,0.250000X0.475000X-0.337500X0.475000X0.337500X-0.475000X0.337500X-0.475000X-0.337500X0*%
%ADD17RoundRect,0.250000X0.350000X0.450000X-0.350000X0.450000X-0.350000X-0.450000X0.350000X-0.450000X0*%
G04 APERTURE END LIST*
D10*
%TO.C,C3*%
X148760000Y-72239500D03*
X146685000Y-72239500D03*
%TD*%
D11*
%TO.C,U2*%
X151283334Y-83616500D03*
X150483334Y-83616500D03*
X149683334Y-83616500D03*
X148883334Y-83616500D03*
X148083334Y-83616500D03*
X147283334Y-83616500D03*
X146483334Y-83616500D03*
X145683334Y-83616500D03*
X144883334Y-83616500D03*
X144083334Y-83616500D03*
X143283334Y-83616500D03*
X142483334Y-83616500D03*
X141683334Y-83616500D03*
X140883334Y-83616500D03*
X140083334Y-83616500D03*
X139283334Y-83616500D03*
X138483334Y-83616500D03*
X137683334Y-83616500D03*
X136883334Y-83616500D03*
X136083334Y-83616500D03*
X135283334Y-83616500D03*
X134483334Y-83616500D03*
X134483334Y-94791500D03*
X135283334Y-94791500D03*
X136083334Y-94791500D03*
X136883334Y-94791500D03*
X137683334Y-94791500D03*
X138483334Y-94791500D03*
X139283334Y-94791500D03*
X140083334Y-94791500D03*
X140883334Y-94791500D03*
X141683334Y-94791500D03*
X142483334Y-94791500D03*
X143283334Y-94791500D03*
X144083334Y-94791500D03*
X144883334Y-94791500D03*
X145683334Y-94791500D03*
X146483334Y-94791500D03*
X147283334Y-94791500D03*
X148083334Y-94791500D03*
X148883334Y-94791500D03*
X149683334Y-94791500D03*
X150483334Y-94791500D03*
X151283334Y-94791500D03*
%TD*%
D10*
%TO.C,C11*%
X143283334Y-101473000D03*
X141208334Y-101473000D03*
%TD*%
%TO.C,C1*%
X115740000Y-72136000D03*
X113665000Y-72136000D03*
%TD*%
D12*
%TO.C,D1*%
X188742500Y-58420000D03*
X191717500Y-58420000D03*
%TD*%
%TO.C,D5*%
X188742500Y-71120000D03*
X191717500Y-71120000D03*
%TD*%
%TO.C,D4*%
X188742500Y-67945000D03*
X191717500Y-67945000D03*
%TD*%
D13*
%TO.C,U7*%
X114935000Y-59969500D03*
X113665000Y-59969500D03*
X112395000Y-59969500D03*
X111125000Y-59969500D03*
X109855000Y-59969500D03*
X108585000Y-59969500D03*
X107315000Y-59969500D03*
X106045000Y-59969500D03*
X104775000Y-59969500D03*
X103505000Y-59969500D03*
X103505000Y-69269500D03*
X104775000Y-69269500D03*
X106045000Y-69269500D03*
X107315000Y-69269500D03*
X108585000Y-69269500D03*
X109855000Y-69269500D03*
X111125000Y-69269500D03*
X112395000Y-69269500D03*
X113665000Y-69269500D03*
X114935000Y-69269500D03*
%TD*%
%TO.C,U8*%
X131445000Y-59969500D03*
X130175000Y-59969500D03*
X128905000Y-59969500D03*
X127635000Y-59969500D03*
X126365000Y-59969500D03*
X125095000Y-59969500D03*
X123825000Y-59969500D03*
X122555000Y-59969500D03*
X121285000Y-59969500D03*
X120015000Y-59969500D03*
X120015000Y-69269500D03*
X121285000Y-69269500D03*
X122555000Y-69269500D03*
X123825000Y-69269500D03*
X125095000Y-69269500D03*
X126365000Y-69269500D03*
X127635000Y-69269500D03*
X128905000Y-69269500D03*
X130175000Y-69269500D03*
X131445000Y-69269500D03*
%TD*%
D14*
%TO.C,R3*%
X194945000Y-63500000D03*
X196945000Y-63500000D03*
%TD*%
D15*
%TO.C,U10*%
X160085000Y-62865000D03*
X160085000Y-64135000D03*
X160085000Y-65405000D03*
X160085000Y-66675000D03*
X160085000Y-67945000D03*
X160085000Y-69215000D03*
X160085000Y-70485000D03*
X165035000Y-70485000D03*
X165035000Y-69215000D03*
X165035000Y-67945000D03*
X165035000Y-66675000D03*
X165035000Y-65405000D03*
X165035000Y-64135000D03*
X165035000Y-62865000D03*
%TD*%
D16*
%TO.C,C4*%
X165035000Y-59690000D03*
X165035000Y-57615000D03*
%TD*%
D10*
%TO.C,C10*%
X122322500Y-101473000D03*
X120247500Y-101473000D03*
%TD*%
D14*
%TO.C,R4*%
X194945000Y-66040000D03*
X196945000Y-66040000D03*
%TD*%
D16*
%TO.C,C5*%
X175765000Y-59690000D03*
X175765000Y-57615000D03*
%TD*%
D13*
%TO.C,U9*%
X147955000Y-59969500D03*
X146685000Y-59969500D03*
X145415000Y-59969500D03*
X144145000Y-59969500D03*
X142875000Y-59969500D03*
X141605000Y-59969500D03*
X140335000Y-59969500D03*
X139065000Y-59969500D03*
X137795000Y-59969500D03*
X136525000Y-59969500D03*
X136525000Y-69269500D03*
X137795000Y-69269500D03*
X139065000Y-69269500D03*
X140335000Y-69269500D03*
X141605000Y-69269500D03*
X142875000Y-69269500D03*
X144145000Y-69269500D03*
X145415000Y-69269500D03*
X146685000Y-69269500D03*
X147955000Y-69269500D03*
%TD*%
D10*
%TO.C,C2*%
X132250000Y-72239500D03*
X130175000Y-72239500D03*
%TD*%
D11*
%TO.C,U1*%
X130328334Y-83616500D03*
X129528334Y-83616500D03*
X128728334Y-83616500D03*
X127928334Y-83616500D03*
X127128334Y-83616500D03*
X126328334Y-83616500D03*
X125528334Y-83616500D03*
X124728334Y-83616500D03*
X123928334Y-83616500D03*
X123128334Y-83616500D03*
X122328334Y-83616500D03*
X121528334Y-83616500D03*
X120728334Y-83616500D03*
X119928334Y-83616500D03*
X119128334Y-83616500D03*
X118328334Y-83616500D03*
X117528334Y-83616500D03*
X116728334Y-83616500D03*
X115928334Y-83616500D03*
X115128334Y-83616500D03*
X114328334Y-83616500D03*
X113528334Y-83616500D03*
X113528334Y-94791500D03*
X114328334Y-94791500D03*
X115128334Y-94791500D03*
X115928334Y-94791500D03*
X116728334Y-94791500D03*
X117528334Y-94791500D03*
X118328334Y-94791500D03*
X119128334Y-94791500D03*
X119928334Y-94791500D03*
X120728334Y-94791500D03*
X121528334Y-94791500D03*
X122328334Y-94791500D03*
X123128334Y-94791500D03*
X123928334Y-94791500D03*
X124728334Y-94791500D03*
X125528334Y-94791500D03*
X126328334Y-94791500D03*
X127128334Y-94791500D03*
X127928334Y-94791500D03*
X128728334Y-94791500D03*
X129528334Y-94791500D03*
X130328334Y-94791500D03*
%TD*%
D12*
%TO.C,D2*%
X188742500Y-61595000D03*
X191717500Y-61595000D03*
%TD*%
D14*
%TO.C,R5*%
X194945000Y-68580000D03*
X196945000Y-68580000D03*
%TD*%
D10*
%TO.C,C9*%
X143283334Y-97282000D03*
X141208334Y-97282000D03*
%TD*%
%TO.C,C7*%
X143277500Y-81153000D03*
X141202500Y-81153000D03*
%TD*%
D16*
%TO.C,C14*%
X192130000Y-93493500D03*
X192130000Y-91418500D03*
%TD*%
D11*
%TO.C,U3*%
X130328334Y-103936500D03*
X129528334Y-103936500D03*
X128728334Y-103936500D03*
X127928334Y-103936500D03*
X127128334Y-103936500D03*
X126328334Y-103936500D03*
X125528334Y-103936500D03*
X124728334Y-103936500D03*
X123928334Y-103936500D03*
X123128334Y-103936500D03*
X122328334Y-103936500D03*
X121528334Y-103936500D03*
X120728334Y-103936500D03*
X119928334Y-103936500D03*
X119128334Y-103936500D03*
X118328334Y-103936500D03*
X117528334Y-103936500D03*
X116728334Y-103936500D03*
X115928334Y-103936500D03*
X115128334Y-103936500D03*
X114328334Y-103936500D03*
X113528334Y-103936500D03*
X113528334Y-115111500D03*
X114328334Y-115111500D03*
X115128334Y-115111500D03*
X115928334Y-115111500D03*
X116728334Y-115111500D03*
X117528334Y-115111500D03*
X118328334Y-115111500D03*
X119128334Y-115111500D03*
X119928334Y-115111500D03*
X120728334Y-115111500D03*
X121528334Y-115111500D03*
X122328334Y-115111500D03*
X123128334Y-115111500D03*
X123928334Y-115111500D03*
X124728334Y-115111500D03*
X125528334Y-115111500D03*
X126328334Y-115111500D03*
X127128334Y-115111500D03*
X127928334Y-115111500D03*
X128728334Y-115111500D03*
X129528334Y-115111500D03*
X130328334Y-115111500D03*
%TD*%
D10*
%TO.C,C13*%
X143277500Y-117602000D03*
X141202500Y-117602000D03*
%TD*%
D12*
%TO.C,D3*%
X188742500Y-64770000D03*
X191717500Y-64770000D03*
%TD*%
D11*
%TO.C,U4*%
X151283334Y-103936500D03*
X150483334Y-103936500D03*
X149683334Y-103936500D03*
X148883334Y-103936500D03*
X148083334Y-103936500D03*
X147283334Y-103936500D03*
X146483334Y-103936500D03*
X145683334Y-103936500D03*
X144883334Y-103936500D03*
X144083334Y-103936500D03*
X143283334Y-103936500D03*
X142483334Y-103936500D03*
X141683334Y-103936500D03*
X140883334Y-103936500D03*
X140083334Y-103936500D03*
X139283334Y-103936500D03*
X138483334Y-103936500D03*
X137683334Y-103936500D03*
X136883334Y-103936500D03*
X136083334Y-103936500D03*
X135283334Y-103936500D03*
X134483334Y-103936500D03*
X134483334Y-115111500D03*
X135283334Y-115111500D03*
X136083334Y-115111500D03*
X136883334Y-115111500D03*
X137683334Y-115111500D03*
X138483334Y-115111500D03*
X139283334Y-115111500D03*
X140083334Y-115111500D03*
X140883334Y-115111500D03*
X141683334Y-115111500D03*
X142483334Y-115111500D03*
X143283334Y-115111500D03*
X144083334Y-115111500D03*
X144883334Y-115111500D03*
X145683334Y-115111500D03*
X146483334Y-115111500D03*
X147283334Y-115111500D03*
X148083334Y-115111500D03*
X148883334Y-115111500D03*
X149683334Y-115111500D03*
X150483334Y-115111500D03*
X151283334Y-115111500D03*
%TD*%
D10*
%TO.C,C8*%
X122322500Y-97282000D03*
X120247500Y-97282000D03*
%TD*%
D16*
%TO.C,C15*%
X192130000Y-113813500D03*
X192130000Y-111738500D03*
%TD*%
D14*
%TO.C,R2*%
X194945000Y-60866000D03*
X196945000Y-60866000D03*
%TD*%
D10*
%TO.C,C6*%
X122322500Y-81153000D03*
X120247500Y-81153000D03*
%TD*%
D17*
%TO.C,R6*%
X173115714Y-55245000D03*
X171115714Y-55245000D03*
%TD*%
D10*
%TO.C,C12*%
X122328334Y-117602000D03*
X120253334Y-117602000D03*
%TD*%
D15*
%TO.C,U11*%
X170815000Y-62865000D03*
X170815000Y-64135000D03*
X170815000Y-65405000D03*
X170815000Y-66675000D03*
X170815000Y-67945000D03*
X170815000Y-69215000D03*
X170815000Y-70485000D03*
X175765000Y-70485000D03*
X175765000Y-69215000D03*
X175765000Y-67945000D03*
X175765000Y-66675000D03*
X175765000Y-65405000D03*
X175765000Y-64135000D03*
X175765000Y-62865000D03*
%TD*%
D14*
%TO.C,R1*%
X194945000Y-58420000D03*
X196945000Y-58420000D03*
%TD*%
M02*
