%TF.GenerationSoftware,KiCad,Pcbnew,9.0.4*%
%TF.CreationDate,2026-03-06T19:45:06+01:00*%
%TF.ProjectId,memory,6d656d6f-7279-42e6-9b69-6361645f7063,rev?*%
%TF.SameCoordinates,Original*%
%TF.FileFunction,Legend,Top*%
%TF.FilePolarity,Positive*%
%FSLAX46Y46*%
G04 Gerber Fmt 4.6, Leading zero omitted, Abs format (unit mm)*
G04 Created by KiCad (PCBNEW 9.0.4) date 2026-03-06 19:45:06*
%MOMM*%
%LPD*%
G01*
G04 APERTURE LIST*
%ADD10C,0.100000*%
%ADD11C,0.200000*%
%ADD12C,0.125000*%
%ADD13C,0.150000*%
%ADD14C,0.120000*%
G04 APERTURE END LIST*
D10*
X157736265Y-122379800D02*
X157879122Y-122427419D01*
X157879122Y-122427419D02*
X158117217Y-122427419D01*
X158117217Y-122427419D02*
X158212455Y-122379800D01*
X158212455Y-122379800D02*
X158260074Y-122332180D01*
X158260074Y-122332180D02*
X158307693Y-122236942D01*
X158307693Y-122236942D02*
X158307693Y-122141704D01*
X158307693Y-122141704D02*
X158260074Y-122046466D01*
X158260074Y-122046466D02*
X158212455Y-121998847D01*
X158212455Y-121998847D02*
X158117217Y-121951228D01*
X158117217Y-121951228D02*
X157926741Y-121903609D01*
X157926741Y-121903609D02*
X157831503Y-121855990D01*
X157831503Y-121855990D02*
X157783884Y-121808371D01*
X157783884Y-121808371D02*
X157736265Y-121713133D01*
X157736265Y-121713133D02*
X157736265Y-121617895D01*
X157736265Y-121617895D02*
X157783884Y-121522657D01*
X157783884Y-121522657D02*
X157831503Y-121475038D01*
X157831503Y-121475038D02*
X157926741Y-121427419D01*
X157926741Y-121427419D02*
X158164836Y-121427419D01*
X158164836Y-121427419D02*
X158307693Y-121475038D01*
X158736265Y-121760752D02*
X158736265Y-122760752D01*
X158736265Y-121808371D02*
X158831503Y-121760752D01*
X158831503Y-121760752D02*
X159021979Y-121760752D01*
X159021979Y-121760752D02*
X159117217Y-121808371D01*
X159117217Y-121808371D02*
X159164836Y-121855990D01*
X159164836Y-121855990D02*
X159212455Y-121951228D01*
X159212455Y-121951228D02*
X159212455Y-122236942D01*
X159212455Y-122236942D02*
X159164836Y-122332180D01*
X159164836Y-122332180D02*
X159117217Y-122379800D01*
X159117217Y-122379800D02*
X159021979Y-122427419D01*
X159021979Y-122427419D02*
X158831503Y-122427419D01*
X158831503Y-122427419D02*
X158736265Y-122379800D01*
X160021979Y-122379800D02*
X159926741Y-122427419D01*
X159926741Y-122427419D02*
X159736265Y-122427419D01*
X159736265Y-122427419D02*
X159641027Y-122379800D01*
X159641027Y-122379800D02*
X159593408Y-122284561D01*
X159593408Y-122284561D02*
X159593408Y-121903609D01*
X159593408Y-121903609D02*
X159641027Y-121808371D01*
X159641027Y-121808371D02*
X159736265Y-121760752D01*
X159736265Y-121760752D02*
X159926741Y-121760752D01*
X159926741Y-121760752D02*
X160021979Y-121808371D01*
X160021979Y-121808371D02*
X160069598Y-121903609D01*
X160069598Y-121903609D02*
X160069598Y-121998847D01*
X160069598Y-121998847D02*
X159593408Y-122094085D01*
X160926741Y-122379800D02*
X160831503Y-122427419D01*
X160831503Y-122427419D02*
X160641027Y-122427419D01*
X160641027Y-122427419D02*
X160545789Y-122379800D01*
X160545789Y-122379800D02*
X160498170Y-122332180D01*
X160498170Y-122332180D02*
X160450551Y-122236942D01*
X160450551Y-122236942D02*
X160450551Y-121951228D01*
X160450551Y-121951228D02*
X160498170Y-121855990D01*
X160498170Y-121855990D02*
X160545789Y-121808371D01*
X160545789Y-121808371D02*
X160641027Y-121760752D01*
X160641027Y-121760752D02*
X160831503Y-121760752D01*
X160831503Y-121760752D02*
X160926741Y-121808371D01*
X161355313Y-122427419D02*
X161355313Y-121760752D01*
X161355313Y-121427419D02*
X161307694Y-121475038D01*
X161307694Y-121475038D02*
X161355313Y-121522657D01*
X161355313Y-121522657D02*
X161402932Y-121475038D01*
X161402932Y-121475038D02*
X161355313Y-121427419D01*
X161355313Y-121427419D02*
X161355313Y-121522657D01*
X162260074Y-122427419D02*
X162260074Y-121903609D01*
X162260074Y-121903609D02*
X162212455Y-121808371D01*
X162212455Y-121808371D02*
X162117217Y-121760752D01*
X162117217Y-121760752D02*
X161926741Y-121760752D01*
X161926741Y-121760752D02*
X161831503Y-121808371D01*
X162260074Y-122379800D02*
X162164836Y-122427419D01*
X162164836Y-122427419D02*
X161926741Y-122427419D01*
X161926741Y-122427419D02*
X161831503Y-122379800D01*
X161831503Y-122379800D02*
X161783884Y-122284561D01*
X161783884Y-122284561D02*
X161783884Y-122189323D01*
X161783884Y-122189323D02*
X161831503Y-122094085D01*
X161831503Y-122094085D02*
X161926741Y-122046466D01*
X161926741Y-122046466D02*
X162164836Y-122046466D01*
X162164836Y-122046466D02*
X162260074Y-121998847D01*
X162879122Y-122427419D02*
X162783884Y-122379800D01*
X162783884Y-122379800D02*
X162736265Y-122284561D01*
X162736265Y-122284561D02*
X162736265Y-121427419D01*
X163879123Y-121760752D02*
X164260075Y-121760752D01*
X164021980Y-121427419D02*
X164021980Y-122284561D01*
X164021980Y-122284561D02*
X164069599Y-122379800D01*
X164069599Y-122379800D02*
X164164837Y-122427419D01*
X164164837Y-122427419D02*
X164260075Y-122427419D01*
X164593409Y-122427419D02*
X164593409Y-121427419D01*
X165021980Y-122427419D02*
X165021980Y-121903609D01*
X165021980Y-121903609D02*
X164974361Y-121808371D01*
X164974361Y-121808371D02*
X164879123Y-121760752D01*
X164879123Y-121760752D02*
X164736266Y-121760752D01*
X164736266Y-121760752D02*
X164641028Y-121808371D01*
X164641028Y-121808371D02*
X164593409Y-121855990D01*
X165926742Y-122427419D02*
X165926742Y-121903609D01*
X165926742Y-121903609D02*
X165879123Y-121808371D01*
X165879123Y-121808371D02*
X165783885Y-121760752D01*
X165783885Y-121760752D02*
X165593409Y-121760752D01*
X165593409Y-121760752D02*
X165498171Y-121808371D01*
X165926742Y-122379800D02*
X165831504Y-122427419D01*
X165831504Y-122427419D02*
X165593409Y-122427419D01*
X165593409Y-122427419D02*
X165498171Y-122379800D01*
X165498171Y-122379800D02*
X165450552Y-122284561D01*
X165450552Y-122284561D02*
X165450552Y-122189323D01*
X165450552Y-122189323D02*
X165498171Y-122094085D01*
X165498171Y-122094085D02*
X165593409Y-122046466D01*
X165593409Y-122046466D02*
X165831504Y-122046466D01*
X165831504Y-122046466D02*
X165926742Y-121998847D01*
X166402933Y-121760752D02*
X166402933Y-122427419D01*
X166402933Y-121855990D02*
X166450552Y-121808371D01*
X166450552Y-121808371D02*
X166545790Y-121760752D01*
X166545790Y-121760752D02*
X166688647Y-121760752D01*
X166688647Y-121760752D02*
X166783885Y-121808371D01*
X166783885Y-121808371D02*
X166831504Y-121903609D01*
X166831504Y-121903609D02*
X166831504Y-122427419D01*
X167307695Y-122427419D02*
X167307695Y-121427419D01*
X167402933Y-122046466D02*
X167688647Y-122427419D01*
X167688647Y-121760752D02*
X167307695Y-122141704D01*
X168069600Y-122379800D02*
X168164838Y-122427419D01*
X168164838Y-122427419D02*
X168355314Y-122427419D01*
X168355314Y-122427419D02*
X168450552Y-122379800D01*
X168450552Y-122379800D02*
X168498171Y-122284561D01*
X168498171Y-122284561D02*
X168498171Y-122236942D01*
X168498171Y-122236942D02*
X168450552Y-122141704D01*
X168450552Y-122141704D02*
X168355314Y-122094085D01*
X168355314Y-122094085D02*
X168212457Y-122094085D01*
X168212457Y-122094085D02*
X168117219Y-122046466D01*
X168117219Y-122046466D02*
X168069600Y-121951228D01*
X168069600Y-121951228D02*
X168069600Y-121903609D01*
X168069600Y-121903609D02*
X168117219Y-121808371D01*
X168117219Y-121808371D02*
X168212457Y-121760752D01*
X168212457Y-121760752D02*
X168355314Y-121760752D01*
X168355314Y-121760752D02*
X168450552Y-121808371D01*
X169545791Y-121760752D02*
X169926743Y-121760752D01*
X169688648Y-121427419D02*
X169688648Y-122284561D01*
X169688648Y-122284561D02*
X169736267Y-122379800D01*
X169736267Y-122379800D02*
X169831505Y-122427419D01*
X169831505Y-122427419D02*
X169926743Y-122427419D01*
X170402934Y-122427419D02*
X170307696Y-122379800D01*
X170307696Y-122379800D02*
X170260077Y-122332180D01*
X170260077Y-122332180D02*
X170212458Y-122236942D01*
X170212458Y-122236942D02*
X170212458Y-121951228D01*
X170212458Y-121951228D02*
X170260077Y-121855990D01*
X170260077Y-121855990D02*
X170307696Y-121808371D01*
X170307696Y-121808371D02*
X170402934Y-121760752D01*
X170402934Y-121760752D02*
X170545791Y-121760752D01*
X170545791Y-121760752D02*
X170641029Y-121808371D01*
X170641029Y-121808371D02*
X170688648Y-121855990D01*
X170688648Y-121855990D02*
X170736267Y-121951228D01*
X170736267Y-121951228D02*
X170736267Y-122236942D01*
X170736267Y-122236942D02*
X170688648Y-122332180D01*
X170688648Y-122332180D02*
X170641029Y-122379800D01*
X170641029Y-122379800D02*
X170545791Y-122427419D01*
X170545791Y-122427419D02*
X170402934Y-122427419D01*
X171926744Y-122427419D02*
X171926744Y-121427419D01*
X171926744Y-121427419D02*
X172307696Y-121427419D01*
X172307696Y-121427419D02*
X172402934Y-121475038D01*
X172402934Y-121475038D02*
X172450553Y-121522657D01*
X172450553Y-121522657D02*
X172498172Y-121617895D01*
X172498172Y-121617895D02*
X172498172Y-121760752D01*
X172498172Y-121760752D02*
X172450553Y-121855990D01*
X172450553Y-121855990D02*
X172402934Y-121903609D01*
X172402934Y-121903609D02*
X172307696Y-121951228D01*
X172307696Y-121951228D02*
X171926744Y-121951228D01*
X173498172Y-122332180D02*
X173450553Y-122379800D01*
X173450553Y-122379800D02*
X173307696Y-122427419D01*
X173307696Y-122427419D02*
X173212458Y-122427419D01*
X173212458Y-122427419D02*
X173069601Y-122379800D01*
X173069601Y-122379800D02*
X172974363Y-122284561D01*
X172974363Y-122284561D02*
X172926744Y-122189323D01*
X172926744Y-122189323D02*
X172879125Y-121998847D01*
X172879125Y-121998847D02*
X172879125Y-121855990D01*
X172879125Y-121855990D02*
X172926744Y-121665514D01*
X172926744Y-121665514D02*
X172974363Y-121570276D01*
X172974363Y-121570276D02*
X173069601Y-121475038D01*
X173069601Y-121475038D02*
X173212458Y-121427419D01*
X173212458Y-121427419D02*
X173307696Y-121427419D01*
X173307696Y-121427419D02*
X173450553Y-121475038D01*
X173450553Y-121475038D02*
X173498172Y-121522657D01*
X174260077Y-121903609D02*
X174402934Y-121951228D01*
X174402934Y-121951228D02*
X174450553Y-121998847D01*
X174450553Y-121998847D02*
X174498172Y-122094085D01*
X174498172Y-122094085D02*
X174498172Y-122236942D01*
X174498172Y-122236942D02*
X174450553Y-122332180D01*
X174450553Y-122332180D02*
X174402934Y-122379800D01*
X174402934Y-122379800D02*
X174307696Y-122427419D01*
X174307696Y-122427419D02*
X173926744Y-122427419D01*
X173926744Y-122427419D02*
X173926744Y-121427419D01*
X173926744Y-121427419D02*
X174260077Y-121427419D01*
X174260077Y-121427419D02*
X174355315Y-121475038D01*
X174355315Y-121475038D02*
X174402934Y-121522657D01*
X174402934Y-121522657D02*
X174450553Y-121617895D01*
X174450553Y-121617895D02*
X174450553Y-121713133D01*
X174450553Y-121713133D02*
X174402934Y-121808371D01*
X174402934Y-121808371D02*
X174355315Y-121855990D01*
X174355315Y-121855990D02*
X174260077Y-121903609D01*
X174260077Y-121903609D02*
X173926744Y-121903609D01*
X174831506Y-121427419D02*
X175069601Y-122427419D01*
X175069601Y-122427419D02*
X175260077Y-121713133D01*
X175260077Y-121713133D02*
X175450553Y-122427419D01*
X175450553Y-122427419D02*
X175688649Y-121427419D01*
X176498172Y-122427419D02*
X176498172Y-121903609D01*
X176498172Y-121903609D02*
X176450553Y-121808371D01*
X176450553Y-121808371D02*
X176355315Y-121760752D01*
X176355315Y-121760752D02*
X176164839Y-121760752D01*
X176164839Y-121760752D02*
X176069601Y-121808371D01*
X176498172Y-122379800D02*
X176402934Y-122427419D01*
X176402934Y-122427419D02*
X176164839Y-122427419D01*
X176164839Y-122427419D02*
X176069601Y-122379800D01*
X176069601Y-122379800D02*
X176021982Y-122284561D01*
X176021982Y-122284561D02*
X176021982Y-122189323D01*
X176021982Y-122189323D02*
X176069601Y-122094085D01*
X176069601Y-122094085D02*
X176164839Y-122046466D01*
X176164839Y-122046466D02*
X176402934Y-122046466D01*
X176402934Y-122046466D02*
X176498172Y-121998847D01*
X176879125Y-121760752D02*
X177117220Y-122427419D01*
X177355315Y-121760752D02*
X177117220Y-122427419D01*
X177117220Y-122427419D02*
X177021982Y-122665514D01*
X177021982Y-122665514D02*
X176974363Y-122713133D01*
X176974363Y-122713133D02*
X176879125Y-122760752D01*
D11*
X171137292Y-109657778D02*
X171423006Y-109657778D01*
X171423006Y-109657778D02*
X171565863Y-109729207D01*
X171565863Y-109729207D02*
X171708720Y-109872064D01*
X171708720Y-109872064D02*
X171780149Y-110157778D01*
X171780149Y-110157778D02*
X171780149Y-110657778D01*
X171780149Y-110657778D02*
X171708720Y-110943492D01*
X171708720Y-110943492D02*
X171565863Y-111086350D01*
X171565863Y-111086350D02*
X171423006Y-111157778D01*
X171423006Y-111157778D02*
X171137292Y-111157778D01*
X171137292Y-111157778D02*
X170994435Y-111086350D01*
X170994435Y-111086350D02*
X170851577Y-110943492D01*
X170851577Y-110943492D02*
X170780149Y-110657778D01*
X170780149Y-110657778D02*
X170780149Y-110157778D01*
X170780149Y-110157778D02*
X170851577Y-109872064D01*
X170851577Y-109872064D02*
X170994435Y-109729207D01*
X170994435Y-109729207D02*
X171137292Y-109657778D01*
X173065864Y-111157778D02*
X173065864Y-109657778D01*
X173065864Y-111086350D02*
X172923006Y-111157778D01*
X172923006Y-111157778D02*
X172637292Y-111157778D01*
X172637292Y-111157778D02*
X172494435Y-111086350D01*
X172494435Y-111086350D02*
X172423006Y-111014921D01*
X172423006Y-111014921D02*
X172351578Y-110872064D01*
X172351578Y-110872064D02*
X172351578Y-110443492D01*
X172351578Y-110443492D02*
X172423006Y-110300635D01*
X172423006Y-110300635D02*
X172494435Y-110229207D01*
X172494435Y-110229207D02*
X172637292Y-110157778D01*
X172637292Y-110157778D02*
X172923006Y-110157778D01*
X172923006Y-110157778D02*
X173065864Y-110229207D01*
X174423007Y-111157778D02*
X174423007Y-109657778D01*
X174423007Y-111086350D02*
X174280149Y-111157778D01*
X174280149Y-111157778D02*
X173994435Y-111157778D01*
X173994435Y-111157778D02*
X173851578Y-111086350D01*
X173851578Y-111086350D02*
X173780149Y-111014921D01*
X173780149Y-111014921D02*
X173708721Y-110872064D01*
X173708721Y-110872064D02*
X173708721Y-110443492D01*
X173708721Y-110443492D02*
X173780149Y-110300635D01*
X173780149Y-110300635D02*
X173851578Y-110229207D01*
X173851578Y-110229207D02*
X173994435Y-110157778D01*
X173994435Y-110157778D02*
X174280149Y-110157778D01*
X174280149Y-110157778D02*
X174423007Y-110229207D01*
X177137292Y-111157778D02*
X176637292Y-110443492D01*
X176280149Y-111157778D02*
X176280149Y-109657778D01*
X176280149Y-109657778D02*
X176851578Y-109657778D01*
X176851578Y-109657778D02*
X176994435Y-109729207D01*
X176994435Y-109729207D02*
X177065864Y-109800635D01*
X177065864Y-109800635D02*
X177137292Y-109943492D01*
X177137292Y-109943492D02*
X177137292Y-110157778D01*
X177137292Y-110157778D02*
X177065864Y-110300635D01*
X177065864Y-110300635D02*
X176994435Y-110372064D01*
X176994435Y-110372064D02*
X176851578Y-110443492D01*
X176851578Y-110443492D02*
X176280149Y-110443492D01*
X178065864Y-109657778D02*
X178351578Y-109657778D01*
X178351578Y-109657778D02*
X178494435Y-109729207D01*
X178494435Y-109729207D02*
X178637292Y-109872064D01*
X178637292Y-109872064D02*
X178708721Y-110157778D01*
X178708721Y-110157778D02*
X178708721Y-110657778D01*
X178708721Y-110657778D02*
X178637292Y-110943492D01*
X178637292Y-110943492D02*
X178494435Y-111086350D01*
X178494435Y-111086350D02*
X178351578Y-111157778D01*
X178351578Y-111157778D02*
X178065864Y-111157778D01*
X178065864Y-111157778D02*
X177923007Y-111086350D01*
X177923007Y-111086350D02*
X177780149Y-110943492D01*
X177780149Y-110943492D02*
X177708721Y-110657778D01*
X177708721Y-110657778D02*
X177708721Y-110157778D01*
X177708721Y-110157778D02*
X177780149Y-109872064D01*
X177780149Y-109872064D02*
X177923007Y-109729207D01*
X177923007Y-109729207D02*
X178065864Y-109657778D01*
X179351578Y-111157778D02*
X179351578Y-109657778D01*
X179351578Y-109657778D02*
X179851578Y-110729207D01*
X179851578Y-110729207D02*
X180351578Y-109657778D01*
X180351578Y-109657778D02*
X180351578Y-111157778D01*
D12*
X179583121Y-61963589D02*
X179333121Y-61606446D01*
X179154550Y-61963589D02*
X179154550Y-61213589D01*
X179154550Y-61213589D02*
X179440264Y-61213589D01*
X179440264Y-61213589D02*
X179511693Y-61249303D01*
X179511693Y-61249303D02*
X179547407Y-61285017D01*
X179547407Y-61285017D02*
X179583121Y-61356446D01*
X179583121Y-61356446D02*
X179583121Y-61463589D01*
X179583121Y-61463589D02*
X179547407Y-61535017D01*
X179547407Y-61535017D02*
X179511693Y-61570732D01*
X179511693Y-61570732D02*
X179440264Y-61606446D01*
X179440264Y-61606446D02*
X179154550Y-61606446D01*
X180190264Y-61927875D02*
X180118836Y-61963589D01*
X180118836Y-61963589D02*
X179975979Y-61963589D01*
X179975979Y-61963589D02*
X179904550Y-61927875D01*
X179904550Y-61927875D02*
X179868836Y-61856446D01*
X179868836Y-61856446D02*
X179868836Y-61570732D01*
X179868836Y-61570732D02*
X179904550Y-61499303D01*
X179904550Y-61499303D02*
X179975979Y-61463589D01*
X179975979Y-61463589D02*
X180118836Y-61463589D01*
X180118836Y-61463589D02*
X180190264Y-61499303D01*
X180190264Y-61499303D02*
X180225979Y-61570732D01*
X180225979Y-61570732D02*
X180225979Y-61642160D01*
X180225979Y-61642160D02*
X179868836Y-61713589D01*
X180868836Y-61963589D02*
X180868836Y-61570732D01*
X180868836Y-61570732D02*
X180833121Y-61499303D01*
X180833121Y-61499303D02*
X180761693Y-61463589D01*
X180761693Y-61463589D02*
X180618836Y-61463589D01*
X180618836Y-61463589D02*
X180547407Y-61499303D01*
X180868836Y-61927875D02*
X180797407Y-61963589D01*
X180797407Y-61963589D02*
X180618836Y-61963589D01*
X180618836Y-61963589D02*
X180547407Y-61927875D01*
X180547407Y-61927875D02*
X180511693Y-61856446D01*
X180511693Y-61856446D02*
X180511693Y-61785017D01*
X180511693Y-61785017D02*
X180547407Y-61713589D01*
X180547407Y-61713589D02*
X180618836Y-61677875D01*
X180618836Y-61677875D02*
X180797407Y-61677875D01*
X180797407Y-61677875D02*
X180868836Y-61642160D01*
X181547407Y-61963589D02*
X181547407Y-61213589D01*
X181547407Y-61927875D02*
X181475978Y-61963589D01*
X181475978Y-61963589D02*
X181333121Y-61963589D01*
X181333121Y-61963589D02*
X181261692Y-61927875D01*
X181261692Y-61927875D02*
X181225978Y-61892160D01*
X181225978Y-61892160D02*
X181190264Y-61820732D01*
X181190264Y-61820732D02*
X181190264Y-61606446D01*
X181190264Y-61606446D02*
X181225978Y-61535017D01*
X181225978Y-61535017D02*
X181261692Y-61499303D01*
X181261692Y-61499303D02*
X181333121Y-61463589D01*
X181333121Y-61463589D02*
X181475978Y-61463589D01*
X181475978Y-61463589D02*
X181547407Y-61499303D01*
X182833121Y-61963589D02*
X182475978Y-61963589D01*
X182475978Y-61963589D02*
X182475978Y-61213589D01*
X183190264Y-61963589D02*
X183118835Y-61927875D01*
X183118835Y-61927875D02*
X183083121Y-61892160D01*
X183083121Y-61892160D02*
X183047407Y-61820732D01*
X183047407Y-61820732D02*
X183047407Y-61606446D01*
X183047407Y-61606446D02*
X183083121Y-61535017D01*
X183083121Y-61535017D02*
X183118835Y-61499303D01*
X183118835Y-61499303D02*
X183190264Y-61463589D01*
X183190264Y-61463589D02*
X183297407Y-61463589D01*
X183297407Y-61463589D02*
X183368835Y-61499303D01*
X183368835Y-61499303D02*
X183404550Y-61535017D01*
X183404550Y-61535017D02*
X183440264Y-61606446D01*
X183440264Y-61606446D02*
X183440264Y-61820732D01*
X183440264Y-61820732D02*
X183404550Y-61892160D01*
X183404550Y-61892160D02*
X183368835Y-61927875D01*
X183368835Y-61927875D02*
X183297407Y-61963589D01*
X183297407Y-61963589D02*
X183190264Y-61963589D01*
X183690263Y-61463589D02*
X183833121Y-61963589D01*
X183833121Y-61963589D02*
X183975978Y-61606446D01*
X183975978Y-61606446D02*
X184118835Y-61963589D01*
X184118835Y-61963589D02*
X184261692Y-61463589D01*
X185547406Y-61963589D02*
X185297406Y-61606446D01*
X185118835Y-61963589D02*
X185118835Y-61213589D01*
X185118835Y-61213589D02*
X185404549Y-61213589D01*
X185404549Y-61213589D02*
X185475978Y-61249303D01*
X185475978Y-61249303D02*
X185511692Y-61285017D01*
X185511692Y-61285017D02*
X185547406Y-61356446D01*
X185547406Y-61356446D02*
X185547406Y-61463589D01*
X185547406Y-61463589D02*
X185511692Y-61535017D01*
X185511692Y-61535017D02*
X185475978Y-61570732D01*
X185475978Y-61570732D02*
X185404549Y-61606446D01*
X185404549Y-61606446D02*
X185118835Y-61606446D01*
X185833121Y-61749303D02*
X186190264Y-61749303D01*
X185761692Y-61963589D02*
X186011692Y-61213589D01*
X186011692Y-61213589D02*
X186261692Y-61963589D01*
X186511692Y-61963589D02*
X186511692Y-61213589D01*
X186511692Y-61213589D02*
X186761692Y-61749303D01*
X186761692Y-61749303D02*
X187011692Y-61213589D01*
X187011692Y-61213589D02*
X187011692Y-61963589D01*
D10*
X161971919Y-68748377D02*
X161971919Y-68081711D01*
X161971919Y-68081711D02*
X162971919Y-68510282D01*
X162305252Y-67272187D02*
X162971919Y-67272187D01*
X161924300Y-67510282D02*
X162638585Y-67748377D01*
X162638585Y-67748377D02*
X162638585Y-67129330D01*
X162971919Y-66843615D02*
X162305252Y-66319806D01*
X162305252Y-66843615D02*
X162971919Y-66319806D01*
X161971919Y-65748377D02*
X161971919Y-65653139D01*
X161971919Y-65653139D02*
X162019538Y-65557901D01*
X162019538Y-65557901D02*
X162067157Y-65510282D01*
X162067157Y-65510282D02*
X162162395Y-65462663D01*
X162162395Y-65462663D02*
X162352871Y-65415044D01*
X162352871Y-65415044D02*
X162590966Y-65415044D01*
X162590966Y-65415044D02*
X162781442Y-65462663D01*
X162781442Y-65462663D02*
X162876680Y-65510282D01*
X162876680Y-65510282D02*
X162924300Y-65557901D01*
X162924300Y-65557901D02*
X162971919Y-65653139D01*
X162971919Y-65653139D02*
X162971919Y-65748377D01*
X162971919Y-65748377D02*
X162924300Y-65843615D01*
X162924300Y-65843615D02*
X162876680Y-65891234D01*
X162876680Y-65891234D02*
X162781442Y-65938853D01*
X162781442Y-65938853D02*
X162590966Y-65986472D01*
X162590966Y-65986472D02*
X162352871Y-65986472D01*
X162352871Y-65986472D02*
X162162395Y-65938853D01*
X162162395Y-65938853D02*
X162067157Y-65891234D01*
X162067157Y-65891234D02*
X162019538Y-65843615D01*
X162019538Y-65843615D02*
X161971919Y-65748377D01*
X162067157Y-65034091D02*
X162019538Y-64986472D01*
X162019538Y-64986472D02*
X161971919Y-64891234D01*
X161971919Y-64891234D02*
X161971919Y-64653139D01*
X161971919Y-64653139D02*
X162019538Y-64557901D01*
X162019538Y-64557901D02*
X162067157Y-64510282D01*
X162067157Y-64510282D02*
X162162395Y-64462663D01*
X162162395Y-64462663D02*
X162257633Y-64462663D01*
X162257633Y-64462663D02*
X162400490Y-64510282D01*
X162400490Y-64510282D02*
X162971919Y-65081710D01*
X162971919Y-65081710D02*
X162971919Y-64462663D01*
X139875313Y-109840680D02*
X139827694Y-109888300D01*
X139827694Y-109888300D02*
X139684837Y-109935919D01*
X139684837Y-109935919D02*
X139589599Y-109935919D01*
X139589599Y-109935919D02*
X139446742Y-109888300D01*
X139446742Y-109888300D02*
X139351504Y-109793061D01*
X139351504Y-109793061D02*
X139303885Y-109697823D01*
X139303885Y-109697823D02*
X139256266Y-109507347D01*
X139256266Y-109507347D02*
X139256266Y-109364490D01*
X139256266Y-109364490D02*
X139303885Y-109174014D01*
X139303885Y-109174014D02*
X139351504Y-109078776D01*
X139351504Y-109078776D02*
X139446742Y-108983538D01*
X139446742Y-108983538D02*
X139589599Y-108935919D01*
X139589599Y-108935919D02*
X139684837Y-108935919D01*
X139684837Y-108935919D02*
X139827694Y-108983538D01*
X139827694Y-108983538D02*
X139875313Y-109031157D01*
X140494361Y-109459728D02*
X140494361Y-109935919D01*
X140161028Y-108935919D02*
X140494361Y-109459728D01*
X140494361Y-109459728D02*
X140827694Y-108935919D01*
X141589599Y-108935919D02*
X141399123Y-108935919D01*
X141399123Y-108935919D02*
X141303885Y-108983538D01*
X141303885Y-108983538D02*
X141256266Y-109031157D01*
X141256266Y-109031157D02*
X141161028Y-109174014D01*
X141161028Y-109174014D02*
X141113409Y-109364490D01*
X141113409Y-109364490D02*
X141113409Y-109745442D01*
X141113409Y-109745442D02*
X141161028Y-109840680D01*
X141161028Y-109840680D02*
X141208647Y-109888300D01*
X141208647Y-109888300D02*
X141303885Y-109935919D01*
X141303885Y-109935919D02*
X141494361Y-109935919D01*
X141494361Y-109935919D02*
X141589599Y-109888300D01*
X141589599Y-109888300D02*
X141637218Y-109840680D01*
X141637218Y-109840680D02*
X141684837Y-109745442D01*
X141684837Y-109745442D02*
X141684837Y-109507347D01*
X141684837Y-109507347D02*
X141637218Y-109412109D01*
X141637218Y-109412109D02*
X141589599Y-109364490D01*
X141589599Y-109364490D02*
X141494361Y-109316871D01*
X141494361Y-109316871D02*
X141303885Y-109316871D01*
X141303885Y-109316871D02*
X141208647Y-109364490D01*
X141208647Y-109364490D02*
X141161028Y-109412109D01*
X141161028Y-109412109D02*
X141113409Y-109507347D01*
X142065790Y-109031157D02*
X142113409Y-108983538D01*
X142113409Y-108983538D02*
X142208647Y-108935919D01*
X142208647Y-108935919D02*
X142446742Y-108935919D01*
X142446742Y-108935919D02*
X142541980Y-108983538D01*
X142541980Y-108983538D02*
X142589599Y-109031157D01*
X142589599Y-109031157D02*
X142637218Y-109126395D01*
X142637218Y-109126395D02*
X142637218Y-109221633D01*
X142637218Y-109221633D02*
X142589599Y-109364490D01*
X142589599Y-109364490D02*
X142018171Y-109935919D01*
X142018171Y-109935919D02*
X142637218Y-109935919D01*
X143589599Y-109935919D02*
X143018171Y-109935919D01*
X143303885Y-109935919D02*
X143303885Y-108935919D01*
X143303885Y-108935919D02*
X143208647Y-109078776D01*
X143208647Y-109078776D02*
X143113409Y-109174014D01*
X143113409Y-109174014D02*
X143018171Y-109221633D01*
X144494361Y-108935919D02*
X144018171Y-108935919D01*
X144018171Y-108935919D02*
X143970552Y-109412109D01*
X143970552Y-109412109D02*
X144018171Y-109364490D01*
X144018171Y-109364490D02*
X144113409Y-109316871D01*
X144113409Y-109316871D02*
X144351504Y-109316871D01*
X144351504Y-109316871D02*
X144446742Y-109364490D01*
X144446742Y-109364490D02*
X144494361Y-109412109D01*
X144494361Y-109412109D02*
X144541980Y-109507347D01*
X144541980Y-109507347D02*
X144541980Y-109745442D01*
X144541980Y-109745442D02*
X144494361Y-109840680D01*
X144494361Y-109840680D02*
X144446742Y-109888300D01*
X144446742Y-109888300D02*
X144351504Y-109935919D01*
X144351504Y-109935919D02*
X144113409Y-109935919D01*
X144113409Y-109935919D02*
X144018171Y-109888300D01*
X144018171Y-109888300D02*
X143970552Y-109840680D01*
X145113409Y-109364490D02*
X145018171Y-109316871D01*
X145018171Y-109316871D02*
X144970552Y-109269252D01*
X144970552Y-109269252D02*
X144922933Y-109174014D01*
X144922933Y-109174014D02*
X144922933Y-109126395D01*
X144922933Y-109126395D02*
X144970552Y-109031157D01*
X144970552Y-109031157D02*
X145018171Y-108983538D01*
X145018171Y-108983538D02*
X145113409Y-108935919D01*
X145113409Y-108935919D02*
X145303885Y-108935919D01*
X145303885Y-108935919D02*
X145399123Y-108983538D01*
X145399123Y-108983538D02*
X145446742Y-109031157D01*
X145446742Y-109031157D02*
X145494361Y-109126395D01*
X145494361Y-109126395D02*
X145494361Y-109174014D01*
X145494361Y-109174014D02*
X145446742Y-109269252D01*
X145446742Y-109269252D02*
X145399123Y-109316871D01*
X145399123Y-109316871D02*
X145303885Y-109364490D01*
X145303885Y-109364490D02*
X145113409Y-109364490D01*
X145113409Y-109364490D02*
X145018171Y-109412109D01*
X145018171Y-109412109D02*
X144970552Y-109459728D01*
X144970552Y-109459728D02*
X144922933Y-109554966D01*
X144922933Y-109554966D02*
X144922933Y-109745442D01*
X144922933Y-109745442D02*
X144970552Y-109840680D01*
X144970552Y-109840680D02*
X145018171Y-109888300D01*
X145018171Y-109888300D02*
X145113409Y-109935919D01*
X145113409Y-109935919D02*
X145303885Y-109935919D01*
X145303885Y-109935919D02*
X145399123Y-109888300D01*
X145399123Y-109888300D02*
X145446742Y-109840680D01*
X145446742Y-109840680D02*
X145494361Y-109745442D01*
X145494361Y-109745442D02*
X145494361Y-109554966D01*
X145494361Y-109554966D02*
X145446742Y-109459728D01*
X145446742Y-109459728D02*
X145399123Y-109412109D01*
X145399123Y-109412109D02*
X145303885Y-109364490D01*
X145922933Y-109935919D02*
X145922933Y-108935919D01*
X145922933Y-109412109D02*
X146494361Y-109412109D01*
X146494361Y-109935919D02*
X146494361Y-108935919D01*
X172945313Y-87413907D02*
X172992932Y-87366288D01*
X172992932Y-87366288D02*
X173088170Y-87318669D01*
X173088170Y-87318669D02*
X173326265Y-87318669D01*
X173326265Y-87318669D02*
X173421503Y-87366288D01*
X173421503Y-87366288D02*
X173469122Y-87413907D01*
X173469122Y-87413907D02*
X173516741Y-87509145D01*
X173516741Y-87509145D02*
X173516741Y-87604383D01*
X173516741Y-87604383D02*
X173469122Y-87747240D01*
X173469122Y-87747240D02*
X172897694Y-88318669D01*
X172897694Y-88318669D02*
X173516741Y-88318669D01*
X173850075Y-87318669D02*
X174516741Y-87318669D01*
X174516741Y-87318669D02*
X174088170Y-88318669D01*
X175469122Y-88223430D02*
X175421503Y-88271050D01*
X175421503Y-88271050D02*
X175278646Y-88318669D01*
X175278646Y-88318669D02*
X175183408Y-88318669D01*
X175183408Y-88318669D02*
X175040551Y-88271050D01*
X175040551Y-88271050D02*
X174945313Y-88175811D01*
X174945313Y-88175811D02*
X174897694Y-88080573D01*
X174897694Y-88080573D02*
X174850075Y-87890097D01*
X174850075Y-87890097D02*
X174850075Y-87747240D01*
X174850075Y-87747240D02*
X174897694Y-87556764D01*
X174897694Y-87556764D02*
X174945313Y-87461526D01*
X174945313Y-87461526D02*
X175040551Y-87366288D01*
X175040551Y-87366288D02*
X175183408Y-87318669D01*
X175183408Y-87318669D02*
X175278646Y-87318669D01*
X175278646Y-87318669D02*
X175421503Y-87366288D01*
X175421503Y-87366288D02*
X175469122Y-87413907D01*
X176088170Y-87318669D02*
X176183408Y-87318669D01*
X176183408Y-87318669D02*
X176278646Y-87366288D01*
X176278646Y-87366288D02*
X176326265Y-87413907D01*
X176326265Y-87413907D02*
X176373884Y-87509145D01*
X176373884Y-87509145D02*
X176421503Y-87699621D01*
X176421503Y-87699621D02*
X176421503Y-87937716D01*
X176421503Y-87937716D02*
X176373884Y-88128192D01*
X176373884Y-88128192D02*
X176326265Y-88223430D01*
X176326265Y-88223430D02*
X176278646Y-88271050D01*
X176278646Y-88271050D02*
X176183408Y-88318669D01*
X176183408Y-88318669D02*
X176088170Y-88318669D01*
X176088170Y-88318669D02*
X175992932Y-88271050D01*
X175992932Y-88271050D02*
X175945313Y-88223430D01*
X175945313Y-88223430D02*
X175897694Y-88128192D01*
X175897694Y-88128192D02*
X175850075Y-87937716D01*
X175850075Y-87937716D02*
X175850075Y-87699621D01*
X175850075Y-87699621D02*
X175897694Y-87509145D01*
X175897694Y-87509145D02*
X175945313Y-87413907D01*
X175945313Y-87413907D02*
X175992932Y-87366288D01*
X175992932Y-87366288D02*
X176088170Y-87318669D01*
X177373884Y-88318669D02*
X176802456Y-88318669D01*
X177088170Y-88318669D02*
X177088170Y-87318669D01*
X177088170Y-87318669D02*
X176992932Y-87461526D01*
X176992932Y-87461526D02*
X176897694Y-87556764D01*
X176897694Y-87556764D02*
X176802456Y-87604383D01*
X177992932Y-87318669D02*
X178088170Y-87318669D01*
X178088170Y-87318669D02*
X178183408Y-87366288D01*
X178183408Y-87366288D02*
X178231027Y-87413907D01*
X178231027Y-87413907D02*
X178278646Y-87509145D01*
X178278646Y-87509145D02*
X178326265Y-87699621D01*
X178326265Y-87699621D02*
X178326265Y-87937716D01*
X178326265Y-87937716D02*
X178278646Y-88128192D01*
X178278646Y-88128192D02*
X178231027Y-88223430D01*
X178231027Y-88223430D02*
X178183408Y-88271050D01*
X178183408Y-88271050D02*
X178088170Y-88318669D01*
X178088170Y-88318669D02*
X177992932Y-88318669D01*
X177992932Y-88318669D02*
X177897694Y-88271050D01*
X177897694Y-88271050D02*
X177850075Y-88223430D01*
X177850075Y-88223430D02*
X177802456Y-88128192D01*
X177802456Y-88128192D02*
X177754837Y-87937716D01*
X177754837Y-87937716D02*
X177754837Y-87699621D01*
X177754837Y-87699621D02*
X177802456Y-87509145D01*
X177802456Y-87509145D02*
X177850075Y-87413907D01*
X177850075Y-87413907D02*
X177897694Y-87366288D01*
X177897694Y-87366288D02*
X177992932Y-87318669D01*
X139677932Y-64031419D02*
X140344598Y-64031419D01*
X140344598Y-64031419D02*
X139916027Y-65031419D01*
X141154122Y-64364752D02*
X141154122Y-65031419D01*
X140916027Y-63983800D02*
X140677932Y-64698085D01*
X140677932Y-64698085D02*
X141296979Y-64698085D01*
X141582694Y-65031419D02*
X142106503Y-64364752D01*
X141582694Y-64364752D02*
X142106503Y-65031419D01*
X142963646Y-64031419D02*
X142487456Y-64031419D01*
X142487456Y-64031419D02*
X142439837Y-64507609D01*
X142439837Y-64507609D02*
X142487456Y-64459990D01*
X142487456Y-64459990D02*
X142582694Y-64412371D01*
X142582694Y-64412371D02*
X142820789Y-64412371D01*
X142820789Y-64412371D02*
X142916027Y-64459990D01*
X142916027Y-64459990D02*
X142963646Y-64507609D01*
X142963646Y-64507609D02*
X143011265Y-64602847D01*
X143011265Y-64602847D02*
X143011265Y-64840942D01*
X143011265Y-64840942D02*
X142963646Y-64936180D01*
X142963646Y-64936180D02*
X142916027Y-64983800D01*
X142916027Y-64983800D02*
X142820789Y-65031419D01*
X142820789Y-65031419D02*
X142582694Y-65031419D01*
X142582694Y-65031419D02*
X142487456Y-64983800D01*
X142487456Y-64983800D02*
X142439837Y-64936180D01*
X143868408Y-64364752D02*
X143868408Y-65031419D01*
X143630313Y-63983800D02*
X143392218Y-64698085D01*
X143392218Y-64698085D02*
X144011265Y-64698085D01*
X144916027Y-65031419D02*
X144344599Y-65031419D01*
X144630313Y-65031419D02*
X144630313Y-64031419D01*
X144630313Y-64031419D02*
X144535075Y-64174276D01*
X144535075Y-64174276D02*
X144439837Y-64269514D01*
X144439837Y-64269514D02*
X144344599Y-64317133D01*
D11*
X170423006Y-89925064D02*
X170923006Y-89925064D01*
X171137292Y-90710778D02*
X170423006Y-90710778D01*
X170423006Y-90710778D02*
X170423006Y-89210778D01*
X170423006Y-89210778D02*
X171137292Y-89210778D01*
X171637292Y-89710778D02*
X171994435Y-90710778D01*
X171994435Y-90710778D02*
X172351578Y-89710778D01*
X173494435Y-90639350D02*
X173351578Y-90710778D01*
X173351578Y-90710778D02*
X173065864Y-90710778D01*
X173065864Y-90710778D02*
X172923006Y-90639350D01*
X172923006Y-90639350D02*
X172851578Y-90496492D01*
X172851578Y-90496492D02*
X172851578Y-89925064D01*
X172851578Y-89925064D02*
X172923006Y-89782207D01*
X172923006Y-89782207D02*
X173065864Y-89710778D01*
X173065864Y-89710778D02*
X173351578Y-89710778D01*
X173351578Y-89710778D02*
X173494435Y-89782207D01*
X173494435Y-89782207D02*
X173565864Y-89925064D01*
X173565864Y-89925064D02*
X173565864Y-90067921D01*
X173565864Y-90067921D02*
X172851578Y-90210778D01*
X174208720Y-89710778D02*
X174208720Y-90710778D01*
X174208720Y-89853635D02*
X174280149Y-89782207D01*
X174280149Y-89782207D02*
X174423006Y-89710778D01*
X174423006Y-89710778D02*
X174637292Y-89710778D01*
X174637292Y-89710778D02*
X174780149Y-89782207D01*
X174780149Y-89782207D02*
X174851578Y-89925064D01*
X174851578Y-89925064D02*
X174851578Y-90710778D01*
X177565863Y-90710778D02*
X177065863Y-89996492D01*
X176708720Y-90710778D02*
X176708720Y-89210778D01*
X176708720Y-89210778D02*
X177280149Y-89210778D01*
X177280149Y-89210778D02*
X177423006Y-89282207D01*
X177423006Y-89282207D02*
X177494435Y-89353635D01*
X177494435Y-89353635D02*
X177565863Y-89496492D01*
X177565863Y-89496492D02*
X177565863Y-89710778D01*
X177565863Y-89710778D02*
X177494435Y-89853635D01*
X177494435Y-89853635D02*
X177423006Y-89925064D01*
X177423006Y-89925064D02*
X177280149Y-89996492D01*
X177280149Y-89996492D02*
X176708720Y-89996492D01*
X178494435Y-89210778D02*
X178780149Y-89210778D01*
X178780149Y-89210778D02*
X178923006Y-89282207D01*
X178923006Y-89282207D02*
X179065863Y-89425064D01*
X179065863Y-89425064D02*
X179137292Y-89710778D01*
X179137292Y-89710778D02*
X179137292Y-90210778D01*
X179137292Y-90210778D02*
X179065863Y-90496492D01*
X179065863Y-90496492D02*
X178923006Y-90639350D01*
X178923006Y-90639350D02*
X178780149Y-90710778D01*
X178780149Y-90710778D02*
X178494435Y-90710778D01*
X178494435Y-90710778D02*
X178351578Y-90639350D01*
X178351578Y-90639350D02*
X178208720Y-90496492D01*
X178208720Y-90496492D02*
X178137292Y-90210778D01*
X178137292Y-90210778D02*
X178137292Y-89710778D01*
X178137292Y-89710778D02*
X178208720Y-89425064D01*
X178208720Y-89425064D02*
X178351578Y-89282207D01*
X178351578Y-89282207D02*
X178494435Y-89210778D01*
X179780149Y-90710778D02*
X179780149Y-89210778D01*
X179780149Y-89210778D02*
X180280149Y-90282207D01*
X180280149Y-90282207D02*
X180780149Y-89210778D01*
X180780149Y-89210778D02*
X180780149Y-90710778D01*
D12*
X182083121Y-58788589D02*
X181833121Y-58431446D01*
X181654550Y-58788589D02*
X181654550Y-58038589D01*
X181654550Y-58038589D02*
X181940264Y-58038589D01*
X181940264Y-58038589D02*
X182011693Y-58074303D01*
X182011693Y-58074303D02*
X182047407Y-58110017D01*
X182047407Y-58110017D02*
X182083121Y-58181446D01*
X182083121Y-58181446D02*
X182083121Y-58288589D01*
X182083121Y-58288589D02*
X182047407Y-58360017D01*
X182047407Y-58360017D02*
X182011693Y-58395732D01*
X182011693Y-58395732D02*
X181940264Y-58431446D01*
X181940264Y-58431446D02*
X181654550Y-58431446D01*
X182690264Y-58752875D02*
X182618836Y-58788589D01*
X182618836Y-58788589D02*
X182475979Y-58788589D01*
X182475979Y-58788589D02*
X182404550Y-58752875D01*
X182404550Y-58752875D02*
X182368836Y-58681446D01*
X182368836Y-58681446D02*
X182368836Y-58395732D01*
X182368836Y-58395732D02*
X182404550Y-58324303D01*
X182404550Y-58324303D02*
X182475979Y-58288589D01*
X182475979Y-58288589D02*
X182618836Y-58288589D01*
X182618836Y-58288589D02*
X182690264Y-58324303D01*
X182690264Y-58324303D02*
X182725979Y-58395732D01*
X182725979Y-58395732D02*
X182725979Y-58467160D01*
X182725979Y-58467160D02*
X182368836Y-58538589D01*
X183368836Y-58788589D02*
X183368836Y-58395732D01*
X183368836Y-58395732D02*
X183333121Y-58324303D01*
X183333121Y-58324303D02*
X183261693Y-58288589D01*
X183261693Y-58288589D02*
X183118836Y-58288589D01*
X183118836Y-58288589D02*
X183047407Y-58324303D01*
X183368836Y-58752875D02*
X183297407Y-58788589D01*
X183297407Y-58788589D02*
X183118836Y-58788589D01*
X183118836Y-58788589D02*
X183047407Y-58752875D01*
X183047407Y-58752875D02*
X183011693Y-58681446D01*
X183011693Y-58681446D02*
X183011693Y-58610017D01*
X183011693Y-58610017D02*
X183047407Y-58538589D01*
X183047407Y-58538589D02*
X183118836Y-58502875D01*
X183118836Y-58502875D02*
X183297407Y-58502875D01*
X183297407Y-58502875D02*
X183368836Y-58467160D01*
X184047407Y-58788589D02*
X184047407Y-58038589D01*
X184047407Y-58752875D02*
X183975978Y-58788589D01*
X183975978Y-58788589D02*
X183833121Y-58788589D01*
X183833121Y-58788589D02*
X183761692Y-58752875D01*
X183761692Y-58752875D02*
X183725978Y-58717160D01*
X183725978Y-58717160D02*
X183690264Y-58645732D01*
X183690264Y-58645732D02*
X183690264Y-58431446D01*
X183690264Y-58431446D02*
X183725978Y-58360017D01*
X183725978Y-58360017D02*
X183761692Y-58324303D01*
X183761692Y-58324303D02*
X183833121Y-58288589D01*
X183833121Y-58288589D02*
X183975978Y-58288589D01*
X183975978Y-58288589D02*
X184047407Y-58324303D01*
X185404549Y-58788589D02*
X185154549Y-58431446D01*
X184975978Y-58788589D02*
X184975978Y-58038589D01*
X184975978Y-58038589D02*
X185261692Y-58038589D01*
X185261692Y-58038589D02*
X185333121Y-58074303D01*
X185333121Y-58074303D02*
X185368835Y-58110017D01*
X185368835Y-58110017D02*
X185404549Y-58181446D01*
X185404549Y-58181446D02*
X185404549Y-58288589D01*
X185404549Y-58288589D02*
X185368835Y-58360017D01*
X185368835Y-58360017D02*
X185333121Y-58395732D01*
X185333121Y-58395732D02*
X185261692Y-58431446D01*
X185261692Y-58431446D02*
X184975978Y-58431446D01*
X185868835Y-58038589D02*
X186011692Y-58038589D01*
X186011692Y-58038589D02*
X186083121Y-58074303D01*
X186083121Y-58074303D02*
X186154549Y-58145732D01*
X186154549Y-58145732D02*
X186190264Y-58288589D01*
X186190264Y-58288589D02*
X186190264Y-58538589D01*
X186190264Y-58538589D02*
X186154549Y-58681446D01*
X186154549Y-58681446D02*
X186083121Y-58752875D01*
X186083121Y-58752875D02*
X186011692Y-58788589D01*
X186011692Y-58788589D02*
X185868835Y-58788589D01*
X185868835Y-58788589D02*
X185797407Y-58752875D01*
X185797407Y-58752875D02*
X185725978Y-58681446D01*
X185725978Y-58681446D02*
X185690264Y-58538589D01*
X185690264Y-58538589D02*
X185690264Y-58288589D01*
X185690264Y-58288589D02*
X185725978Y-58145732D01*
X185725978Y-58145732D02*
X185797407Y-58074303D01*
X185797407Y-58074303D02*
X185868835Y-58038589D01*
X186511692Y-58788589D02*
X186511692Y-58038589D01*
X186511692Y-58038589D02*
X186761692Y-58574303D01*
X186761692Y-58574303D02*
X187011692Y-58038589D01*
X187011692Y-58038589D02*
X187011692Y-58788589D01*
D10*
X172945313Y-107606907D02*
X172992932Y-107559288D01*
X172992932Y-107559288D02*
X173088170Y-107511669D01*
X173088170Y-107511669D02*
X173326265Y-107511669D01*
X173326265Y-107511669D02*
X173421503Y-107559288D01*
X173421503Y-107559288D02*
X173469122Y-107606907D01*
X173469122Y-107606907D02*
X173516741Y-107702145D01*
X173516741Y-107702145D02*
X173516741Y-107797383D01*
X173516741Y-107797383D02*
X173469122Y-107940240D01*
X173469122Y-107940240D02*
X172897694Y-108511669D01*
X172897694Y-108511669D02*
X173516741Y-108511669D01*
X173850075Y-107511669D02*
X174516741Y-107511669D01*
X174516741Y-107511669D02*
X174088170Y-108511669D01*
X175469122Y-108416430D02*
X175421503Y-108464050D01*
X175421503Y-108464050D02*
X175278646Y-108511669D01*
X175278646Y-108511669D02*
X175183408Y-108511669D01*
X175183408Y-108511669D02*
X175040551Y-108464050D01*
X175040551Y-108464050D02*
X174945313Y-108368811D01*
X174945313Y-108368811D02*
X174897694Y-108273573D01*
X174897694Y-108273573D02*
X174850075Y-108083097D01*
X174850075Y-108083097D02*
X174850075Y-107940240D01*
X174850075Y-107940240D02*
X174897694Y-107749764D01*
X174897694Y-107749764D02*
X174945313Y-107654526D01*
X174945313Y-107654526D02*
X175040551Y-107559288D01*
X175040551Y-107559288D02*
X175183408Y-107511669D01*
X175183408Y-107511669D02*
X175278646Y-107511669D01*
X175278646Y-107511669D02*
X175421503Y-107559288D01*
X175421503Y-107559288D02*
X175469122Y-107606907D01*
X176088170Y-107511669D02*
X176183408Y-107511669D01*
X176183408Y-107511669D02*
X176278646Y-107559288D01*
X176278646Y-107559288D02*
X176326265Y-107606907D01*
X176326265Y-107606907D02*
X176373884Y-107702145D01*
X176373884Y-107702145D02*
X176421503Y-107892621D01*
X176421503Y-107892621D02*
X176421503Y-108130716D01*
X176421503Y-108130716D02*
X176373884Y-108321192D01*
X176373884Y-108321192D02*
X176326265Y-108416430D01*
X176326265Y-108416430D02*
X176278646Y-108464050D01*
X176278646Y-108464050D02*
X176183408Y-108511669D01*
X176183408Y-108511669D02*
X176088170Y-108511669D01*
X176088170Y-108511669D02*
X175992932Y-108464050D01*
X175992932Y-108464050D02*
X175945313Y-108416430D01*
X175945313Y-108416430D02*
X175897694Y-108321192D01*
X175897694Y-108321192D02*
X175850075Y-108130716D01*
X175850075Y-108130716D02*
X175850075Y-107892621D01*
X175850075Y-107892621D02*
X175897694Y-107702145D01*
X175897694Y-107702145D02*
X175945313Y-107606907D01*
X175945313Y-107606907D02*
X175992932Y-107559288D01*
X175992932Y-107559288D02*
X176088170Y-107511669D01*
X177373884Y-108511669D02*
X176802456Y-108511669D01*
X177088170Y-108511669D02*
X177088170Y-107511669D01*
X177088170Y-107511669D02*
X176992932Y-107654526D01*
X176992932Y-107654526D02*
X176897694Y-107749764D01*
X176897694Y-107749764D02*
X176802456Y-107797383D01*
X177992932Y-107511669D02*
X178088170Y-107511669D01*
X178088170Y-107511669D02*
X178183408Y-107559288D01*
X178183408Y-107559288D02*
X178231027Y-107606907D01*
X178231027Y-107606907D02*
X178278646Y-107702145D01*
X178278646Y-107702145D02*
X178326265Y-107892621D01*
X178326265Y-107892621D02*
X178326265Y-108130716D01*
X178326265Y-108130716D02*
X178278646Y-108321192D01*
X178278646Y-108321192D02*
X178231027Y-108416430D01*
X178231027Y-108416430D02*
X178183408Y-108464050D01*
X178183408Y-108464050D02*
X178088170Y-108511669D01*
X178088170Y-108511669D02*
X177992932Y-108511669D01*
X177992932Y-108511669D02*
X177897694Y-108464050D01*
X177897694Y-108464050D02*
X177850075Y-108416430D01*
X177850075Y-108416430D02*
X177802456Y-108321192D01*
X177802456Y-108321192D02*
X177754837Y-108130716D01*
X177754837Y-108130716D02*
X177754837Y-107892621D01*
X177754837Y-107892621D02*
X177802456Y-107702145D01*
X177802456Y-107702145D02*
X177850075Y-107606907D01*
X177850075Y-107606907D02*
X177897694Y-107559288D01*
X177897694Y-107559288D02*
X177992932Y-107511669D01*
X118920313Y-109840680D02*
X118872694Y-109888300D01*
X118872694Y-109888300D02*
X118729837Y-109935919D01*
X118729837Y-109935919D02*
X118634599Y-109935919D01*
X118634599Y-109935919D02*
X118491742Y-109888300D01*
X118491742Y-109888300D02*
X118396504Y-109793061D01*
X118396504Y-109793061D02*
X118348885Y-109697823D01*
X118348885Y-109697823D02*
X118301266Y-109507347D01*
X118301266Y-109507347D02*
X118301266Y-109364490D01*
X118301266Y-109364490D02*
X118348885Y-109174014D01*
X118348885Y-109174014D02*
X118396504Y-109078776D01*
X118396504Y-109078776D02*
X118491742Y-108983538D01*
X118491742Y-108983538D02*
X118634599Y-108935919D01*
X118634599Y-108935919D02*
X118729837Y-108935919D01*
X118729837Y-108935919D02*
X118872694Y-108983538D01*
X118872694Y-108983538D02*
X118920313Y-109031157D01*
X119539361Y-109459728D02*
X119539361Y-109935919D01*
X119206028Y-108935919D02*
X119539361Y-109459728D01*
X119539361Y-109459728D02*
X119872694Y-108935919D01*
X120634599Y-108935919D02*
X120444123Y-108935919D01*
X120444123Y-108935919D02*
X120348885Y-108983538D01*
X120348885Y-108983538D02*
X120301266Y-109031157D01*
X120301266Y-109031157D02*
X120206028Y-109174014D01*
X120206028Y-109174014D02*
X120158409Y-109364490D01*
X120158409Y-109364490D02*
X120158409Y-109745442D01*
X120158409Y-109745442D02*
X120206028Y-109840680D01*
X120206028Y-109840680D02*
X120253647Y-109888300D01*
X120253647Y-109888300D02*
X120348885Y-109935919D01*
X120348885Y-109935919D02*
X120539361Y-109935919D01*
X120539361Y-109935919D02*
X120634599Y-109888300D01*
X120634599Y-109888300D02*
X120682218Y-109840680D01*
X120682218Y-109840680D02*
X120729837Y-109745442D01*
X120729837Y-109745442D02*
X120729837Y-109507347D01*
X120729837Y-109507347D02*
X120682218Y-109412109D01*
X120682218Y-109412109D02*
X120634599Y-109364490D01*
X120634599Y-109364490D02*
X120539361Y-109316871D01*
X120539361Y-109316871D02*
X120348885Y-109316871D01*
X120348885Y-109316871D02*
X120253647Y-109364490D01*
X120253647Y-109364490D02*
X120206028Y-109412109D01*
X120206028Y-109412109D02*
X120158409Y-109507347D01*
X121110790Y-109031157D02*
X121158409Y-108983538D01*
X121158409Y-108983538D02*
X121253647Y-108935919D01*
X121253647Y-108935919D02*
X121491742Y-108935919D01*
X121491742Y-108935919D02*
X121586980Y-108983538D01*
X121586980Y-108983538D02*
X121634599Y-109031157D01*
X121634599Y-109031157D02*
X121682218Y-109126395D01*
X121682218Y-109126395D02*
X121682218Y-109221633D01*
X121682218Y-109221633D02*
X121634599Y-109364490D01*
X121634599Y-109364490D02*
X121063171Y-109935919D01*
X121063171Y-109935919D02*
X121682218Y-109935919D01*
X122634599Y-109935919D02*
X122063171Y-109935919D01*
X122348885Y-109935919D02*
X122348885Y-108935919D01*
X122348885Y-108935919D02*
X122253647Y-109078776D01*
X122253647Y-109078776D02*
X122158409Y-109174014D01*
X122158409Y-109174014D02*
X122063171Y-109221633D01*
X123539361Y-108935919D02*
X123063171Y-108935919D01*
X123063171Y-108935919D02*
X123015552Y-109412109D01*
X123015552Y-109412109D02*
X123063171Y-109364490D01*
X123063171Y-109364490D02*
X123158409Y-109316871D01*
X123158409Y-109316871D02*
X123396504Y-109316871D01*
X123396504Y-109316871D02*
X123491742Y-109364490D01*
X123491742Y-109364490D02*
X123539361Y-109412109D01*
X123539361Y-109412109D02*
X123586980Y-109507347D01*
X123586980Y-109507347D02*
X123586980Y-109745442D01*
X123586980Y-109745442D02*
X123539361Y-109840680D01*
X123539361Y-109840680D02*
X123491742Y-109888300D01*
X123491742Y-109888300D02*
X123396504Y-109935919D01*
X123396504Y-109935919D02*
X123158409Y-109935919D01*
X123158409Y-109935919D02*
X123063171Y-109888300D01*
X123063171Y-109888300D02*
X123015552Y-109840680D01*
X124158409Y-109364490D02*
X124063171Y-109316871D01*
X124063171Y-109316871D02*
X124015552Y-109269252D01*
X124015552Y-109269252D02*
X123967933Y-109174014D01*
X123967933Y-109174014D02*
X123967933Y-109126395D01*
X123967933Y-109126395D02*
X124015552Y-109031157D01*
X124015552Y-109031157D02*
X124063171Y-108983538D01*
X124063171Y-108983538D02*
X124158409Y-108935919D01*
X124158409Y-108935919D02*
X124348885Y-108935919D01*
X124348885Y-108935919D02*
X124444123Y-108983538D01*
X124444123Y-108983538D02*
X124491742Y-109031157D01*
X124491742Y-109031157D02*
X124539361Y-109126395D01*
X124539361Y-109126395D02*
X124539361Y-109174014D01*
X124539361Y-109174014D02*
X124491742Y-109269252D01*
X124491742Y-109269252D02*
X124444123Y-109316871D01*
X124444123Y-109316871D02*
X124348885Y-109364490D01*
X124348885Y-109364490D02*
X124158409Y-109364490D01*
X124158409Y-109364490D02*
X124063171Y-109412109D01*
X124063171Y-109412109D02*
X124015552Y-109459728D01*
X124015552Y-109459728D02*
X123967933Y-109554966D01*
X123967933Y-109554966D02*
X123967933Y-109745442D01*
X123967933Y-109745442D02*
X124015552Y-109840680D01*
X124015552Y-109840680D02*
X124063171Y-109888300D01*
X124063171Y-109888300D02*
X124158409Y-109935919D01*
X124158409Y-109935919D02*
X124348885Y-109935919D01*
X124348885Y-109935919D02*
X124444123Y-109888300D01*
X124444123Y-109888300D02*
X124491742Y-109840680D01*
X124491742Y-109840680D02*
X124539361Y-109745442D01*
X124539361Y-109745442D02*
X124539361Y-109554966D01*
X124539361Y-109554966D02*
X124491742Y-109459728D01*
X124491742Y-109459728D02*
X124444123Y-109412109D01*
X124444123Y-109412109D02*
X124348885Y-109364490D01*
X124967933Y-109935919D02*
X124967933Y-108935919D01*
X124967933Y-109412109D02*
X125539361Y-109412109D01*
X125539361Y-109935919D02*
X125539361Y-108935919D01*
D12*
X179083120Y-67563589D02*
X179261692Y-68313589D01*
X179261692Y-68313589D02*
X179404549Y-67777875D01*
X179404549Y-67777875D02*
X179547406Y-68313589D01*
X179547406Y-68313589D02*
X179725978Y-67563589D01*
X180011692Y-68313589D02*
X180011692Y-67813589D01*
X180011692Y-67956446D02*
X180047406Y-67885017D01*
X180047406Y-67885017D02*
X180083121Y-67849303D01*
X180083121Y-67849303D02*
X180154549Y-67813589D01*
X180154549Y-67813589D02*
X180225978Y-67813589D01*
X180475978Y-68313589D02*
X180475978Y-67813589D01*
X180475978Y-67563589D02*
X180440264Y-67599303D01*
X180440264Y-67599303D02*
X180475978Y-67635017D01*
X180475978Y-67635017D02*
X180511692Y-67599303D01*
X180511692Y-67599303D02*
X180475978Y-67563589D01*
X180475978Y-67563589D02*
X180475978Y-67635017D01*
X180725978Y-67813589D02*
X181011692Y-67813589D01*
X180833121Y-67563589D02*
X180833121Y-68206446D01*
X180833121Y-68206446D02*
X180868835Y-68277875D01*
X180868835Y-68277875D02*
X180940264Y-68313589D01*
X180940264Y-68313589D02*
X181011692Y-68313589D01*
X181547406Y-68277875D02*
X181475978Y-68313589D01*
X181475978Y-68313589D02*
X181333121Y-68313589D01*
X181333121Y-68313589D02*
X181261692Y-68277875D01*
X181261692Y-68277875D02*
X181225978Y-68206446D01*
X181225978Y-68206446D02*
X181225978Y-67920732D01*
X181225978Y-67920732D02*
X181261692Y-67849303D01*
X181261692Y-67849303D02*
X181333121Y-67813589D01*
X181333121Y-67813589D02*
X181475978Y-67813589D01*
X181475978Y-67813589D02*
X181547406Y-67849303D01*
X181547406Y-67849303D02*
X181583121Y-67920732D01*
X181583121Y-67920732D02*
X181583121Y-67992160D01*
X181583121Y-67992160D02*
X181225978Y-68063589D01*
X182833121Y-68313589D02*
X182475978Y-68313589D01*
X182475978Y-68313589D02*
X182475978Y-67563589D01*
X183190264Y-68313589D02*
X183118835Y-68277875D01*
X183118835Y-68277875D02*
X183083121Y-68242160D01*
X183083121Y-68242160D02*
X183047407Y-68170732D01*
X183047407Y-68170732D02*
X183047407Y-67956446D01*
X183047407Y-67956446D02*
X183083121Y-67885017D01*
X183083121Y-67885017D02*
X183118835Y-67849303D01*
X183118835Y-67849303D02*
X183190264Y-67813589D01*
X183190264Y-67813589D02*
X183297407Y-67813589D01*
X183297407Y-67813589D02*
X183368835Y-67849303D01*
X183368835Y-67849303D02*
X183404550Y-67885017D01*
X183404550Y-67885017D02*
X183440264Y-67956446D01*
X183440264Y-67956446D02*
X183440264Y-68170732D01*
X183440264Y-68170732D02*
X183404550Y-68242160D01*
X183404550Y-68242160D02*
X183368835Y-68277875D01*
X183368835Y-68277875D02*
X183297407Y-68313589D01*
X183297407Y-68313589D02*
X183190264Y-68313589D01*
X183690263Y-67813589D02*
X183833121Y-68313589D01*
X183833121Y-68313589D02*
X183975978Y-67956446D01*
X183975978Y-67956446D02*
X184118835Y-68313589D01*
X184118835Y-68313589D02*
X184261692Y-67813589D01*
X185547406Y-68313589D02*
X185297406Y-67956446D01*
X185118835Y-68313589D02*
X185118835Y-67563589D01*
X185118835Y-67563589D02*
X185404549Y-67563589D01*
X185404549Y-67563589D02*
X185475978Y-67599303D01*
X185475978Y-67599303D02*
X185511692Y-67635017D01*
X185511692Y-67635017D02*
X185547406Y-67706446D01*
X185547406Y-67706446D02*
X185547406Y-67813589D01*
X185547406Y-67813589D02*
X185511692Y-67885017D01*
X185511692Y-67885017D02*
X185475978Y-67920732D01*
X185475978Y-67920732D02*
X185404549Y-67956446D01*
X185404549Y-67956446D02*
X185118835Y-67956446D01*
X185833121Y-68099303D02*
X186190264Y-68099303D01*
X185761692Y-68313589D02*
X186011692Y-67563589D01*
X186011692Y-67563589D02*
X186261692Y-68313589D01*
X186511692Y-68313589D02*
X186511692Y-67563589D01*
X186511692Y-67563589D02*
X186761692Y-68099303D01*
X186761692Y-68099303D02*
X187011692Y-67563589D01*
X187011692Y-67563589D02*
X187011692Y-68313589D01*
D11*
X188049434Y-120075969D02*
X187716101Y-119599778D01*
X187478006Y-120075969D02*
X187478006Y-119075969D01*
X187478006Y-119075969D02*
X187858958Y-119075969D01*
X187858958Y-119075969D02*
X187954196Y-119123588D01*
X187954196Y-119123588D02*
X188001815Y-119171207D01*
X188001815Y-119171207D02*
X188049434Y-119266445D01*
X188049434Y-119266445D02*
X188049434Y-119409302D01*
X188049434Y-119409302D02*
X188001815Y-119504540D01*
X188001815Y-119504540D02*
X187954196Y-119552159D01*
X187954196Y-119552159D02*
X187858958Y-119599778D01*
X187858958Y-119599778D02*
X187478006Y-119599778D01*
X188668482Y-119075969D02*
X188858958Y-119075969D01*
X188858958Y-119075969D02*
X188954196Y-119123588D01*
X188954196Y-119123588D02*
X189049434Y-119218826D01*
X189049434Y-119218826D02*
X189097053Y-119409302D01*
X189097053Y-119409302D02*
X189097053Y-119742635D01*
X189097053Y-119742635D02*
X189049434Y-119933111D01*
X189049434Y-119933111D02*
X188954196Y-120028350D01*
X188954196Y-120028350D02*
X188858958Y-120075969D01*
X188858958Y-120075969D02*
X188668482Y-120075969D01*
X188668482Y-120075969D02*
X188573244Y-120028350D01*
X188573244Y-120028350D02*
X188478006Y-119933111D01*
X188478006Y-119933111D02*
X188430387Y-119742635D01*
X188430387Y-119742635D02*
X188430387Y-119409302D01*
X188430387Y-119409302D02*
X188478006Y-119218826D01*
X188478006Y-119218826D02*
X188573244Y-119123588D01*
X188573244Y-119123588D02*
X188668482Y-119075969D01*
X189525625Y-120075969D02*
X189525625Y-119075969D01*
X189525625Y-119075969D02*
X189858958Y-119790254D01*
X189858958Y-119790254D02*
X190192291Y-119075969D01*
X190192291Y-119075969D02*
X190192291Y-120075969D01*
X191382768Y-120028350D02*
X191525625Y-120075969D01*
X191525625Y-120075969D02*
X191763720Y-120075969D01*
X191763720Y-120075969D02*
X191858958Y-120028350D01*
X191858958Y-120028350D02*
X191906577Y-119980730D01*
X191906577Y-119980730D02*
X191954196Y-119885492D01*
X191954196Y-119885492D02*
X191954196Y-119790254D01*
X191954196Y-119790254D02*
X191906577Y-119695016D01*
X191906577Y-119695016D02*
X191858958Y-119647397D01*
X191858958Y-119647397D02*
X191763720Y-119599778D01*
X191763720Y-119599778D02*
X191573244Y-119552159D01*
X191573244Y-119552159D02*
X191478006Y-119504540D01*
X191478006Y-119504540D02*
X191430387Y-119456921D01*
X191430387Y-119456921D02*
X191382768Y-119361683D01*
X191382768Y-119361683D02*
X191382768Y-119266445D01*
X191382768Y-119266445D02*
X191430387Y-119171207D01*
X191430387Y-119171207D02*
X191478006Y-119123588D01*
X191478006Y-119123588D02*
X191573244Y-119075969D01*
X191573244Y-119075969D02*
X191811339Y-119075969D01*
X191811339Y-119075969D02*
X191954196Y-119123588D01*
X192525625Y-120075969D02*
X192430387Y-120028350D01*
X192430387Y-120028350D02*
X192382768Y-119933111D01*
X192382768Y-119933111D02*
X192382768Y-119075969D01*
X193049435Y-120075969D02*
X192954197Y-120028350D01*
X192954197Y-120028350D02*
X192906578Y-119980730D01*
X192906578Y-119980730D02*
X192858959Y-119885492D01*
X192858959Y-119885492D02*
X192858959Y-119599778D01*
X192858959Y-119599778D02*
X192906578Y-119504540D01*
X192906578Y-119504540D02*
X192954197Y-119456921D01*
X192954197Y-119456921D02*
X193049435Y-119409302D01*
X193049435Y-119409302D02*
X193192292Y-119409302D01*
X193192292Y-119409302D02*
X193287530Y-119456921D01*
X193287530Y-119456921D02*
X193335149Y-119504540D01*
X193335149Y-119504540D02*
X193382768Y-119599778D01*
X193382768Y-119599778D02*
X193382768Y-119885492D01*
X193382768Y-119885492D02*
X193335149Y-119980730D01*
X193335149Y-119980730D02*
X193287530Y-120028350D01*
X193287530Y-120028350D02*
X193192292Y-120075969D01*
X193192292Y-120075969D02*
X193049435Y-120075969D01*
X193668483Y-119409302D02*
X194049435Y-119409302D01*
X193811340Y-119075969D02*
X193811340Y-119933111D01*
X193811340Y-119933111D02*
X193858959Y-120028350D01*
X193858959Y-120028350D02*
X193954197Y-120075969D01*
X193954197Y-120075969D02*
X194049435Y-120075969D01*
X107690219Y-101450803D02*
X106690219Y-101450803D01*
X106690219Y-101450803D02*
X106690219Y-101212708D01*
X106690219Y-101212708D02*
X106737838Y-101069851D01*
X106737838Y-101069851D02*
X106833076Y-100974613D01*
X106833076Y-100974613D02*
X106928314Y-100926994D01*
X106928314Y-100926994D02*
X107118790Y-100879375D01*
X107118790Y-100879375D02*
X107261647Y-100879375D01*
X107261647Y-100879375D02*
X107452123Y-100926994D01*
X107452123Y-100926994D02*
X107547361Y-100974613D01*
X107547361Y-100974613D02*
X107642600Y-101069851D01*
X107642600Y-101069851D02*
X107690219Y-101212708D01*
X107690219Y-101212708D02*
X107690219Y-101450803D01*
X107690219Y-100022232D02*
X107166409Y-100022232D01*
X107166409Y-100022232D02*
X107071171Y-100069851D01*
X107071171Y-100069851D02*
X107023552Y-100165089D01*
X107023552Y-100165089D02*
X107023552Y-100355565D01*
X107023552Y-100355565D02*
X107071171Y-100450803D01*
X107642600Y-100022232D02*
X107690219Y-100117470D01*
X107690219Y-100117470D02*
X107690219Y-100355565D01*
X107690219Y-100355565D02*
X107642600Y-100450803D01*
X107642600Y-100450803D02*
X107547361Y-100498422D01*
X107547361Y-100498422D02*
X107452123Y-100498422D01*
X107452123Y-100498422D02*
X107356885Y-100450803D01*
X107356885Y-100450803D02*
X107309266Y-100355565D01*
X107309266Y-100355565D02*
X107309266Y-100117470D01*
X107309266Y-100117470D02*
X107261647Y-100022232D01*
X107023552Y-99688898D02*
X107023552Y-99307946D01*
X106690219Y-99546041D02*
X107547361Y-99546041D01*
X107547361Y-99546041D02*
X107642600Y-99498422D01*
X107642600Y-99498422D02*
X107690219Y-99403184D01*
X107690219Y-99403184D02*
X107690219Y-99307946D01*
X107690219Y-98546041D02*
X107166409Y-98546041D01*
X107166409Y-98546041D02*
X107071171Y-98593660D01*
X107071171Y-98593660D02*
X107023552Y-98688898D01*
X107023552Y-98688898D02*
X107023552Y-98879374D01*
X107023552Y-98879374D02*
X107071171Y-98974612D01*
X107642600Y-98546041D02*
X107690219Y-98641279D01*
X107690219Y-98641279D02*
X107690219Y-98879374D01*
X107690219Y-98879374D02*
X107642600Y-98974612D01*
X107642600Y-98974612D02*
X107547361Y-99022231D01*
X107547361Y-99022231D02*
X107452123Y-99022231D01*
X107452123Y-99022231D02*
X107356885Y-98974612D01*
X107356885Y-98974612D02*
X107309266Y-98879374D01*
X107309266Y-98879374D02*
X107309266Y-98641279D01*
X107309266Y-98641279D02*
X107261647Y-98546041D01*
D10*
X106657932Y-64031419D02*
X107324598Y-64031419D01*
X107324598Y-64031419D02*
X106896027Y-65031419D01*
X108134122Y-64364752D02*
X108134122Y-65031419D01*
X107896027Y-63983800D02*
X107657932Y-64698085D01*
X107657932Y-64698085D02*
X108276979Y-64698085D01*
X108562694Y-65031419D02*
X109086503Y-64364752D01*
X108562694Y-64364752D02*
X109086503Y-65031419D01*
X109943646Y-64031419D02*
X109467456Y-64031419D01*
X109467456Y-64031419D02*
X109419837Y-64507609D01*
X109419837Y-64507609D02*
X109467456Y-64459990D01*
X109467456Y-64459990D02*
X109562694Y-64412371D01*
X109562694Y-64412371D02*
X109800789Y-64412371D01*
X109800789Y-64412371D02*
X109896027Y-64459990D01*
X109896027Y-64459990D02*
X109943646Y-64507609D01*
X109943646Y-64507609D02*
X109991265Y-64602847D01*
X109991265Y-64602847D02*
X109991265Y-64840942D01*
X109991265Y-64840942D02*
X109943646Y-64936180D01*
X109943646Y-64936180D02*
X109896027Y-64983800D01*
X109896027Y-64983800D02*
X109800789Y-65031419D01*
X109800789Y-65031419D02*
X109562694Y-65031419D01*
X109562694Y-65031419D02*
X109467456Y-64983800D01*
X109467456Y-64983800D02*
X109419837Y-64936180D01*
X110848408Y-64364752D02*
X110848408Y-65031419D01*
X110610313Y-63983800D02*
X110372218Y-64698085D01*
X110372218Y-64698085D02*
X110991265Y-64698085D01*
X111896027Y-65031419D02*
X111324599Y-65031419D01*
X111610313Y-65031419D02*
X111610313Y-64031419D01*
X111610313Y-64031419D02*
X111515075Y-64174276D01*
X111515075Y-64174276D02*
X111419837Y-64269514D01*
X111419837Y-64269514D02*
X111324599Y-64317133D01*
D11*
X159847767Y-54762980D02*
X159800148Y-54810600D01*
X159800148Y-54810600D02*
X159657291Y-54858219D01*
X159657291Y-54858219D02*
X159562053Y-54858219D01*
X159562053Y-54858219D02*
X159419196Y-54810600D01*
X159419196Y-54810600D02*
X159323958Y-54715361D01*
X159323958Y-54715361D02*
X159276339Y-54620123D01*
X159276339Y-54620123D02*
X159228720Y-54429647D01*
X159228720Y-54429647D02*
X159228720Y-54286790D01*
X159228720Y-54286790D02*
X159276339Y-54096314D01*
X159276339Y-54096314D02*
X159323958Y-54001076D01*
X159323958Y-54001076D02*
X159419196Y-53905838D01*
X159419196Y-53905838D02*
X159562053Y-53858219D01*
X159562053Y-53858219D02*
X159657291Y-53858219D01*
X159657291Y-53858219D02*
X159800148Y-53905838D01*
X159800148Y-53905838D02*
X159847767Y-53953457D01*
X160419196Y-54858219D02*
X160323958Y-54810600D01*
X160323958Y-54810600D02*
X160276339Y-54762980D01*
X160276339Y-54762980D02*
X160228720Y-54667742D01*
X160228720Y-54667742D02*
X160228720Y-54382028D01*
X160228720Y-54382028D02*
X160276339Y-54286790D01*
X160276339Y-54286790D02*
X160323958Y-54239171D01*
X160323958Y-54239171D02*
X160419196Y-54191552D01*
X160419196Y-54191552D02*
X160562053Y-54191552D01*
X160562053Y-54191552D02*
X160657291Y-54239171D01*
X160657291Y-54239171D02*
X160704910Y-54286790D01*
X160704910Y-54286790D02*
X160752529Y-54382028D01*
X160752529Y-54382028D02*
X160752529Y-54667742D01*
X160752529Y-54667742D02*
X160704910Y-54762980D01*
X160704910Y-54762980D02*
X160657291Y-54810600D01*
X160657291Y-54810600D02*
X160562053Y-54858219D01*
X160562053Y-54858219D02*
X160419196Y-54858219D01*
X161181101Y-54191552D02*
X161181101Y-54858219D01*
X161181101Y-54286790D02*
X161228720Y-54239171D01*
X161228720Y-54239171D02*
X161323958Y-54191552D01*
X161323958Y-54191552D02*
X161466815Y-54191552D01*
X161466815Y-54191552D02*
X161562053Y-54239171D01*
X161562053Y-54239171D02*
X161609672Y-54334409D01*
X161609672Y-54334409D02*
X161609672Y-54858219D01*
X161943006Y-54191552D02*
X162323958Y-54191552D01*
X162085863Y-53858219D02*
X162085863Y-54715361D01*
X162085863Y-54715361D02*
X162133482Y-54810600D01*
X162133482Y-54810600D02*
X162228720Y-54858219D01*
X162228720Y-54858219D02*
X162323958Y-54858219D01*
X162657292Y-54858219D02*
X162657292Y-54191552D01*
X162657292Y-54382028D02*
X162704911Y-54286790D01*
X162704911Y-54286790D02*
X162752530Y-54239171D01*
X162752530Y-54239171D02*
X162847768Y-54191552D01*
X162847768Y-54191552D02*
X162943006Y-54191552D01*
X163419197Y-54858219D02*
X163323959Y-54810600D01*
X163323959Y-54810600D02*
X163276340Y-54762980D01*
X163276340Y-54762980D02*
X163228721Y-54667742D01*
X163228721Y-54667742D02*
X163228721Y-54382028D01*
X163228721Y-54382028D02*
X163276340Y-54286790D01*
X163276340Y-54286790D02*
X163323959Y-54239171D01*
X163323959Y-54239171D02*
X163419197Y-54191552D01*
X163419197Y-54191552D02*
X163562054Y-54191552D01*
X163562054Y-54191552D02*
X163657292Y-54239171D01*
X163657292Y-54239171D02*
X163704911Y-54286790D01*
X163704911Y-54286790D02*
X163752530Y-54382028D01*
X163752530Y-54382028D02*
X163752530Y-54667742D01*
X163752530Y-54667742D02*
X163704911Y-54762980D01*
X163704911Y-54762980D02*
X163657292Y-54810600D01*
X163657292Y-54810600D02*
X163562054Y-54858219D01*
X163562054Y-54858219D02*
X163419197Y-54858219D01*
X164323959Y-54858219D02*
X164228721Y-54810600D01*
X164228721Y-54810600D02*
X164181102Y-54715361D01*
X164181102Y-54715361D02*
X164181102Y-53858219D01*
X164657293Y-54810600D02*
X164752531Y-54858219D01*
X164752531Y-54858219D02*
X164943007Y-54858219D01*
X164943007Y-54858219D02*
X165038245Y-54810600D01*
X165038245Y-54810600D02*
X165085864Y-54715361D01*
X165085864Y-54715361D02*
X165085864Y-54667742D01*
X165085864Y-54667742D02*
X165038245Y-54572504D01*
X165038245Y-54572504D02*
X164943007Y-54524885D01*
X164943007Y-54524885D02*
X164800150Y-54524885D01*
X164800150Y-54524885D02*
X164704912Y-54477266D01*
X164704912Y-54477266D02*
X164657293Y-54382028D01*
X164657293Y-54382028D02*
X164657293Y-54334409D01*
X164657293Y-54334409D02*
X164704912Y-54239171D01*
X164704912Y-54239171D02*
X164800150Y-54191552D01*
X164800150Y-54191552D02*
X164943007Y-54191552D01*
X164943007Y-54191552D02*
X165038245Y-54239171D01*
D12*
X178654549Y-70738589D02*
X178833121Y-71488589D01*
X178833121Y-71488589D02*
X178975978Y-70952875D01*
X178975978Y-70952875D02*
X179118835Y-71488589D01*
X179118835Y-71488589D02*
X179297407Y-70738589D01*
X179583121Y-71488589D02*
X179583121Y-70988589D01*
X179583121Y-71131446D02*
X179618835Y-71060017D01*
X179618835Y-71060017D02*
X179654550Y-71024303D01*
X179654550Y-71024303D02*
X179725978Y-70988589D01*
X179725978Y-70988589D02*
X179797407Y-70988589D01*
X180047407Y-71488589D02*
X180047407Y-70988589D01*
X180047407Y-70738589D02*
X180011693Y-70774303D01*
X180011693Y-70774303D02*
X180047407Y-70810017D01*
X180047407Y-70810017D02*
X180083121Y-70774303D01*
X180083121Y-70774303D02*
X180047407Y-70738589D01*
X180047407Y-70738589D02*
X180047407Y-70810017D01*
X180297407Y-70988589D02*
X180583121Y-70988589D01*
X180404550Y-70738589D02*
X180404550Y-71381446D01*
X180404550Y-71381446D02*
X180440264Y-71452875D01*
X180440264Y-71452875D02*
X180511693Y-71488589D01*
X180511693Y-71488589D02*
X180583121Y-71488589D01*
X181118835Y-71452875D02*
X181047407Y-71488589D01*
X181047407Y-71488589D02*
X180904550Y-71488589D01*
X180904550Y-71488589D02*
X180833121Y-71452875D01*
X180833121Y-71452875D02*
X180797407Y-71381446D01*
X180797407Y-71381446D02*
X180797407Y-71095732D01*
X180797407Y-71095732D02*
X180833121Y-71024303D01*
X180833121Y-71024303D02*
X180904550Y-70988589D01*
X180904550Y-70988589D02*
X181047407Y-70988589D01*
X181047407Y-70988589D02*
X181118835Y-71024303D01*
X181118835Y-71024303D02*
X181154550Y-71095732D01*
X181154550Y-71095732D02*
X181154550Y-71167160D01*
X181154550Y-71167160D02*
X180797407Y-71238589D01*
X182047407Y-71488589D02*
X182047407Y-70738589D01*
X182047407Y-71095732D02*
X182475978Y-71095732D01*
X182475978Y-71488589D02*
X182475978Y-70738589D01*
X182833121Y-71488589D02*
X182833121Y-70988589D01*
X182833121Y-70738589D02*
X182797407Y-70774303D01*
X182797407Y-70774303D02*
X182833121Y-70810017D01*
X182833121Y-70810017D02*
X182868835Y-70774303D01*
X182868835Y-70774303D02*
X182833121Y-70738589D01*
X182833121Y-70738589D02*
X182833121Y-70810017D01*
X183511693Y-70988589D02*
X183511693Y-71595732D01*
X183511693Y-71595732D02*
X183475978Y-71667160D01*
X183475978Y-71667160D02*
X183440264Y-71702875D01*
X183440264Y-71702875D02*
X183368835Y-71738589D01*
X183368835Y-71738589D02*
X183261693Y-71738589D01*
X183261693Y-71738589D02*
X183190264Y-71702875D01*
X183511693Y-71452875D02*
X183440264Y-71488589D01*
X183440264Y-71488589D02*
X183297407Y-71488589D01*
X183297407Y-71488589D02*
X183225978Y-71452875D01*
X183225978Y-71452875D02*
X183190264Y-71417160D01*
X183190264Y-71417160D02*
X183154550Y-71345732D01*
X183154550Y-71345732D02*
X183154550Y-71131446D01*
X183154550Y-71131446D02*
X183190264Y-71060017D01*
X183190264Y-71060017D02*
X183225978Y-71024303D01*
X183225978Y-71024303D02*
X183297407Y-70988589D01*
X183297407Y-70988589D02*
X183440264Y-70988589D01*
X183440264Y-70988589D02*
X183511693Y-71024303D01*
X183868835Y-71488589D02*
X183868835Y-70738589D01*
X184190264Y-71488589D02*
X184190264Y-71095732D01*
X184190264Y-71095732D02*
X184154549Y-71024303D01*
X184154549Y-71024303D02*
X184083121Y-70988589D01*
X184083121Y-70988589D02*
X183975978Y-70988589D01*
X183975978Y-70988589D02*
X183904549Y-71024303D01*
X183904549Y-71024303D02*
X183868835Y-71060017D01*
X185547406Y-71488589D02*
X185297406Y-71131446D01*
X185118835Y-71488589D02*
X185118835Y-70738589D01*
X185118835Y-70738589D02*
X185404549Y-70738589D01*
X185404549Y-70738589D02*
X185475978Y-70774303D01*
X185475978Y-70774303D02*
X185511692Y-70810017D01*
X185511692Y-70810017D02*
X185547406Y-70881446D01*
X185547406Y-70881446D02*
X185547406Y-70988589D01*
X185547406Y-70988589D02*
X185511692Y-71060017D01*
X185511692Y-71060017D02*
X185475978Y-71095732D01*
X185475978Y-71095732D02*
X185404549Y-71131446D01*
X185404549Y-71131446D02*
X185118835Y-71131446D01*
X185833121Y-71274303D02*
X186190264Y-71274303D01*
X185761692Y-71488589D02*
X186011692Y-70738589D01*
X186011692Y-70738589D02*
X186261692Y-71488589D01*
X186511692Y-71488589D02*
X186511692Y-70738589D01*
X186511692Y-70738589D02*
X186761692Y-71274303D01*
X186761692Y-71274303D02*
X187011692Y-70738589D01*
X187011692Y-70738589D02*
X187011692Y-71488589D01*
D11*
X106973292Y-121173028D02*
X106973292Y-122244457D01*
X106973292Y-122244457D02*
X106901863Y-122458742D01*
X106901863Y-122458742D02*
X106759006Y-122601600D01*
X106759006Y-122601600D02*
X106544720Y-122673028D01*
X106544720Y-122673028D02*
X106401863Y-122673028D01*
X107473292Y-121173028D02*
X107973292Y-122673028D01*
X107973292Y-122673028D02*
X108473292Y-121173028D01*
X109830434Y-122673028D02*
X109330434Y-121958742D01*
X108973291Y-122673028D02*
X108973291Y-121173028D01*
X108973291Y-121173028D02*
X109544720Y-121173028D01*
X109544720Y-121173028D02*
X109687577Y-121244457D01*
X109687577Y-121244457D02*
X109759006Y-121315885D01*
X109759006Y-121315885D02*
X109830434Y-121458742D01*
X109830434Y-121458742D02*
X109830434Y-121673028D01*
X109830434Y-121673028D02*
X109759006Y-121815885D01*
X109759006Y-121815885D02*
X109687577Y-121887314D01*
X109687577Y-121887314D02*
X109544720Y-121958742D01*
X109544720Y-121958742D02*
X108973291Y-121958742D01*
X111259006Y-122673028D02*
X110401863Y-122673028D01*
X110830434Y-122673028D02*
X110830434Y-121173028D01*
X110830434Y-121173028D02*
X110687577Y-121387314D01*
X110687577Y-121387314D02*
X110544720Y-121530171D01*
X110544720Y-121530171D02*
X110401863Y-121601600D01*
X112687577Y-122673028D02*
X111830434Y-122673028D01*
X112259005Y-122673028D02*
X112259005Y-121173028D01*
X112259005Y-121173028D02*
X112116148Y-121387314D01*
X112116148Y-121387314D02*
X111973291Y-121530171D01*
X111973291Y-121530171D02*
X111830434Y-121601600D01*
X114401862Y-121101600D02*
X113116148Y-123030171D01*
X115187577Y-121173028D02*
X115330434Y-121173028D01*
X115330434Y-121173028D02*
X115473291Y-121244457D01*
X115473291Y-121244457D02*
X115544720Y-121315885D01*
X115544720Y-121315885D02*
X115616148Y-121458742D01*
X115616148Y-121458742D02*
X115687577Y-121744457D01*
X115687577Y-121744457D02*
X115687577Y-122101600D01*
X115687577Y-122101600D02*
X115616148Y-122387314D01*
X115616148Y-122387314D02*
X115544720Y-122530171D01*
X115544720Y-122530171D02*
X115473291Y-122601600D01*
X115473291Y-122601600D02*
X115330434Y-122673028D01*
X115330434Y-122673028D02*
X115187577Y-122673028D01*
X115187577Y-122673028D02*
X115044720Y-122601600D01*
X115044720Y-122601600D02*
X114973291Y-122530171D01*
X114973291Y-122530171D02*
X114901862Y-122387314D01*
X114901862Y-122387314D02*
X114830434Y-122101600D01*
X114830434Y-122101600D02*
X114830434Y-121744457D01*
X114830434Y-121744457D02*
X114901862Y-121458742D01*
X114901862Y-121458742D02*
X114973291Y-121315885D01*
X114973291Y-121315885D02*
X115044720Y-121244457D01*
X115044720Y-121244457D02*
X115187577Y-121173028D01*
X117116148Y-122673028D02*
X116259005Y-122673028D01*
X116687576Y-122673028D02*
X116687576Y-121173028D01*
X116687576Y-121173028D02*
X116544719Y-121387314D01*
X116544719Y-121387314D02*
X116401862Y-121530171D01*
X116401862Y-121530171D02*
X116259005Y-121601600D01*
X118901861Y-122101600D02*
X120044719Y-122101600D01*
X121901861Y-122673028D02*
X121901861Y-121173028D01*
X121901861Y-121173028D02*
X122401861Y-122244457D01*
X122401861Y-122244457D02*
X122901861Y-121173028D01*
X122901861Y-121173028D02*
X122901861Y-122673028D01*
X124187576Y-122601600D02*
X124044719Y-122673028D01*
X124044719Y-122673028D02*
X123759005Y-122673028D01*
X123759005Y-122673028D02*
X123616147Y-122601600D01*
X123616147Y-122601600D02*
X123544719Y-122458742D01*
X123544719Y-122458742D02*
X123544719Y-121887314D01*
X123544719Y-121887314D02*
X123616147Y-121744457D01*
X123616147Y-121744457D02*
X123759005Y-121673028D01*
X123759005Y-121673028D02*
X124044719Y-121673028D01*
X124044719Y-121673028D02*
X124187576Y-121744457D01*
X124187576Y-121744457D02*
X124259005Y-121887314D01*
X124259005Y-121887314D02*
X124259005Y-122030171D01*
X124259005Y-122030171D02*
X123544719Y-122173028D01*
X124901861Y-122673028D02*
X124901861Y-121673028D01*
X124901861Y-121815885D02*
X124973290Y-121744457D01*
X124973290Y-121744457D02*
X125116147Y-121673028D01*
X125116147Y-121673028D02*
X125330433Y-121673028D01*
X125330433Y-121673028D02*
X125473290Y-121744457D01*
X125473290Y-121744457D02*
X125544719Y-121887314D01*
X125544719Y-121887314D02*
X125544719Y-122673028D01*
X125544719Y-121887314D02*
X125616147Y-121744457D01*
X125616147Y-121744457D02*
X125759004Y-121673028D01*
X125759004Y-121673028D02*
X125973290Y-121673028D01*
X125973290Y-121673028D02*
X126116147Y-121744457D01*
X126116147Y-121744457D02*
X126187576Y-121887314D01*
X126187576Y-121887314D02*
X126187576Y-122673028D01*
X127116147Y-122673028D02*
X126973290Y-122601600D01*
X126973290Y-122601600D02*
X126901861Y-122530171D01*
X126901861Y-122530171D02*
X126830433Y-122387314D01*
X126830433Y-122387314D02*
X126830433Y-121958742D01*
X126830433Y-121958742D02*
X126901861Y-121815885D01*
X126901861Y-121815885D02*
X126973290Y-121744457D01*
X126973290Y-121744457D02*
X127116147Y-121673028D01*
X127116147Y-121673028D02*
X127330433Y-121673028D01*
X127330433Y-121673028D02*
X127473290Y-121744457D01*
X127473290Y-121744457D02*
X127544719Y-121815885D01*
X127544719Y-121815885D02*
X127616147Y-121958742D01*
X127616147Y-121958742D02*
X127616147Y-122387314D01*
X127616147Y-122387314D02*
X127544719Y-122530171D01*
X127544719Y-122530171D02*
X127473290Y-122601600D01*
X127473290Y-122601600D02*
X127330433Y-122673028D01*
X127330433Y-122673028D02*
X127116147Y-122673028D01*
X128259004Y-122673028D02*
X128259004Y-121673028D01*
X128259004Y-121958742D02*
X128330433Y-121815885D01*
X128330433Y-121815885D02*
X128401862Y-121744457D01*
X128401862Y-121744457D02*
X128544719Y-121673028D01*
X128544719Y-121673028D02*
X128687576Y-121673028D01*
X129044718Y-121673028D02*
X129401861Y-122673028D01*
X129759004Y-121673028D02*
X129401861Y-122673028D01*
X129401861Y-122673028D02*
X129259004Y-123030171D01*
X129259004Y-123030171D02*
X129187575Y-123101600D01*
X129187575Y-123101600D02*
X129044718Y-123173028D01*
X131973289Y-121887314D02*
X132187575Y-121958742D01*
X132187575Y-121958742D02*
X132259004Y-122030171D01*
X132259004Y-122030171D02*
X132330432Y-122173028D01*
X132330432Y-122173028D02*
X132330432Y-122387314D01*
X132330432Y-122387314D02*
X132259004Y-122530171D01*
X132259004Y-122530171D02*
X132187575Y-122601600D01*
X132187575Y-122601600D02*
X132044718Y-122673028D01*
X132044718Y-122673028D02*
X131473289Y-122673028D01*
X131473289Y-122673028D02*
X131473289Y-121173028D01*
X131473289Y-121173028D02*
X131973289Y-121173028D01*
X131973289Y-121173028D02*
X132116147Y-121244457D01*
X132116147Y-121244457D02*
X132187575Y-121315885D01*
X132187575Y-121315885D02*
X132259004Y-121458742D01*
X132259004Y-121458742D02*
X132259004Y-121601600D01*
X132259004Y-121601600D02*
X132187575Y-121744457D01*
X132187575Y-121744457D02*
X132116147Y-121815885D01*
X132116147Y-121815885D02*
X131973289Y-121887314D01*
X131973289Y-121887314D02*
X131473289Y-121887314D01*
X133187575Y-122673028D02*
X133044718Y-122601600D01*
X133044718Y-122601600D02*
X132973289Y-122530171D01*
X132973289Y-122530171D02*
X132901861Y-122387314D01*
X132901861Y-122387314D02*
X132901861Y-121958742D01*
X132901861Y-121958742D02*
X132973289Y-121815885D01*
X132973289Y-121815885D02*
X133044718Y-121744457D01*
X133044718Y-121744457D02*
X133187575Y-121673028D01*
X133187575Y-121673028D02*
X133401861Y-121673028D01*
X133401861Y-121673028D02*
X133544718Y-121744457D01*
X133544718Y-121744457D02*
X133616147Y-121815885D01*
X133616147Y-121815885D02*
X133687575Y-121958742D01*
X133687575Y-121958742D02*
X133687575Y-122387314D01*
X133687575Y-122387314D02*
X133616147Y-122530171D01*
X133616147Y-122530171D02*
X133544718Y-122601600D01*
X133544718Y-122601600D02*
X133401861Y-122673028D01*
X133401861Y-122673028D02*
X133187575Y-122673028D01*
X134973290Y-122673028D02*
X134973290Y-121887314D01*
X134973290Y-121887314D02*
X134901861Y-121744457D01*
X134901861Y-121744457D02*
X134759004Y-121673028D01*
X134759004Y-121673028D02*
X134473290Y-121673028D01*
X134473290Y-121673028D02*
X134330432Y-121744457D01*
X134973290Y-122601600D02*
X134830432Y-122673028D01*
X134830432Y-122673028D02*
X134473290Y-122673028D01*
X134473290Y-122673028D02*
X134330432Y-122601600D01*
X134330432Y-122601600D02*
X134259004Y-122458742D01*
X134259004Y-122458742D02*
X134259004Y-122315885D01*
X134259004Y-122315885D02*
X134330432Y-122173028D01*
X134330432Y-122173028D02*
X134473290Y-122101600D01*
X134473290Y-122101600D02*
X134830432Y-122101600D01*
X134830432Y-122101600D02*
X134973290Y-122030171D01*
X135687575Y-122673028D02*
X135687575Y-121673028D01*
X135687575Y-121958742D02*
X135759004Y-121815885D01*
X135759004Y-121815885D02*
X135830433Y-121744457D01*
X135830433Y-121744457D02*
X135973290Y-121673028D01*
X135973290Y-121673028D02*
X136116147Y-121673028D01*
X137259004Y-122673028D02*
X137259004Y-121173028D01*
X137259004Y-122601600D02*
X137116146Y-122673028D01*
X137116146Y-122673028D02*
X136830432Y-122673028D01*
X136830432Y-122673028D02*
X136687575Y-122601600D01*
X136687575Y-122601600D02*
X136616146Y-122530171D01*
X136616146Y-122530171D02*
X136544718Y-122387314D01*
X136544718Y-122387314D02*
X136544718Y-121958742D01*
X136544718Y-121958742D02*
X136616146Y-121815885D01*
X136616146Y-121815885D02*
X136687575Y-121744457D01*
X136687575Y-121744457D02*
X136830432Y-121673028D01*
X136830432Y-121673028D02*
X137116146Y-121673028D01*
X137116146Y-121673028D02*
X137259004Y-121744457D01*
D10*
X172701919Y-68748377D02*
X172701919Y-68081711D01*
X172701919Y-68081711D02*
X173701919Y-68510282D01*
X173035252Y-67272187D02*
X173701919Y-67272187D01*
X172654300Y-67510282D02*
X173368585Y-67748377D01*
X173368585Y-67748377D02*
X173368585Y-67129330D01*
X173701919Y-66843615D02*
X173035252Y-66319806D01*
X173035252Y-66843615D02*
X173701919Y-66319806D01*
X172701919Y-66034091D02*
X172701919Y-65415044D01*
X172701919Y-65415044D02*
X173082871Y-65748377D01*
X173082871Y-65748377D02*
X173082871Y-65605520D01*
X173082871Y-65605520D02*
X173130490Y-65510282D01*
X173130490Y-65510282D02*
X173178109Y-65462663D01*
X173178109Y-65462663D02*
X173273347Y-65415044D01*
X173273347Y-65415044D02*
X173511442Y-65415044D01*
X173511442Y-65415044D02*
X173606680Y-65462663D01*
X173606680Y-65462663D02*
X173654300Y-65510282D01*
X173654300Y-65510282D02*
X173701919Y-65605520D01*
X173701919Y-65605520D02*
X173701919Y-65891234D01*
X173701919Y-65891234D02*
X173654300Y-65986472D01*
X173654300Y-65986472D02*
X173606680Y-66034091D01*
X172797157Y-65034091D02*
X172749538Y-64986472D01*
X172749538Y-64986472D02*
X172701919Y-64891234D01*
X172701919Y-64891234D02*
X172701919Y-64653139D01*
X172701919Y-64653139D02*
X172749538Y-64557901D01*
X172749538Y-64557901D02*
X172797157Y-64510282D01*
X172797157Y-64510282D02*
X172892395Y-64462663D01*
X172892395Y-64462663D02*
X172987633Y-64462663D01*
X172987633Y-64462663D02*
X173130490Y-64510282D01*
X173130490Y-64510282D02*
X173701919Y-65081710D01*
X173701919Y-65081710D02*
X173701919Y-64462663D01*
D11*
X191256101Y-54858219D02*
X191256101Y-53858219D01*
X191256101Y-53858219D02*
X191637053Y-53858219D01*
X191637053Y-53858219D02*
X191732291Y-53905838D01*
X191732291Y-53905838D02*
X191779910Y-53953457D01*
X191779910Y-53953457D02*
X191827529Y-54048695D01*
X191827529Y-54048695D02*
X191827529Y-54191552D01*
X191827529Y-54191552D02*
X191779910Y-54286790D01*
X191779910Y-54286790D02*
X191732291Y-54334409D01*
X191732291Y-54334409D02*
X191637053Y-54382028D01*
X191637053Y-54382028D02*
X191256101Y-54382028D01*
X192398958Y-54858219D02*
X192303720Y-54810600D01*
X192303720Y-54810600D02*
X192256101Y-54762980D01*
X192256101Y-54762980D02*
X192208482Y-54667742D01*
X192208482Y-54667742D02*
X192208482Y-54382028D01*
X192208482Y-54382028D02*
X192256101Y-54286790D01*
X192256101Y-54286790D02*
X192303720Y-54239171D01*
X192303720Y-54239171D02*
X192398958Y-54191552D01*
X192398958Y-54191552D02*
X192541815Y-54191552D01*
X192541815Y-54191552D02*
X192637053Y-54239171D01*
X192637053Y-54239171D02*
X192684672Y-54286790D01*
X192684672Y-54286790D02*
X192732291Y-54382028D01*
X192732291Y-54382028D02*
X192732291Y-54667742D01*
X192732291Y-54667742D02*
X192684672Y-54762980D01*
X192684672Y-54762980D02*
X192637053Y-54810600D01*
X192637053Y-54810600D02*
X192541815Y-54858219D01*
X192541815Y-54858219D02*
X192398958Y-54858219D01*
X193065625Y-54191552D02*
X193256101Y-54858219D01*
X193256101Y-54858219D02*
X193446577Y-54382028D01*
X193446577Y-54382028D02*
X193637053Y-54858219D01*
X193637053Y-54858219D02*
X193827529Y-54191552D01*
X194589434Y-54810600D02*
X194494196Y-54858219D01*
X194494196Y-54858219D02*
X194303720Y-54858219D01*
X194303720Y-54858219D02*
X194208482Y-54810600D01*
X194208482Y-54810600D02*
X194160863Y-54715361D01*
X194160863Y-54715361D02*
X194160863Y-54334409D01*
X194160863Y-54334409D02*
X194208482Y-54239171D01*
X194208482Y-54239171D02*
X194303720Y-54191552D01*
X194303720Y-54191552D02*
X194494196Y-54191552D01*
X194494196Y-54191552D02*
X194589434Y-54239171D01*
X194589434Y-54239171D02*
X194637053Y-54334409D01*
X194637053Y-54334409D02*
X194637053Y-54429647D01*
X194637053Y-54429647D02*
X194160863Y-54524885D01*
X195065625Y-54858219D02*
X195065625Y-54191552D01*
X195065625Y-54382028D02*
X195113244Y-54286790D01*
X195113244Y-54286790D02*
X195160863Y-54239171D01*
X195160863Y-54239171D02*
X195256101Y-54191552D01*
X195256101Y-54191552D02*
X195351339Y-54191552D01*
D10*
X123167932Y-64031419D02*
X123834598Y-64031419D01*
X123834598Y-64031419D02*
X123406027Y-65031419D01*
X124644122Y-64364752D02*
X124644122Y-65031419D01*
X124406027Y-63983800D02*
X124167932Y-64698085D01*
X124167932Y-64698085D02*
X124786979Y-64698085D01*
X125072694Y-65031419D02*
X125596503Y-64364752D01*
X125072694Y-64364752D02*
X125596503Y-65031419D01*
X126453646Y-64031419D02*
X125977456Y-64031419D01*
X125977456Y-64031419D02*
X125929837Y-64507609D01*
X125929837Y-64507609D02*
X125977456Y-64459990D01*
X125977456Y-64459990D02*
X126072694Y-64412371D01*
X126072694Y-64412371D02*
X126310789Y-64412371D01*
X126310789Y-64412371D02*
X126406027Y-64459990D01*
X126406027Y-64459990D02*
X126453646Y-64507609D01*
X126453646Y-64507609D02*
X126501265Y-64602847D01*
X126501265Y-64602847D02*
X126501265Y-64840942D01*
X126501265Y-64840942D02*
X126453646Y-64936180D01*
X126453646Y-64936180D02*
X126406027Y-64983800D01*
X126406027Y-64983800D02*
X126310789Y-65031419D01*
X126310789Y-65031419D02*
X126072694Y-65031419D01*
X126072694Y-65031419D02*
X125977456Y-64983800D01*
X125977456Y-64983800D02*
X125929837Y-64936180D01*
X127358408Y-64364752D02*
X127358408Y-65031419D01*
X127120313Y-63983800D02*
X126882218Y-64698085D01*
X126882218Y-64698085D02*
X127501265Y-64698085D01*
X128406027Y-65031419D02*
X127834599Y-65031419D01*
X128120313Y-65031419D02*
X128120313Y-64031419D01*
X128120313Y-64031419D02*
X128025075Y-64174276D01*
X128025075Y-64174276D02*
X127929837Y-64269514D01*
X127929837Y-64269514D02*
X127834599Y-64317133D01*
D12*
X179154550Y-65138589D02*
X178904550Y-64781446D01*
X178725979Y-65138589D02*
X178725979Y-64388589D01*
X178725979Y-64388589D02*
X179011693Y-64388589D01*
X179011693Y-64388589D02*
X179083122Y-64424303D01*
X179083122Y-64424303D02*
X179118836Y-64460017D01*
X179118836Y-64460017D02*
X179154550Y-64531446D01*
X179154550Y-64531446D02*
X179154550Y-64638589D01*
X179154550Y-64638589D02*
X179118836Y-64710017D01*
X179118836Y-64710017D02*
X179083122Y-64745732D01*
X179083122Y-64745732D02*
X179011693Y-64781446D01*
X179011693Y-64781446D02*
X178725979Y-64781446D01*
X179761693Y-65102875D02*
X179690265Y-65138589D01*
X179690265Y-65138589D02*
X179547408Y-65138589D01*
X179547408Y-65138589D02*
X179475979Y-65102875D01*
X179475979Y-65102875D02*
X179440265Y-65031446D01*
X179440265Y-65031446D02*
X179440265Y-64745732D01*
X179440265Y-64745732D02*
X179475979Y-64674303D01*
X179475979Y-64674303D02*
X179547408Y-64638589D01*
X179547408Y-64638589D02*
X179690265Y-64638589D01*
X179690265Y-64638589D02*
X179761693Y-64674303D01*
X179761693Y-64674303D02*
X179797408Y-64745732D01*
X179797408Y-64745732D02*
X179797408Y-64817160D01*
X179797408Y-64817160D02*
X179440265Y-64888589D01*
X180440265Y-65138589D02*
X180440265Y-64745732D01*
X180440265Y-64745732D02*
X180404550Y-64674303D01*
X180404550Y-64674303D02*
X180333122Y-64638589D01*
X180333122Y-64638589D02*
X180190265Y-64638589D01*
X180190265Y-64638589D02*
X180118836Y-64674303D01*
X180440265Y-65102875D02*
X180368836Y-65138589D01*
X180368836Y-65138589D02*
X180190265Y-65138589D01*
X180190265Y-65138589D02*
X180118836Y-65102875D01*
X180118836Y-65102875D02*
X180083122Y-65031446D01*
X180083122Y-65031446D02*
X180083122Y-64960017D01*
X180083122Y-64960017D02*
X180118836Y-64888589D01*
X180118836Y-64888589D02*
X180190265Y-64852875D01*
X180190265Y-64852875D02*
X180368836Y-64852875D01*
X180368836Y-64852875D02*
X180440265Y-64817160D01*
X181118836Y-65138589D02*
X181118836Y-64388589D01*
X181118836Y-65102875D02*
X181047407Y-65138589D01*
X181047407Y-65138589D02*
X180904550Y-65138589D01*
X180904550Y-65138589D02*
X180833121Y-65102875D01*
X180833121Y-65102875D02*
X180797407Y-65067160D01*
X180797407Y-65067160D02*
X180761693Y-64995732D01*
X180761693Y-64995732D02*
X180761693Y-64781446D01*
X180761693Y-64781446D02*
X180797407Y-64710017D01*
X180797407Y-64710017D02*
X180833121Y-64674303D01*
X180833121Y-64674303D02*
X180904550Y-64638589D01*
X180904550Y-64638589D02*
X181047407Y-64638589D01*
X181047407Y-64638589D02*
X181118836Y-64674303D01*
X182047407Y-65138589D02*
X182047407Y-64388589D01*
X182047407Y-64745732D02*
X182475978Y-64745732D01*
X182475978Y-65138589D02*
X182475978Y-64388589D01*
X182833121Y-65138589D02*
X182833121Y-64638589D01*
X182833121Y-64388589D02*
X182797407Y-64424303D01*
X182797407Y-64424303D02*
X182833121Y-64460017D01*
X182833121Y-64460017D02*
X182868835Y-64424303D01*
X182868835Y-64424303D02*
X182833121Y-64388589D01*
X182833121Y-64388589D02*
X182833121Y-64460017D01*
X183511693Y-64638589D02*
X183511693Y-65245732D01*
X183511693Y-65245732D02*
X183475978Y-65317160D01*
X183475978Y-65317160D02*
X183440264Y-65352875D01*
X183440264Y-65352875D02*
X183368835Y-65388589D01*
X183368835Y-65388589D02*
X183261693Y-65388589D01*
X183261693Y-65388589D02*
X183190264Y-65352875D01*
X183511693Y-65102875D02*
X183440264Y-65138589D01*
X183440264Y-65138589D02*
X183297407Y-65138589D01*
X183297407Y-65138589D02*
X183225978Y-65102875D01*
X183225978Y-65102875D02*
X183190264Y-65067160D01*
X183190264Y-65067160D02*
X183154550Y-64995732D01*
X183154550Y-64995732D02*
X183154550Y-64781446D01*
X183154550Y-64781446D02*
X183190264Y-64710017D01*
X183190264Y-64710017D02*
X183225978Y-64674303D01*
X183225978Y-64674303D02*
X183297407Y-64638589D01*
X183297407Y-64638589D02*
X183440264Y-64638589D01*
X183440264Y-64638589D02*
X183511693Y-64674303D01*
X183868835Y-65138589D02*
X183868835Y-64388589D01*
X184190264Y-65138589D02*
X184190264Y-64745732D01*
X184190264Y-64745732D02*
X184154549Y-64674303D01*
X184154549Y-64674303D02*
X184083121Y-64638589D01*
X184083121Y-64638589D02*
X183975978Y-64638589D01*
X183975978Y-64638589D02*
X183904549Y-64674303D01*
X183904549Y-64674303D02*
X183868835Y-64710017D01*
X185547406Y-65138589D02*
X185297406Y-64781446D01*
X185118835Y-65138589D02*
X185118835Y-64388589D01*
X185118835Y-64388589D02*
X185404549Y-64388589D01*
X185404549Y-64388589D02*
X185475978Y-64424303D01*
X185475978Y-64424303D02*
X185511692Y-64460017D01*
X185511692Y-64460017D02*
X185547406Y-64531446D01*
X185547406Y-64531446D02*
X185547406Y-64638589D01*
X185547406Y-64638589D02*
X185511692Y-64710017D01*
X185511692Y-64710017D02*
X185475978Y-64745732D01*
X185475978Y-64745732D02*
X185404549Y-64781446D01*
X185404549Y-64781446D02*
X185118835Y-64781446D01*
X185833121Y-64924303D02*
X186190264Y-64924303D01*
X185761692Y-65138589D02*
X186011692Y-64388589D01*
X186011692Y-64388589D02*
X186261692Y-65138589D01*
X186511692Y-65138589D02*
X186511692Y-64388589D01*
X186511692Y-64388589D02*
X186761692Y-64924303D01*
X186761692Y-64924303D02*
X187011692Y-64388589D01*
X187011692Y-64388589D02*
X187011692Y-65138589D01*
X188693093Y-77802875D02*
X188800236Y-77838589D01*
X188800236Y-77838589D02*
X188978807Y-77838589D01*
X188978807Y-77838589D02*
X189050236Y-77802875D01*
X189050236Y-77802875D02*
X189085950Y-77767160D01*
X189085950Y-77767160D02*
X189121664Y-77695732D01*
X189121664Y-77695732D02*
X189121664Y-77624303D01*
X189121664Y-77624303D02*
X189085950Y-77552875D01*
X189085950Y-77552875D02*
X189050236Y-77517160D01*
X189050236Y-77517160D02*
X188978807Y-77481446D01*
X188978807Y-77481446D02*
X188835950Y-77445732D01*
X188835950Y-77445732D02*
X188764521Y-77410017D01*
X188764521Y-77410017D02*
X188728807Y-77374303D01*
X188728807Y-77374303D02*
X188693093Y-77302875D01*
X188693093Y-77302875D02*
X188693093Y-77231446D01*
X188693093Y-77231446D02*
X188728807Y-77160017D01*
X188728807Y-77160017D02*
X188764521Y-77124303D01*
X188764521Y-77124303D02*
X188835950Y-77088589D01*
X188835950Y-77088589D02*
X189014521Y-77088589D01*
X189014521Y-77088589D02*
X189121664Y-77124303D01*
X189550236Y-77838589D02*
X189478807Y-77802875D01*
X189478807Y-77802875D02*
X189443093Y-77731446D01*
X189443093Y-77731446D02*
X189443093Y-77088589D01*
X189943093Y-77838589D02*
X189871664Y-77802875D01*
X189871664Y-77802875D02*
X189835950Y-77767160D01*
X189835950Y-77767160D02*
X189800236Y-77695732D01*
X189800236Y-77695732D02*
X189800236Y-77481446D01*
X189800236Y-77481446D02*
X189835950Y-77410017D01*
X189835950Y-77410017D02*
X189871664Y-77374303D01*
X189871664Y-77374303D02*
X189943093Y-77338589D01*
X189943093Y-77338589D02*
X190050236Y-77338589D01*
X190050236Y-77338589D02*
X190121664Y-77374303D01*
X190121664Y-77374303D02*
X190157379Y-77410017D01*
X190157379Y-77410017D02*
X190193093Y-77481446D01*
X190193093Y-77481446D02*
X190193093Y-77695732D01*
X190193093Y-77695732D02*
X190157379Y-77767160D01*
X190157379Y-77767160D02*
X190121664Y-77802875D01*
X190121664Y-77802875D02*
X190050236Y-77838589D01*
X190050236Y-77838589D02*
X189943093Y-77838589D01*
X190443092Y-77338589D02*
X190585950Y-77838589D01*
X190585950Y-77838589D02*
X190728807Y-77481446D01*
X190728807Y-77481446D02*
X190871664Y-77838589D01*
X190871664Y-77838589D02*
X191014521Y-77338589D01*
X192300235Y-77838589D02*
X192050235Y-77481446D01*
X191871664Y-77838589D02*
X191871664Y-77088589D01*
X191871664Y-77088589D02*
X192157378Y-77088589D01*
X192157378Y-77088589D02*
X192228807Y-77124303D01*
X192228807Y-77124303D02*
X192264521Y-77160017D01*
X192264521Y-77160017D02*
X192300235Y-77231446D01*
X192300235Y-77231446D02*
X192300235Y-77338589D01*
X192300235Y-77338589D02*
X192264521Y-77410017D01*
X192264521Y-77410017D02*
X192228807Y-77445732D01*
X192228807Y-77445732D02*
X192157378Y-77481446D01*
X192157378Y-77481446D02*
X191871664Y-77481446D01*
X192764521Y-77088589D02*
X192907378Y-77088589D01*
X192907378Y-77088589D02*
X192978807Y-77124303D01*
X192978807Y-77124303D02*
X193050235Y-77195732D01*
X193050235Y-77195732D02*
X193085950Y-77338589D01*
X193085950Y-77338589D02*
X193085950Y-77588589D01*
X193085950Y-77588589D02*
X193050235Y-77731446D01*
X193050235Y-77731446D02*
X192978807Y-77802875D01*
X192978807Y-77802875D02*
X192907378Y-77838589D01*
X192907378Y-77838589D02*
X192764521Y-77838589D01*
X192764521Y-77838589D02*
X192693093Y-77802875D01*
X192693093Y-77802875D02*
X192621664Y-77731446D01*
X192621664Y-77731446D02*
X192585950Y-77588589D01*
X192585950Y-77588589D02*
X192585950Y-77338589D01*
X192585950Y-77338589D02*
X192621664Y-77195732D01*
X192621664Y-77195732D02*
X192693093Y-77124303D01*
X192693093Y-77124303D02*
X192764521Y-77088589D01*
X193407378Y-77838589D02*
X193407378Y-77088589D01*
X193407378Y-77088589D02*
X193657378Y-77624303D01*
X193657378Y-77624303D02*
X193907378Y-77088589D01*
X193907378Y-77088589D02*
X193907378Y-77838589D01*
D10*
X139875313Y-89520680D02*
X139827694Y-89568300D01*
X139827694Y-89568300D02*
X139684837Y-89615919D01*
X139684837Y-89615919D02*
X139589599Y-89615919D01*
X139589599Y-89615919D02*
X139446742Y-89568300D01*
X139446742Y-89568300D02*
X139351504Y-89473061D01*
X139351504Y-89473061D02*
X139303885Y-89377823D01*
X139303885Y-89377823D02*
X139256266Y-89187347D01*
X139256266Y-89187347D02*
X139256266Y-89044490D01*
X139256266Y-89044490D02*
X139303885Y-88854014D01*
X139303885Y-88854014D02*
X139351504Y-88758776D01*
X139351504Y-88758776D02*
X139446742Y-88663538D01*
X139446742Y-88663538D02*
X139589599Y-88615919D01*
X139589599Y-88615919D02*
X139684837Y-88615919D01*
X139684837Y-88615919D02*
X139827694Y-88663538D01*
X139827694Y-88663538D02*
X139875313Y-88711157D01*
X140494361Y-89139728D02*
X140494361Y-89615919D01*
X140161028Y-88615919D02*
X140494361Y-89139728D01*
X140494361Y-89139728D02*
X140827694Y-88615919D01*
X141589599Y-88615919D02*
X141399123Y-88615919D01*
X141399123Y-88615919D02*
X141303885Y-88663538D01*
X141303885Y-88663538D02*
X141256266Y-88711157D01*
X141256266Y-88711157D02*
X141161028Y-88854014D01*
X141161028Y-88854014D02*
X141113409Y-89044490D01*
X141113409Y-89044490D02*
X141113409Y-89425442D01*
X141113409Y-89425442D02*
X141161028Y-89520680D01*
X141161028Y-89520680D02*
X141208647Y-89568300D01*
X141208647Y-89568300D02*
X141303885Y-89615919D01*
X141303885Y-89615919D02*
X141494361Y-89615919D01*
X141494361Y-89615919D02*
X141589599Y-89568300D01*
X141589599Y-89568300D02*
X141637218Y-89520680D01*
X141637218Y-89520680D02*
X141684837Y-89425442D01*
X141684837Y-89425442D02*
X141684837Y-89187347D01*
X141684837Y-89187347D02*
X141637218Y-89092109D01*
X141637218Y-89092109D02*
X141589599Y-89044490D01*
X141589599Y-89044490D02*
X141494361Y-88996871D01*
X141494361Y-88996871D02*
X141303885Y-88996871D01*
X141303885Y-88996871D02*
X141208647Y-89044490D01*
X141208647Y-89044490D02*
X141161028Y-89092109D01*
X141161028Y-89092109D02*
X141113409Y-89187347D01*
X142065790Y-88711157D02*
X142113409Y-88663538D01*
X142113409Y-88663538D02*
X142208647Y-88615919D01*
X142208647Y-88615919D02*
X142446742Y-88615919D01*
X142446742Y-88615919D02*
X142541980Y-88663538D01*
X142541980Y-88663538D02*
X142589599Y-88711157D01*
X142589599Y-88711157D02*
X142637218Y-88806395D01*
X142637218Y-88806395D02*
X142637218Y-88901633D01*
X142637218Y-88901633D02*
X142589599Y-89044490D01*
X142589599Y-89044490D02*
X142018171Y-89615919D01*
X142018171Y-89615919D02*
X142637218Y-89615919D01*
X143589599Y-89615919D02*
X143018171Y-89615919D01*
X143303885Y-89615919D02*
X143303885Y-88615919D01*
X143303885Y-88615919D02*
X143208647Y-88758776D01*
X143208647Y-88758776D02*
X143113409Y-88854014D01*
X143113409Y-88854014D02*
X143018171Y-88901633D01*
X144494361Y-88615919D02*
X144018171Y-88615919D01*
X144018171Y-88615919D02*
X143970552Y-89092109D01*
X143970552Y-89092109D02*
X144018171Y-89044490D01*
X144018171Y-89044490D02*
X144113409Y-88996871D01*
X144113409Y-88996871D02*
X144351504Y-88996871D01*
X144351504Y-88996871D02*
X144446742Y-89044490D01*
X144446742Y-89044490D02*
X144494361Y-89092109D01*
X144494361Y-89092109D02*
X144541980Y-89187347D01*
X144541980Y-89187347D02*
X144541980Y-89425442D01*
X144541980Y-89425442D02*
X144494361Y-89520680D01*
X144494361Y-89520680D02*
X144446742Y-89568300D01*
X144446742Y-89568300D02*
X144351504Y-89615919D01*
X144351504Y-89615919D02*
X144113409Y-89615919D01*
X144113409Y-89615919D02*
X144018171Y-89568300D01*
X144018171Y-89568300D02*
X143970552Y-89520680D01*
X145113409Y-89044490D02*
X145018171Y-88996871D01*
X145018171Y-88996871D02*
X144970552Y-88949252D01*
X144970552Y-88949252D02*
X144922933Y-88854014D01*
X144922933Y-88854014D02*
X144922933Y-88806395D01*
X144922933Y-88806395D02*
X144970552Y-88711157D01*
X144970552Y-88711157D02*
X145018171Y-88663538D01*
X145018171Y-88663538D02*
X145113409Y-88615919D01*
X145113409Y-88615919D02*
X145303885Y-88615919D01*
X145303885Y-88615919D02*
X145399123Y-88663538D01*
X145399123Y-88663538D02*
X145446742Y-88711157D01*
X145446742Y-88711157D02*
X145494361Y-88806395D01*
X145494361Y-88806395D02*
X145494361Y-88854014D01*
X145494361Y-88854014D02*
X145446742Y-88949252D01*
X145446742Y-88949252D02*
X145399123Y-88996871D01*
X145399123Y-88996871D02*
X145303885Y-89044490D01*
X145303885Y-89044490D02*
X145113409Y-89044490D01*
X145113409Y-89044490D02*
X145018171Y-89092109D01*
X145018171Y-89092109D02*
X144970552Y-89139728D01*
X144970552Y-89139728D02*
X144922933Y-89234966D01*
X144922933Y-89234966D02*
X144922933Y-89425442D01*
X144922933Y-89425442D02*
X144970552Y-89520680D01*
X144970552Y-89520680D02*
X145018171Y-89568300D01*
X145018171Y-89568300D02*
X145113409Y-89615919D01*
X145113409Y-89615919D02*
X145303885Y-89615919D01*
X145303885Y-89615919D02*
X145399123Y-89568300D01*
X145399123Y-89568300D02*
X145446742Y-89520680D01*
X145446742Y-89520680D02*
X145494361Y-89425442D01*
X145494361Y-89425442D02*
X145494361Y-89234966D01*
X145494361Y-89234966D02*
X145446742Y-89139728D01*
X145446742Y-89139728D02*
X145399123Y-89092109D01*
X145399123Y-89092109D02*
X145303885Y-89044490D01*
X145922933Y-89615919D02*
X145922933Y-88615919D01*
X145922933Y-89092109D02*
X146494361Y-89092109D01*
X146494361Y-89615919D02*
X146494361Y-88615919D01*
D11*
X115681815Y-57112504D02*
X116158005Y-57112504D01*
X115586577Y-57398219D02*
X115919910Y-56398219D01*
X115919910Y-56398219D02*
X116253243Y-57398219D01*
X117015148Y-57398219D02*
X117015148Y-56398219D01*
X117015148Y-57350600D02*
X116919910Y-57398219D01*
X116919910Y-57398219D02*
X116729434Y-57398219D01*
X116729434Y-57398219D02*
X116634196Y-57350600D01*
X116634196Y-57350600D02*
X116586577Y-57302980D01*
X116586577Y-57302980D02*
X116538958Y-57207742D01*
X116538958Y-57207742D02*
X116538958Y-56922028D01*
X116538958Y-56922028D02*
X116586577Y-56826790D01*
X116586577Y-56826790D02*
X116634196Y-56779171D01*
X116634196Y-56779171D02*
X116729434Y-56731552D01*
X116729434Y-56731552D02*
X116919910Y-56731552D01*
X116919910Y-56731552D02*
X117015148Y-56779171D01*
X117919910Y-57398219D02*
X117919910Y-56398219D01*
X117919910Y-57350600D02*
X117824672Y-57398219D01*
X117824672Y-57398219D02*
X117634196Y-57398219D01*
X117634196Y-57398219D02*
X117538958Y-57350600D01*
X117538958Y-57350600D02*
X117491339Y-57302980D01*
X117491339Y-57302980D02*
X117443720Y-57207742D01*
X117443720Y-57207742D02*
X117443720Y-56922028D01*
X117443720Y-56922028D02*
X117491339Y-56826790D01*
X117491339Y-56826790D02*
X117538958Y-56779171D01*
X117538958Y-56779171D02*
X117634196Y-56731552D01*
X117634196Y-56731552D02*
X117824672Y-56731552D01*
X117824672Y-56731552D02*
X117919910Y-56779171D01*
X118396101Y-57398219D02*
X118396101Y-56731552D01*
X118396101Y-56922028D02*
X118443720Y-56826790D01*
X118443720Y-56826790D02*
X118491339Y-56779171D01*
X118491339Y-56779171D02*
X118586577Y-56731552D01*
X118586577Y-56731552D02*
X118681815Y-56731552D01*
X119396101Y-57350600D02*
X119300863Y-57398219D01*
X119300863Y-57398219D02*
X119110387Y-57398219D01*
X119110387Y-57398219D02*
X119015149Y-57350600D01*
X119015149Y-57350600D02*
X118967530Y-57255361D01*
X118967530Y-57255361D02*
X118967530Y-56874409D01*
X118967530Y-56874409D02*
X119015149Y-56779171D01*
X119015149Y-56779171D02*
X119110387Y-56731552D01*
X119110387Y-56731552D02*
X119300863Y-56731552D01*
X119300863Y-56731552D02*
X119396101Y-56779171D01*
X119396101Y-56779171D02*
X119443720Y-56874409D01*
X119443720Y-56874409D02*
X119443720Y-56969647D01*
X119443720Y-56969647D02*
X118967530Y-57064885D01*
X119824673Y-57350600D02*
X119919911Y-57398219D01*
X119919911Y-57398219D02*
X120110387Y-57398219D01*
X120110387Y-57398219D02*
X120205625Y-57350600D01*
X120205625Y-57350600D02*
X120253244Y-57255361D01*
X120253244Y-57255361D02*
X120253244Y-57207742D01*
X120253244Y-57207742D02*
X120205625Y-57112504D01*
X120205625Y-57112504D02*
X120110387Y-57064885D01*
X120110387Y-57064885D02*
X119967530Y-57064885D01*
X119967530Y-57064885D02*
X119872292Y-57017266D01*
X119872292Y-57017266D02*
X119824673Y-56922028D01*
X119824673Y-56922028D02*
X119824673Y-56874409D01*
X119824673Y-56874409D02*
X119872292Y-56779171D01*
X119872292Y-56779171D02*
X119967530Y-56731552D01*
X119967530Y-56731552D02*
X120110387Y-56731552D01*
X120110387Y-56731552D02*
X120205625Y-56779171D01*
X120634197Y-57350600D02*
X120729435Y-57398219D01*
X120729435Y-57398219D02*
X120919911Y-57398219D01*
X120919911Y-57398219D02*
X121015149Y-57350600D01*
X121015149Y-57350600D02*
X121062768Y-57255361D01*
X121062768Y-57255361D02*
X121062768Y-57207742D01*
X121062768Y-57207742D02*
X121015149Y-57112504D01*
X121015149Y-57112504D02*
X120919911Y-57064885D01*
X120919911Y-57064885D02*
X120777054Y-57064885D01*
X120777054Y-57064885D02*
X120681816Y-57017266D01*
X120681816Y-57017266D02*
X120634197Y-56922028D01*
X120634197Y-56922028D02*
X120634197Y-56874409D01*
X120634197Y-56874409D02*
X120681816Y-56779171D01*
X120681816Y-56779171D02*
X120777054Y-56731552D01*
X120777054Y-56731552D02*
X120919911Y-56731552D01*
X120919911Y-56731552D02*
X121015149Y-56779171D01*
D10*
X118920313Y-89520680D02*
X118872694Y-89568300D01*
X118872694Y-89568300D02*
X118729837Y-89615919D01*
X118729837Y-89615919D02*
X118634599Y-89615919D01*
X118634599Y-89615919D02*
X118491742Y-89568300D01*
X118491742Y-89568300D02*
X118396504Y-89473061D01*
X118396504Y-89473061D02*
X118348885Y-89377823D01*
X118348885Y-89377823D02*
X118301266Y-89187347D01*
X118301266Y-89187347D02*
X118301266Y-89044490D01*
X118301266Y-89044490D02*
X118348885Y-88854014D01*
X118348885Y-88854014D02*
X118396504Y-88758776D01*
X118396504Y-88758776D02*
X118491742Y-88663538D01*
X118491742Y-88663538D02*
X118634599Y-88615919D01*
X118634599Y-88615919D02*
X118729837Y-88615919D01*
X118729837Y-88615919D02*
X118872694Y-88663538D01*
X118872694Y-88663538D02*
X118920313Y-88711157D01*
X119539361Y-89139728D02*
X119539361Y-89615919D01*
X119206028Y-88615919D02*
X119539361Y-89139728D01*
X119539361Y-89139728D02*
X119872694Y-88615919D01*
X120634599Y-88615919D02*
X120444123Y-88615919D01*
X120444123Y-88615919D02*
X120348885Y-88663538D01*
X120348885Y-88663538D02*
X120301266Y-88711157D01*
X120301266Y-88711157D02*
X120206028Y-88854014D01*
X120206028Y-88854014D02*
X120158409Y-89044490D01*
X120158409Y-89044490D02*
X120158409Y-89425442D01*
X120158409Y-89425442D02*
X120206028Y-89520680D01*
X120206028Y-89520680D02*
X120253647Y-89568300D01*
X120253647Y-89568300D02*
X120348885Y-89615919D01*
X120348885Y-89615919D02*
X120539361Y-89615919D01*
X120539361Y-89615919D02*
X120634599Y-89568300D01*
X120634599Y-89568300D02*
X120682218Y-89520680D01*
X120682218Y-89520680D02*
X120729837Y-89425442D01*
X120729837Y-89425442D02*
X120729837Y-89187347D01*
X120729837Y-89187347D02*
X120682218Y-89092109D01*
X120682218Y-89092109D02*
X120634599Y-89044490D01*
X120634599Y-89044490D02*
X120539361Y-88996871D01*
X120539361Y-88996871D02*
X120348885Y-88996871D01*
X120348885Y-88996871D02*
X120253647Y-89044490D01*
X120253647Y-89044490D02*
X120206028Y-89092109D01*
X120206028Y-89092109D02*
X120158409Y-89187347D01*
X121110790Y-88711157D02*
X121158409Y-88663538D01*
X121158409Y-88663538D02*
X121253647Y-88615919D01*
X121253647Y-88615919D02*
X121491742Y-88615919D01*
X121491742Y-88615919D02*
X121586980Y-88663538D01*
X121586980Y-88663538D02*
X121634599Y-88711157D01*
X121634599Y-88711157D02*
X121682218Y-88806395D01*
X121682218Y-88806395D02*
X121682218Y-88901633D01*
X121682218Y-88901633D02*
X121634599Y-89044490D01*
X121634599Y-89044490D02*
X121063171Y-89615919D01*
X121063171Y-89615919D02*
X121682218Y-89615919D01*
X122634599Y-89615919D02*
X122063171Y-89615919D01*
X122348885Y-89615919D02*
X122348885Y-88615919D01*
X122348885Y-88615919D02*
X122253647Y-88758776D01*
X122253647Y-88758776D02*
X122158409Y-88854014D01*
X122158409Y-88854014D02*
X122063171Y-88901633D01*
X123539361Y-88615919D02*
X123063171Y-88615919D01*
X123063171Y-88615919D02*
X123015552Y-89092109D01*
X123015552Y-89092109D02*
X123063171Y-89044490D01*
X123063171Y-89044490D02*
X123158409Y-88996871D01*
X123158409Y-88996871D02*
X123396504Y-88996871D01*
X123396504Y-88996871D02*
X123491742Y-89044490D01*
X123491742Y-89044490D02*
X123539361Y-89092109D01*
X123539361Y-89092109D02*
X123586980Y-89187347D01*
X123586980Y-89187347D02*
X123586980Y-89425442D01*
X123586980Y-89425442D02*
X123539361Y-89520680D01*
X123539361Y-89520680D02*
X123491742Y-89568300D01*
X123491742Y-89568300D02*
X123396504Y-89615919D01*
X123396504Y-89615919D02*
X123158409Y-89615919D01*
X123158409Y-89615919D02*
X123063171Y-89568300D01*
X123063171Y-89568300D02*
X123015552Y-89520680D01*
X124158409Y-89044490D02*
X124063171Y-88996871D01*
X124063171Y-88996871D02*
X124015552Y-88949252D01*
X124015552Y-88949252D02*
X123967933Y-88854014D01*
X123967933Y-88854014D02*
X123967933Y-88806395D01*
X123967933Y-88806395D02*
X124015552Y-88711157D01*
X124015552Y-88711157D02*
X124063171Y-88663538D01*
X124063171Y-88663538D02*
X124158409Y-88615919D01*
X124158409Y-88615919D02*
X124348885Y-88615919D01*
X124348885Y-88615919D02*
X124444123Y-88663538D01*
X124444123Y-88663538D02*
X124491742Y-88711157D01*
X124491742Y-88711157D02*
X124539361Y-88806395D01*
X124539361Y-88806395D02*
X124539361Y-88854014D01*
X124539361Y-88854014D02*
X124491742Y-88949252D01*
X124491742Y-88949252D02*
X124444123Y-88996871D01*
X124444123Y-88996871D02*
X124348885Y-89044490D01*
X124348885Y-89044490D02*
X124158409Y-89044490D01*
X124158409Y-89044490D02*
X124063171Y-89092109D01*
X124063171Y-89092109D02*
X124015552Y-89139728D01*
X124015552Y-89139728D02*
X123967933Y-89234966D01*
X123967933Y-89234966D02*
X123967933Y-89425442D01*
X123967933Y-89425442D02*
X124015552Y-89520680D01*
X124015552Y-89520680D02*
X124063171Y-89568300D01*
X124063171Y-89568300D02*
X124158409Y-89615919D01*
X124158409Y-89615919D02*
X124348885Y-89615919D01*
X124348885Y-89615919D02*
X124444123Y-89568300D01*
X124444123Y-89568300D02*
X124491742Y-89520680D01*
X124491742Y-89520680D02*
X124539361Y-89425442D01*
X124539361Y-89425442D02*
X124539361Y-89234966D01*
X124539361Y-89234966D02*
X124491742Y-89139728D01*
X124491742Y-89139728D02*
X124444123Y-89092109D01*
X124444123Y-89092109D02*
X124348885Y-89044490D01*
X124967933Y-89615919D02*
X124967933Y-88615919D01*
X124967933Y-89092109D02*
X125539361Y-89092109D01*
X125539361Y-89615919D02*
X125539361Y-88615919D01*
D13*
X196454819Y-110285904D02*
X197264342Y-110285904D01*
X197264342Y-110285904D02*
X197359580Y-110238285D01*
X197359580Y-110238285D02*
X197407200Y-110190666D01*
X197407200Y-110190666D02*
X197454819Y-110095428D01*
X197454819Y-110095428D02*
X197454819Y-109904952D01*
X197454819Y-109904952D02*
X197407200Y-109809714D01*
X197407200Y-109809714D02*
X197359580Y-109762095D01*
X197359580Y-109762095D02*
X197264342Y-109714476D01*
X197264342Y-109714476D02*
X196454819Y-109714476D01*
X196454819Y-108809714D02*
X196454819Y-109000190D01*
X196454819Y-109000190D02*
X196502438Y-109095428D01*
X196502438Y-109095428D02*
X196550057Y-109143047D01*
X196550057Y-109143047D02*
X196692914Y-109238285D01*
X196692914Y-109238285D02*
X196883390Y-109285904D01*
X196883390Y-109285904D02*
X197264342Y-109285904D01*
X197264342Y-109285904D02*
X197359580Y-109238285D01*
X197359580Y-109238285D02*
X197407200Y-109190666D01*
X197407200Y-109190666D02*
X197454819Y-109095428D01*
X197454819Y-109095428D02*
X197454819Y-108904952D01*
X197454819Y-108904952D02*
X197407200Y-108809714D01*
X197407200Y-108809714D02*
X197359580Y-108762095D01*
X197359580Y-108762095D02*
X197264342Y-108714476D01*
X197264342Y-108714476D02*
X197026247Y-108714476D01*
X197026247Y-108714476D02*
X196931009Y-108762095D01*
X196931009Y-108762095D02*
X196883390Y-108809714D01*
X196883390Y-108809714D02*
X196835771Y-108904952D01*
X196835771Y-108904952D02*
X196835771Y-109095428D01*
X196835771Y-109095428D02*
X196883390Y-109190666D01*
X196883390Y-109190666D02*
X196931009Y-109238285D01*
X196931009Y-109238285D02*
X197026247Y-109285904D01*
X150981580Y-72406166D02*
X151029200Y-72453785D01*
X151029200Y-72453785D02*
X151076819Y-72596642D01*
X151076819Y-72596642D02*
X151076819Y-72691880D01*
X151076819Y-72691880D02*
X151029200Y-72834737D01*
X151029200Y-72834737D02*
X150933961Y-72929975D01*
X150933961Y-72929975D02*
X150838723Y-72977594D01*
X150838723Y-72977594D02*
X150648247Y-73025213D01*
X150648247Y-73025213D02*
X150505390Y-73025213D01*
X150505390Y-73025213D02*
X150314914Y-72977594D01*
X150314914Y-72977594D02*
X150219676Y-72929975D01*
X150219676Y-72929975D02*
X150124438Y-72834737D01*
X150124438Y-72834737D02*
X150076819Y-72691880D01*
X150076819Y-72691880D02*
X150076819Y-72596642D01*
X150076819Y-72596642D02*
X150124438Y-72453785D01*
X150124438Y-72453785D02*
X150172057Y-72406166D01*
X150076819Y-72072832D02*
X150076819Y-71453785D01*
X150076819Y-71453785D02*
X150457771Y-71787118D01*
X150457771Y-71787118D02*
X150457771Y-71644261D01*
X150457771Y-71644261D02*
X150505390Y-71549023D01*
X150505390Y-71549023D02*
X150553009Y-71501404D01*
X150553009Y-71501404D02*
X150648247Y-71453785D01*
X150648247Y-71453785D02*
X150886342Y-71453785D01*
X150886342Y-71453785D02*
X150981580Y-71501404D01*
X150981580Y-71501404D02*
X151029200Y-71549023D01*
X151029200Y-71549023D02*
X151076819Y-71644261D01*
X151076819Y-71644261D02*
X151076819Y-71929975D01*
X151076819Y-71929975D02*
X151029200Y-72025213D01*
X151029200Y-72025213D02*
X150981580Y-72072832D01*
X152498153Y-89965904D02*
X153307676Y-89965904D01*
X153307676Y-89965904D02*
X153402914Y-89918285D01*
X153402914Y-89918285D02*
X153450534Y-89870666D01*
X153450534Y-89870666D02*
X153498153Y-89775428D01*
X153498153Y-89775428D02*
X153498153Y-89584952D01*
X153498153Y-89584952D02*
X153450534Y-89489714D01*
X153450534Y-89489714D02*
X153402914Y-89442095D01*
X153402914Y-89442095D02*
X153307676Y-89394476D01*
X153307676Y-89394476D02*
X152498153Y-89394476D01*
X152593391Y-88965904D02*
X152545772Y-88918285D01*
X152545772Y-88918285D02*
X152498153Y-88823047D01*
X152498153Y-88823047D02*
X152498153Y-88584952D01*
X152498153Y-88584952D02*
X152545772Y-88489714D01*
X152545772Y-88489714D02*
X152593391Y-88442095D01*
X152593391Y-88442095D02*
X152688629Y-88394476D01*
X152688629Y-88394476D02*
X152783867Y-88394476D01*
X152783867Y-88394476D02*
X152926724Y-88442095D01*
X152926724Y-88442095D02*
X153498153Y-89013523D01*
X153498153Y-89013523D02*
X153498153Y-88394476D01*
X141597142Y-100181580D02*
X141549523Y-100229200D01*
X141549523Y-100229200D02*
X141406666Y-100276819D01*
X141406666Y-100276819D02*
X141311428Y-100276819D01*
X141311428Y-100276819D02*
X141168571Y-100229200D01*
X141168571Y-100229200D02*
X141073333Y-100133961D01*
X141073333Y-100133961D02*
X141025714Y-100038723D01*
X141025714Y-100038723D02*
X140978095Y-99848247D01*
X140978095Y-99848247D02*
X140978095Y-99705390D01*
X140978095Y-99705390D02*
X141025714Y-99514914D01*
X141025714Y-99514914D02*
X141073333Y-99419676D01*
X141073333Y-99419676D02*
X141168571Y-99324438D01*
X141168571Y-99324438D02*
X141311428Y-99276819D01*
X141311428Y-99276819D02*
X141406666Y-99276819D01*
X141406666Y-99276819D02*
X141549523Y-99324438D01*
X141549523Y-99324438D02*
X141597142Y-99372057D01*
X142549523Y-100276819D02*
X141978095Y-100276819D01*
X142263809Y-100276819D02*
X142263809Y-99276819D01*
X142263809Y-99276819D02*
X142168571Y-99419676D01*
X142168571Y-99419676D02*
X142073333Y-99514914D01*
X142073333Y-99514914D02*
X141978095Y-99562533D01*
X143501904Y-100276819D02*
X142930476Y-100276819D01*
X143216190Y-100276819D02*
X143216190Y-99276819D01*
X143216190Y-99276819D02*
X143120952Y-99419676D01*
X143120952Y-99419676D02*
X143025714Y-99514914D01*
X143025714Y-99514914D02*
X142930476Y-99562533D01*
X118215580Y-72302666D02*
X118263200Y-72350285D01*
X118263200Y-72350285D02*
X118310819Y-72493142D01*
X118310819Y-72493142D02*
X118310819Y-72588380D01*
X118310819Y-72588380D02*
X118263200Y-72731237D01*
X118263200Y-72731237D02*
X118167961Y-72826475D01*
X118167961Y-72826475D02*
X118072723Y-72874094D01*
X118072723Y-72874094D02*
X117882247Y-72921713D01*
X117882247Y-72921713D02*
X117739390Y-72921713D01*
X117739390Y-72921713D02*
X117548914Y-72874094D01*
X117548914Y-72874094D02*
X117453676Y-72826475D01*
X117453676Y-72826475D02*
X117358438Y-72731237D01*
X117358438Y-72731237D02*
X117310819Y-72588380D01*
X117310819Y-72588380D02*
X117310819Y-72493142D01*
X117310819Y-72493142D02*
X117358438Y-72350285D01*
X117358438Y-72350285D02*
X117406057Y-72302666D01*
X118310819Y-71350285D02*
X118310819Y-71921713D01*
X118310819Y-71635999D02*
X117310819Y-71635999D01*
X117310819Y-71635999D02*
X117453676Y-71731237D01*
X117453676Y-71731237D02*
X117548914Y-71826475D01*
X117548914Y-71826475D02*
X117596533Y-71921713D01*
X116024819Y-65381404D02*
X116834342Y-65381404D01*
X116834342Y-65381404D02*
X116929580Y-65333785D01*
X116929580Y-65333785D02*
X116977200Y-65286166D01*
X116977200Y-65286166D02*
X117024819Y-65190928D01*
X117024819Y-65190928D02*
X117024819Y-65000452D01*
X117024819Y-65000452D02*
X116977200Y-64905214D01*
X116977200Y-64905214D02*
X116929580Y-64857595D01*
X116929580Y-64857595D02*
X116834342Y-64809976D01*
X116834342Y-64809976D02*
X116024819Y-64809976D01*
X116024819Y-64429023D02*
X116024819Y-63762357D01*
X116024819Y-63762357D02*
X117024819Y-64190928D01*
X185196666Y-75048819D02*
X185196666Y-75763104D01*
X185196666Y-75763104D02*
X185149047Y-75905961D01*
X185149047Y-75905961D02*
X185053809Y-76001200D01*
X185053809Y-76001200D02*
X184910952Y-76048819D01*
X184910952Y-76048819D02*
X184815714Y-76048819D01*
X185672857Y-76048819D02*
X185672857Y-75048819D01*
X185672857Y-75048819D02*
X186053809Y-75048819D01*
X186053809Y-75048819D02*
X186149047Y-75096438D01*
X186149047Y-75096438D02*
X186196666Y-75144057D01*
X186196666Y-75144057D02*
X186244285Y-75239295D01*
X186244285Y-75239295D02*
X186244285Y-75382152D01*
X186244285Y-75382152D02*
X186196666Y-75477390D01*
X186196666Y-75477390D02*
X186149047Y-75525009D01*
X186149047Y-75525009D02*
X186053809Y-75572628D01*
X186053809Y-75572628D02*
X185672857Y-75572628D01*
X187196666Y-76048819D02*
X186625238Y-76048819D01*
X186910952Y-76048819D02*
X186910952Y-75048819D01*
X186910952Y-75048819D02*
X186815714Y-75191676D01*
X186815714Y-75191676D02*
X186720476Y-75286914D01*
X186720476Y-75286914D02*
X186625238Y-75334533D01*
X132534819Y-65381404D02*
X133344342Y-65381404D01*
X133344342Y-65381404D02*
X133439580Y-65333785D01*
X133439580Y-65333785D02*
X133487200Y-65286166D01*
X133487200Y-65286166D02*
X133534819Y-65190928D01*
X133534819Y-65190928D02*
X133534819Y-65000452D01*
X133534819Y-65000452D02*
X133487200Y-64905214D01*
X133487200Y-64905214D02*
X133439580Y-64857595D01*
X133439580Y-64857595D02*
X133344342Y-64809976D01*
X133344342Y-64809976D02*
X132534819Y-64809976D01*
X132963390Y-64190928D02*
X132915771Y-64286166D01*
X132915771Y-64286166D02*
X132868152Y-64333785D01*
X132868152Y-64333785D02*
X132772914Y-64381404D01*
X132772914Y-64381404D02*
X132725295Y-64381404D01*
X132725295Y-64381404D02*
X132630057Y-64333785D01*
X132630057Y-64333785D02*
X132582438Y-64286166D01*
X132582438Y-64286166D02*
X132534819Y-64190928D01*
X132534819Y-64190928D02*
X132534819Y-64000452D01*
X132534819Y-64000452D02*
X132582438Y-63905214D01*
X132582438Y-63905214D02*
X132630057Y-63857595D01*
X132630057Y-63857595D02*
X132725295Y-63809976D01*
X132725295Y-63809976D02*
X132772914Y-63809976D01*
X132772914Y-63809976D02*
X132868152Y-63857595D01*
X132868152Y-63857595D02*
X132915771Y-63905214D01*
X132915771Y-63905214D02*
X132963390Y-64000452D01*
X132963390Y-64000452D02*
X132963390Y-64190928D01*
X132963390Y-64190928D02*
X133011009Y-64286166D01*
X133011009Y-64286166D02*
X133058628Y-64333785D01*
X133058628Y-64333785D02*
X133153866Y-64381404D01*
X133153866Y-64381404D02*
X133344342Y-64381404D01*
X133344342Y-64381404D02*
X133439580Y-64333785D01*
X133439580Y-64333785D02*
X133487200Y-64286166D01*
X133487200Y-64286166D02*
X133534819Y-64190928D01*
X133534819Y-64190928D02*
X133534819Y-64000452D01*
X133534819Y-64000452D02*
X133487200Y-63905214D01*
X133487200Y-63905214D02*
X133439580Y-63857595D01*
X133439580Y-63857595D02*
X133344342Y-63809976D01*
X133344342Y-63809976D02*
X133153866Y-63809976D01*
X133153866Y-63809976D02*
X133058628Y-63857595D01*
X133058628Y-63857595D02*
X133011009Y-63905214D01*
X133011009Y-63905214D02*
X132963390Y-64000452D01*
X161321905Y-60849819D02*
X161321905Y-61659342D01*
X161321905Y-61659342D02*
X161369524Y-61754580D01*
X161369524Y-61754580D02*
X161417143Y-61802200D01*
X161417143Y-61802200D02*
X161512381Y-61849819D01*
X161512381Y-61849819D02*
X161702857Y-61849819D01*
X161702857Y-61849819D02*
X161798095Y-61802200D01*
X161798095Y-61802200D02*
X161845714Y-61754580D01*
X161845714Y-61754580D02*
X161893333Y-61659342D01*
X161893333Y-61659342D02*
X161893333Y-60849819D01*
X162893333Y-61849819D02*
X162321905Y-61849819D01*
X162607619Y-61849819D02*
X162607619Y-60849819D01*
X162607619Y-60849819D02*
X162512381Y-60992676D01*
X162512381Y-60992676D02*
X162417143Y-61087914D01*
X162417143Y-61087914D02*
X162321905Y-61135533D01*
X163512381Y-60849819D02*
X163607619Y-60849819D01*
X163607619Y-60849819D02*
X163702857Y-60897438D01*
X163702857Y-60897438D02*
X163750476Y-60945057D01*
X163750476Y-60945057D02*
X163798095Y-61040295D01*
X163798095Y-61040295D02*
X163845714Y-61230771D01*
X163845714Y-61230771D02*
X163845714Y-61468866D01*
X163845714Y-61468866D02*
X163798095Y-61659342D01*
X163798095Y-61659342D02*
X163750476Y-61754580D01*
X163750476Y-61754580D02*
X163702857Y-61802200D01*
X163702857Y-61802200D02*
X163607619Y-61849819D01*
X163607619Y-61849819D02*
X163512381Y-61849819D01*
X163512381Y-61849819D02*
X163417143Y-61802200D01*
X163417143Y-61802200D02*
X163369524Y-61754580D01*
X163369524Y-61754580D02*
X163321905Y-61659342D01*
X163321905Y-61659342D02*
X163274286Y-61468866D01*
X163274286Y-61468866D02*
X163274286Y-61230771D01*
X163274286Y-61230771D02*
X163321905Y-61040295D01*
X163321905Y-61040295D02*
X163369524Y-60945057D01*
X163369524Y-60945057D02*
X163417143Y-60897438D01*
X163417143Y-60897438D02*
X163512381Y-60849819D01*
X162901333Y-59287580D02*
X162853714Y-59335200D01*
X162853714Y-59335200D02*
X162710857Y-59382819D01*
X162710857Y-59382819D02*
X162615619Y-59382819D01*
X162615619Y-59382819D02*
X162472762Y-59335200D01*
X162472762Y-59335200D02*
X162377524Y-59239961D01*
X162377524Y-59239961D02*
X162329905Y-59144723D01*
X162329905Y-59144723D02*
X162282286Y-58954247D01*
X162282286Y-58954247D02*
X162282286Y-58811390D01*
X162282286Y-58811390D02*
X162329905Y-58620914D01*
X162329905Y-58620914D02*
X162377524Y-58525676D01*
X162377524Y-58525676D02*
X162472762Y-58430438D01*
X162472762Y-58430438D02*
X162615619Y-58382819D01*
X162615619Y-58382819D02*
X162710857Y-58382819D01*
X162710857Y-58382819D02*
X162853714Y-58430438D01*
X162853714Y-58430438D02*
X162901333Y-58478057D01*
X163758476Y-58716152D02*
X163758476Y-59382819D01*
X163520381Y-58335200D02*
X163282286Y-59049485D01*
X163282286Y-59049485D02*
X163901333Y-59049485D01*
X120509308Y-100181580D02*
X120461689Y-100229200D01*
X120461689Y-100229200D02*
X120318832Y-100276819D01*
X120318832Y-100276819D02*
X120223594Y-100276819D01*
X120223594Y-100276819D02*
X120080737Y-100229200D01*
X120080737Y-100229200D02*
X119985499Y-100133961D01*
X119985499Y-100133961D02*
X119937880Y-100038723D01*
X119937880Y-100038723D02*
X119890261Y-99848247D01*
X119890261Y-99848247D02*
X119890261Y-99705390D01*
X119890261Y-99705390D02*
X119937880Y-99514914D01*
X119937880Y-99514914D02*
X119985499Y-99419676D01*
X119985499Y-99419676D02*
X120080737Y-99324438D01*
X120080737Y-99324438D02*
X120223594Y-99276819D01*
X120223594Y-99276819D02*
X120318832Y-99276819D01*
X120318832Y-99276819D02*
X120461689Y-99324438D01*
X120461689Y-99324438D02*
X120509308Y-99372057D01*
X121461689Y-100276819D02*
X120890261Y-100276819D01*
X121175975Y-100276819D02*
X121175975Y-99276819D01*
X121175975Y-99276819D02*
X121080737Y-99419676D01*
X121080737Y-99419676D02*
X120985499Y-99514914D01*
X120985499Y-99514914D02*
X120890261Y-99562533D01*
X122080737Y-99276819D02*
X122175975Y-99276819D01*
X122175975Y-99276819D02*
X122271213Y-99324438D01*
X122271213Y-99324438D02*
X122318832Y-99372057D01*
X122318832Y-99372057D02*
X122366451Y-99467295D01*
X122366451Y-99467295D02*
X122414070Y-99657771D01*
X122414070Y-99657771D02*
X122414070Y-99895866D01*
X122414070Y-99895866D02*
X122366451Y-100086342D01*
X122366451Y-100086342D02*
X122318832Y-100181580D01*
X122318832Y-100181580D02*
X122271213Y-100229200D01*
X122271213Y-100229200D02*
X122175975Y-100276819D01*
X122175975Y-100276819D02*
X122080737Y-100276819D01*
X122080737Y-100276819D02*
X121985499Y-100229200D01*
X121985499Y-100229200D02*
X121937880Y-100181580D01*
X121937880Y-100181580D02*
X121890261Y-100086342D01*
X121890261Y-100086342D02*
X121842642Y-99895866D01*
X121842642Y-99895866D02*
X121842642Y-99657771D01*
X121842642Y-99657771D02*
X121890261Y-99467295D01*
X121890261Y-99467295D02*
X121937880Y-99372057D01*
X121937880Y-99372057D02*
X121985499Y-99324438D01*
X121985499Y-99324438D02*
X122080737Y-99276819D01*
X173569333Y-59012080D02*
X173521714Y-59059700D01*
X173521714Y-59059700D02*
X173378857Y-59107319D01*
X173378857Y-59107319D02*
X173283619Y-59107319D01*
X173283619Y-59107319D02*
X173140762Y-59059700D01*
X173140762Y-59059700D02*
X173045524Y-58964461D01*
X173045524Y-58964461D02*
X172997905Y-58869223D01*
X172997905Y-58869223D02*
X172950286Y-58678747D01*
X172950286Y-58678747D02*
X172950286Y-58535890D01*
X172950286Y-58535890D02*
X172997905Y-58345414D01*
X172997905Y-58345414D02*
X173045524Y-58250176D01*
X173045524Y-58250176D02*
X173140762Y-58154938D01*
X173140762Y-58154938D02*
X173283619Y-58107319D01*
X173283619Y-58107319D02*
X173378857Y-58107319D01*
X173378857Y-58107319D02*
X173521714Y-58154938D01*
X173521714Y-58154938D02*
X173569333Y-58202557D01*
X174474095Y-58107319D02*
X173997905Y-58107319D01*
X173997905Y-58107319D02*
X173950286Y-58583509D01*
X173950286Y-58583509D02*
X173997905Y-58535890D01*
X173997905Y-58535890D02*
X174093143Y-58488271D01*
X174093143Y-58488271D02*
X174331238Y-58488271D01*
X174331238Y-58488271D02*
X174426476Y-58535890D01*
X174426476Y-58535890D02*
X174474095Y-58583509D01*
X174474095Y-58583509D02*
X174521714Y-58678747D01*
X174521714Y-58678747D02*
X174521714Y-58916842D01*
X174521714Y-58916842D02*
X174474095Y-59012080D01*
X174474095Y-59012080D02*
X174426476Y-59059700D01*
X174426476Y-59059700D02*
X174331238Y-59107319D01*
X174331238Y-59107319D02*
X174093143Y-59107319D01*
X174093143Y-59107319D02*
X173997905Y-59059700D01*
X173997905Y-59059700D02*
X173950286Y-59012080D01*
X149044819Y-65381404D02*
X149854342Y-65381404D01*
X149854342Y-65381404D02*
X149949580Y-65333785D01*
X149949580Y-65333785D02*
X149997200Y-65286166D01*
X149997200Y-65286166D02*
X150044819Y-65190928D01*
X150044819Y-65190928D02*
X150044819Y-65000452D01*
X150044819Y-65000452D02*
X149997200Y-64905214D01*
X149997200Y-64905214D02*
X149949580Y-64857595D01*
X149949580Y-64857595D02*
X149854342Y-64809976D01*
X149854342Y-64809976D02*
X149044819Y-64809976D01*
X150044819Y-64286166D02*
X150044819Y-64095690D01*
X150044819Y-64095690D02*
X149997200Y-64000452D01*
X149997200Y-64000452D02*
X149949580Y-63952833D01*
X149949580Y-63952833D02*
X149806723Y-63857595D01*
X149806723Y-63857595D02*
X149616247Y-63809976D01*
X149616247Y-63809976D02*
X149235295Y-63809976D01*
X149235295Y-63809976D02*
X149140057Y-63857595D01*
X149140057Y-63857595D02*
X149092438Y-63905214D01*
X149092438Y-63905214D02*
X149044819Y-64000452D01*
X149044819Y-64000452D02*
X149044819Y-64190928D01*
X149044819Y-64190928D02*
X149092438Y-64286166D01*
X149092438Y-64286166D02*
X149140057Y-64333785D01*
X149140057Y-64333785D02*
X149235295Y-64381404D01*
X149235295Y-64381404D02*
X149473390Y-64381404D01*
X149473390Y-64381404D02*
X149568628Y-64333785D01*
X149568628Y-64333785D02*
X149616247Y-64286166D01*
X149616247Y-64286166D02*
X149663866Y-64190928D01*
X149663866Y-64190928D02*
X149663866Y-64000452D01*
X149663866Y-64000452D02*
X149616247Y-63905214D01*
X149616247Y-63905214D02*
X149568628Y-63857595D01*
X149568628Y-63857595D02*
X149473390Y-63809976D01*
X196454819Y-89965904D02*
X197264342Y-89965904D01*
X197264342Y-89965904D02*
X197359580Y-89918285D01*
X197359580Y-89918285D02*
X197407200Y-89870666D01*
X197407200Y-89870666D02*
X197454819Y-89775428D01*
X197454819Y-89775428D02*
X197454819Y-89584952D01*
X197454819Y-89584952D02*
X197407200Y-89489714D01*
X197407200Y-89489714D02*
X197359580Y-89442095D01*
X197359580Y-89442095D02*
X197264342Y-89394476D01*
X197264342Y-89394476D02*
X196454819Y-89394476D01*
X196454819Y-88442095D02*
X196454819Y-88918285D01*
X196454819Y-88918285D02*
X196931009Y-88965904D01*
X196931009Y-88965904D02*
X196883390Y-88918285D01*
X196883390Y-88918285D02*
X196835771Y-88823047D01*
X196835771Y-88823047D02*
X196835771Y-88584952D01*
X196835771Y-88584952D02*
X196883390Y-88489714D01*
X196883390Y-88489714D02*
X196931009Y-88442095D01*
X196931009Y-88442095D02*
X197026247Y-88394476D01*
X197026247Y-88394476D02*
X197264342Y-88394476D01*
X197264342Y-88394476D02*
X197359580Y-88442095D01*
X197359580Y-88442095D02*
X197407200Y-88489714D01*
X197407200Y-88489714D02*
X197454819Y-88584952D01*
X197454819Y-88584952D02*
X197454819Y-88823047D01*
X197454819Y-88823047D02*
X197407200Y-88918285D01*
X197407200Y-88918285D02*
X197359580Y-88965904D01*
X134598580Y-72406166D02*
X134646200Y-72453785D01*
X134646200Y-72453785D02*
X134693819Y-72596642D01*
X134693819Y-72596642D02*
X134693819Y-72691880D01*
X134693819Y-72691880D02*
X134646200Y-72834737D01*
X134646200Y-72834737D02*
X134550961Y-72929975D01*
X134550961Y-72929975D02*
X134455723Y-72977594D01*
X134455723Y-72977594D02*
X134265247Y-73025213D01*
X134265247Y-73025213D02*
X134122390Y-73025213D01*
X134122390Y-73025213D02*
X133931914Y-72977594D01*
X133931914Y-72977594D02*
X133836676Y-72929975D01*
X133836676Y-72929975D02*
X133741438Y-72834737D01*
X133741438Y-72834737D02*
X133693819Y-72691880D01*
X133693819Y-72691880D02*
X133693819Y-72596642D01*
X133693819Y-72596642D02*
X133741438Y-72453785D01*
X133741438Y-72453785D02*
X133789057Y-72406166D01*
X133789057Y-72025213D02*
X133741438Y-71977594D01*
X133741438Y-71977594D02*
X133693819Y-71882356D01*
X133693819Y-71882356D02*
X133693819Y-71644261D01*
X133693819Y-71644261D02*
X133741438Y-71549023D01*
X133741438Y-71549023D02*
X133789057Y-71501404D01*
X133789057Y-71501404D02*
X133884295Y-71453785D01*
X133884295Y-71453785D02*
X133979533Y-71453785D01*
X133979533Y-71453785D02*
X134122390Y-71501404D01*
X134122390Y-71501404D02*
X134693819Y-72072832D01*
X134693819Y-72072832D02*
X134693819Y-71453785D01*
X131543153Y-89965904D02*
X132352676Y-89965904D01*
X132352676Y-89965904D02*
X132447914Y-89918285D01*
X132447914Y-89918285D02*
X132495534Y-89870666D01*
X132495534Y-89870666D02*
X132543153Y-89775428D01*
X132543153Y-89775428D02*
X132543153Y-89584952D01*
X132543153Y-89584952D02*
X132495534Y-89489714D01*
X132495534Y-89489714D02*
X132447914Y-89442095D01*
X132447914Y-89442095D02*
X132352676Y-89394476D01*
X132352676Y-89394476D02*
X131543153Y-89394476D01*
X132543153Y-88394476D02*
X132543153Y-88965904D01*
X132543153Y-88680190D02*
X131543153Y-88680190D01*
X131543153Y-88680190D02*
X131686010Y-88775428D01*
X131686010Y-88775428D02*
X131781248Y-88870666D01*
X131781248Y-88870666D02*
X131828867Y-88965904D01*
X138777167Y-97620080D02*
X138729548Y-97667700D01*
X138729548Y-97667700D02*
X138586691Y-97715319D01*
X138586691Y-97715319D02*
X138491453Y-97715319D01*
X138491453Y-97715319D02*
X138348596Y-97667700D01*
X138348596Y-97667700D02*
X138253358Y-97572461D01*
X138253358Y-97572461D02*
X138205739Y-97477223D01*
X138205739Y-97477223D02*
X138158120Y-97286747D01*
X138158120Y-97286747D02*
X138158120Y-97143890D01*
X138158120Y-97143890D02*
X138205739Y-96953414D01*
X138205739Y-96953414D02*
X138253358Y-96858176D01*
X138253358Y-96858176D02*
X138348596Y-96762938D01*
X138348596Y-96762938D02*
X138491453Y-96715319D01*
X138491453Y-96715319D02*
X138586691Y-96715319D01*
X138586691Y-96715319D02*
X138729548Y-96762938D01*
X138729548Y-96762938D02*
X138777167Y-96810557D01*
X139253358Y-97715319D02*
X139443834Y-97715319D01*
X139443834Y-97715319D02*
X139539072Y-97667700D01*
X139539072Y-97667700D02*
X139586691Y-97620080D01*
X139586691Y-97620080D02*
X139681929Y-97477223D01*
X139681929Y-97477223D02*
X139729548Y-97286747D01*
X139729548Y-97286747D02*
X139729548Y-96905795D01*
X139729548Y-96905795D02*
X139681929Y-96810557D01*
X139681929Y-96810557D02*
X139634310Y-96762938D01*
X139634310Y-96762938D02*
X139539072Y-96715319D01*
X139539072Y-96715319D02*
X139348596Y-96715319D01*
X139348596Y-96715319D02*
X139253358Y-96762938D01*
X139253358Y-96762938D02*
X139205739Y-96810557D01*
X139205739Y-96810557D02*
X139158120Y-96905795D01*
X139158120Y-96905795D02*
X139158120Y-97143890D01*
X139158120Y-97143890D02*
X139205739Y-97239128D01*
X139205739Y-97239128D02*
X139253358Y-97286747D01*
X139253358Y-97286747D02*
X139348596Y-97334366D01*
X139348596Y-97334366D02*
X139539072Y-97334366D01*
X139539072Y-97334366D02*
X139634310Y-97286747D01*
X139634310Y-97286747D02*
X139681929Y-97239128D01*
X139681929Y-97239128D02*
X139729548Y-97143890D01*
X142073333Y-79861580D02*
X142025714Y-79909200D01*
X142025714Y-79909200D02*
X141882857Y-79956819D01*
X141882857Y-79956819D02*
X141787619Y-79956819D01*
X141787619Y-79956819D02*
X141644762Y-79909200D01*
X141644762Y-79909200D02*
X141549524Y-79813961D01*
X141549524Y-79813961D02*
X141501905Y-79718723D01*
X141501905Y-79718723D02*
X141454286Y-79528247D01*
X141454286Y-79528247D02*
X141454286Y-79385390D01*
X141454286Y-79385390D02*
X141501905Y-79194914D01*
X141501905Y-79194914D02*
X141549524Y-79099676D01*
X141549524Y-79099676D02*
X141644762Y-79004438D01*
X141644762Y-79004438D02*
X141787619Y-78956819D01*
X141787619Y-78956819D02*
X141882857Y-78956819D01*
X141882857Y-78956819D02*
X142025714Y-79004438D01*
X142025714Y-79004438D02*
X142073333Y-79052057D01*
X142406667Y-78956819D02*
X143073333Y-78956819D01*
X143073333Y-78956819D02*
X142644762Y-79956819D01*
X190809580Y-93098857D02*
X190857200Y-93146476D01*
X190857200Y-93146476D02*
X190904819Y-93289333D01*
X190904819Y-93289333D02*
X190904819Y-93384571D01*
X190904819Y-93384571D02*
X190857200Y-93527428D01*
X190857200Y-93527428D02*
X190761961Y-93622666D01*
X190761961Y-93622666D02*
X190666723Y-93670285D01*
X190666723Y-93670285D02*
X190476247Y-93717904D01*
X190476247Y-93717904D02*
X190333390Y-93717904D01*
X190333390Y-93717904D02*
X190142914Y-93670285D01*
X190142914Y-93670285D02*
X190047676Y-93622666D01*
X190047676Y-93622666D02*
X189952438Y-93527428D01*
X189952438Y-93527428D02*
X189904819Y-93384571D01*
X189904819Y-93384571D02*
X189904819Y-93289333D01*
X189904819Y-93289333D02*
X189952438Y-93146476D01*
X189952438Y-93146476D02*
X190000057Y-93098857D01*
X190904819Y-92146476D02*
X190904819Y-92717904D01*
X190904819Y-92432190D02*
X189904819Y-92432190D01*
X189904819Y-92432190D02*
X190047676Y-92527428D01*
X190047676Y-92527428D02*
X190142914Y-92622666D01*
X190142914Y-92622666D02*
X190190533Y-92717904D01*
X190238152Y-91289333D02*
X190904819Y-91289333D01*
X189857200Y-91527428D02*
X190571485Y-91765523D01*
X190571485Y-91765523D02*
X190571485Y-91146476D01*
X131543153Y-110285904D02*
X132352676Y-110285904D01*
X132352676Y-110285904D02*
X132447914Y-110238285D01*
X132447914Y-110238285D02*
X132495534Y-110190666D01*
X132495534Y-110190666D02*
X132543153Y-110095428D01*
X132543153Y-110095428D02*
X132543153Y-109904952D01*
X132543153Y-109904952D02*
X132495534Y-109809714D01*
X132495534Y-109809714D02*
X132447914Y-109762095D01*
X132447914Y-109762095D02*
X132352676Y-109714476D01*
X132352676Y-109714476D02*
X131543153Y-109714476D01*
X131543153Y-109333523D02*
X131543153Y-108714476D01*
X131543153Y-108714476D02*
X131924105Y-109047809D01*
X131924105Y-109047809D02*
X131924105Y-108904952D01*
X131924105Y-108904952D02*
X131971724Y-108809714D01*
X131971724Y-108809714D02*
X132019343Y-108762095D01*
X132019343Y-108762095D02*
X132114581Y-108714476D01*
X132114581Y-108714476D02*
X132352676Y-108714476D01*
X132352676Y-108714476D02*
X132447914Y-108762095D01*
X132447914Y-108762095D02*
X132495534Y-108809714D01*
X132495534Y-108809714D02*
X132543153Y-108904952D01*
X132543153Y-108904952D02*
X132543153Y-109190666D01*
X132543153Y-109190666D02*
X132495534Y-109285904D01*
X132495534Y-109285904D02*
X132447914Y-109333523D01*
X141597142Y-119641580D02*
X141549523Y-119689200D01*
X141549523Y-119689200D02*
X141406666Y-119736819D01*
X141406666Y-119736819D02*
X141311428Y-119736819D01*
X141311428Y-119736819D02*
X141168571Y-119689200D01*
X141168571Y-119689200D02*
X141073333Y-119593961D01*
X141073333Y-119593961D02*
X141025714Y-119498723D01*
X141025714Y-119498723D02*
X140978095Y-119308247D01*
X140978095Y-119308247D02*
X140978095Y-119165390D01*
X140978095Y-119165390D02*
X141025714Y-118974914D01*
X141025714Y-118974914D02*
X141073333Y-118879676D01*
X141073333Y-118879676D02*
X141168571Y-118784438D01*
X141168571Y-118784438D02*
X141311428Y-118736819D01*
X141311428Y-118736819D02*
X141406666Y-118736819D01*
X141406666Y-118736819D02*
X141549523Y-118784438D01*
X141549523Y-118784438D02*
X141597142Y-118832057D01*
X142549523Y-119736819D02*
X141978095Y-119736819D01*
X142263809Y-119736819D02*
X142263809Y-118736819D01*
X142263809Y-118736819D02*
X142168571Y-118879676D01*
X142168571Y-118879676D02*
X142073333Y-118974914D01*
X142073333Y-118974914D02*
X141978095Y-119022533D01*
X142882857Y-118736819D02*
X143501904Y-118736819D01*
X143501904Y-118736819D02*
X143168571Y-119117771D01*
X143168571Y-119117771D02*
X143311428Y-119117771D01*
X143311428Y-119117771D02*
X143406666Y-119165390D01*
X143406666Y-119165390D02*
X143454285Y-119213009D01*
X143454285Y-119213009D02*
X143501904Y-119308247D01*
X143501904Y-119308247D02*
X143501904Y-119546342D01*
X143501904Y-119546342D02*
X143454285Y-119641580D01*
X143454285Y-119641580D02*
X143406666Y-119689200D01*
X143406666Y-119689200D02*
X143311428Y-119736819D01*
X143311428Y-119736819D02*
X143025714Y-119736819D01*
X143025714Y-119736819D02*
X142930476Y-119689200D01*
X142930476Y-119689200D02*
X142882857Y-119641580D01*
X152498153Y-110285904D02*
X153307676Y-110285904D01*
X153307676Y-110285904D02*
X153402914Y-110238285D01*
X153402914Y-110238285D02*
X153450534Y-110190666D01*
X153450534Y-110190666D02*
X153498153Y-110095428D01*
X153498153Y-110095428D02*
X153498153Y-109904952D01*
X153498153Y-109904952D02*
X153450534Y-109809714D01*
X153450534Y-109809714D02*
X153402914Y-109762095D01*
X153402914Y-109762095D02*
X153307676Y-109714476D01*
X153307676Y-109714476D02*
X152498153Y-109714476D01*
X152831486Y-108809714D02*
X153498153Y-108809714D01*
X152450534Y-109047809D02*
X153164819Y-109285904D01*
X153164819Y-109285904D02*
X153164819Y-108666857D01*
X124293333Y-97641580D02*
X124245714Y-97689200D01*
X124245714Y-97689200D02*
X124102857Y-97736819D01*
X124102857Y-97736819D02*
X124007619Y-97736819D01*
X124007619Y-97736819D02*
X123864762Y-97689200D01*
X123864762Y-97689200D02*
X123769524Y-97593961D01*
X123769524Y-97593961D02*
X123721905Y-97498723D01*
X123721905Y-97498723D02*
X123674286Y-97308247D01*
X123674286Y-97308247D02*
X123674286Y-97165390D01*
X123674286Y-97165390D02*
X123721905Y-96974914D01*
X123721905Y-96974914D02*
X123769524Y-96879676D01*
X123769524Y-96879676D02*
X123864762Y-96784438D01*
X123864762Y-96784438D02*
X124007619Y-96736819D01*
X124007619Y-96736819D02*
X124102857Y-96736819D01*
X124102857Y-96736819D02*
X124245714Y-96784438D01*
X124245714Y-96784438D02*
X124293333Y-96832057D01*
X124864762Y-97165390D02*
X124769524Y-97117771D01*
X124769524Y-97117771D02*
X124721905Y-97070152D01*
X124721905Y-97070152D02*
X124674286Y-96974914D01*
X124674286Y-96974914D02*
X124674286Y-96927295D01*
X124674286Y-96927295D02*
X124721905Y-96832057D01*
X124721905Y-96832057D02*
X124769524Y-96784438D01*
X124769524Y-96784438D02*
X124864762Y-96736819D01*
X124864762Y-96736819D02*
X125055238Y-96736819D01*
X125055238Y-96736819D02*
X125150476Y-96784438D01*
X125150476Y-96784438D02*
X125198095Y-96832057D01*
X125198095Y-96832057D02*
X125245714Y-96927295D01*
X125245714Y-96927295D02*
X125245714Y-96974914D01*
X125245714Y-96974914D02*
X125198095Y-97070152D01*
X125198095Y-97070152D02*
X125150476Y-97117771D01*
X125150476Y-97117771D02*
X125055238Y-97165390D01*
X125055238Y-97165390D02*
X124864762Y-97165390D01*
X124864762Y-97165390D02*
X124769524Y-97213009D01*
X124769524Y-97213009D02*
X124721905Y-97260628D01*
X124721905Y-97260628D02*
X124674286Y-97355866D01*
X124674286Y-97355866D02*
X124674286Y-97546342D01*
X124674286Y-97546342D02*
X124721905Y-97641580D01*
X124721905Y-97641580D02*
X124769524Y-97689200D01*
X124769524Y-97689200D02*
X124864762Y-97736819D01*
X124864762Y-97736819D02*
X125055238Y-97736819D01*
X125055238Y-97736819D02*
X125150476Y-97689200D01*
X125150476Y-97689200D02*
X125198095Y-97641580D01*
X125198095Y-97641580D02*
X125245714Y-97546342D01*
X125245714Y-97546342D02*
X125245714Y-97355866D01*
X125245714Y-97355866D02*
X125198095Y-97260628D01*
X125198095Y-97260628D02*
X125150476Y-97213009D01*
X125150476Y-97213009D02*
X125055238Y-97165390D01*
X190809580Y-113418857D02*
X190857200Y-113466476D01*
X190857200Y-113466476D02*
X190904819Y-113609333D01*
X190904819Y-113609333D02*
X190904819Y-113704571D01*
X190904819Y-113704571D02*
X190857200Y-113847428D01*
X190857200Y-113847428D02*
X190761961Y-113942666D01*
X190761961Y-113942666D02*
X190666723Y-113990285D01*
X190666723Y-113990285D02*
X190476247Y-114037904D01*
X190476247Y-114037904D02*
X190333390Y-114037904D01*
X190333390Y-114037904D02*
X190142914Y-113990285D01*
X190142914Y-113990285D02*
X190047676Y-113942666D01*
X190047676Y-113942666D02*
X189952438Y-113847428D01*
X189952438Y-113847428D02*
X189904819Y-113704571D01*
X189904819Y-113704571D02*
X189904819Y-113609333D01*
X189904819Y-113609333D02*
X189952438Y-113466476D01*
X189952438Y-113466476D02*
X190000057Y-113418857D01*
X190904819Y-112466476D02*
X190904819Y-113037904D01*
X190904819Y-112752190D02*
X189904819Y-112752190D01*
X189904819Y-112752190D02*
X190047676Y-112847428D01*
X190047676Y-112847428D02*
X190142914Y-112942666D01*
X190142914Y-112942666D02*
X190190533Y-113037904D01*
X189904819Y-111561714D02*
X189904819Y-112037904D01*
X189904819Y-112037904D02*
X190381009Y-112085523D01*
X190381009Y-112085523D02*
X190333390Y-112037904D01*
X190333390Y-112037904D02*
X190285771Y-111942666D01*
X190285771Y-111942666D02*
X190285771Y-111704571D01*
X190285771Y-111704571D02*
X190333390Y-111609333D01*
X190333390Y-111609333D02*
X190381009Y-111561714D01*
X190381009Y-111561714D02*
X190476247Y-111514095D01*
X190476247Y-111514095D02*
X190714342Y-111514095D01*
X190714342Y-111514095D02*
X190809580Y-111561714D01*
X190809580Y-111561714D02*
X190857200Y-111609333D01*
X190857200Y-111609333D02*
X190904819Y-111704571D01*
X190904819Y-111704571D02*
X190904819Y-111942666D01*
X190904819Y-111942666D02*
X190857200Y-112037904D01*
X190857200Y-112037904D02*
X190809580Y-112085523D01*
X121118333Y-79861580D02*
X121070714Y-79909200D01*
X121070714Y-79909200D02*
X120927857Y-79956819D01*
X120927857Y-79956819D02*
X120832619Y-79956819D01*
X120832619Y-79956819D02*
X120689762Y-79909200D01*
X120689762Y-79909200D02*
X120594524Y-79813961D01*
X120594524Y-79813961D02*
X120546905Y-79718723D01*
X120546905Y-79718723D02*
X120499286Y-79528247D01*
X120499286Y-79528247D02*
X120499286Y-79385390D01*
X120499286Y-79385390D02*
X120546905Y-79194914D01*
X120546905Y-79194914D02*
X120594524Y-79099676D01*
X120594524Y-79099676D02*
X120689762Y-79004438D01*
X120689762Y-79004438D02*
X120832619Y-78956819D01*
X120832619Y-78956819D02*
X120927857Y-78956819D01*
X120927857Y-78956819D02*
X121070714Y-79004438D01*
X121070714Y-79004438D02*
X121118333Y-79052057D01*
X121975476Y-78956819D02*
X121785000Y-78956819D01*
X121785000Y-78956819D02*
X121689762Y-79004438D01*
X121689762Y-79004438D02*
X121642143Y-79052057D01*
X121642143Y-79052057D02*
X121546905Y-79194914D01*
X121546905Y-79194914D02*
X121499286Y-79385390D01*
X121499286Y-79385390D02*
X121499286Y-79766342D01*
X121499286Y-79766342D02*
X121546905Y-79861580D01*
X121546905Y-79861580D02*
X121594524Y-79909200D01*
X121594524Y-79909200D02*
X121689762Y-79956819D01*
X121689762Y-79956819D02*
X121880238Y-79956819D01*
X121880238Y-79956819D02*
X121975476Y-79909200D01*
X121975476Y-79909200D02*
X122023095Y-79861580D01*
X122023095Y-79861580D02*
X122070714Y-79766342D01*
X122070714Y-79766342D02*
X122070714Y-79528247D01*
X122070714Y-79528247D02*
X122023095Y-79433009D01*
X122023095Y-79433009D02*
X121975476Y-79385390D01*
X121975476Y-79385390D02*
X121880238Y-79337771D01*
X121880238Y-79337771D02*
X121689762Y-79337771D01*
X121689762Y-79337771D02*
X121594524Y-79385390D01*
X121594524Y-79385390D02*
X121546905Y-79433009D01*
X121546905Y-79433009D02*
X121499286Y-79528247D01*
X171949047Y-57349819D02*
X171615714Y-56873628D01*
X171377619Y-57349819D02*
X171377619Y-56349819D01*
X171377619Y-56349819D02*
X171758571Y-56349819D01*
X171758571Y-56349819D02*
X171853809Y-56397438D01*
X171853809Y-56397438D02*
X171901428Y-56445057D01*
X171901428Y-56445057D02*
X171949047Y-56540295D01*
X171949047Y-56540295D02*
X171949047Y-56683152D01*
X171949047Y-56683152D02*
X171901428Y-56778390D01*
X171901428Y-56778390D02*
X171853809Y-56826009D01*
X171853809Y-56826009D02*
X171758571Y-56873628D01*
X171758571Y-56873628D02*
X171377619Y-56873628D01*
X172806190Y-56349819D02*
X172615714Y-56349819D01*
X172615714Y-56349819D02*
X172520476Y-56397438D01*
X172520476Y-56397438D02*
X172472857Y-56445057D01*
X172472857Y-56445057D02*
X172377619Y-56587914D01*
X172377619Y-56587914D02*
X172330000Y-56778390D01*
X172330000Y-56778390D02*
X172330000Y-57159342D01*
X172330000Y-57159342D02*
X172377619Y-57254580D01*
X172377619Y-57254580D02*
X172425238Y-57302200D01*
X172425238Y-57302200D02*
X172520476Y-57349819D01*
X172520476Y-57349819D02*
X172710952Y-57349819D01*
X172710952Y-57349819D02*
X172806190Y-57302200D01*
X172806190Y-57302200D02*
X172853809Y-57254580D01*
X172853809Y-57254580D02*
X172901428Y-57159342D01*
X172901428Y-57159342D02*
X172901428Y-56921247D01*
X172901428Y-56921247D02*
X172853809Y-56826009D01*
X172853809Y-56826009D02*
X172806190Y-56778390D01*
X172806190Y-56778390D02*
X172710952Y-56730771D01*
X172710952Y-56730771D02*
X172520476Y-56730771D01*
X172520476Y-56730771D02*
X172425238Y-56778390D01*
X172425238Y-56778390D02*
X172377619Y-56826009D01*
X172377619Y-56826009D02*
X172330000Y-56921247D01*
X120647976Y-119641580D02*
X120600357Y-119689200D01*
X120600357Y-119689200D02*
X120457500Y-119736819D01*
X120457500Y-119736819D02*
X120362262Y-119736819D01*
X120362262Y-119736819D02*
X120219405Y-119689200D01*
X120219405Y-119689200D02*
X120124167Y-119593961D01*
X120124167Y-119593961D02*
X120076548Y-119498723D01*
X120076548Y-119498723D02*
X120028929Y-119308247D01*
X120028929Y-119308247D02*
X120028929Y-119165390D01*
X120028929Y-119165390D02*
X120076548Y-118974914D01*
X120076548Y-118974914D02*
X120124167Y-118879676D01*
X120124167Y-118879676D02*
X120219405Y-118784438D01*
X120219405Y-118784438D02*
X120362262Y-118736819D01*
X120362262Y-118736819D02*
X120457500Y-118736819D01*
X120457500Y-118736819D02*
X120600357Y-118784438D01*
X120600357Y-118784438D02*
X120647976Y-118832057D01*
X121600357Y-119736819D02*
X121028929Y-119736819D01*
X121314643Y-119736819D02*
X121314643Y-118736819D01*
X121314643Y-118736819D02*
X121219405Y-118879676D01*
X121219405Y-118879676D02*
X121124167Y-118974914D01*
X121124167Y-118974914D02*
X121028929Y-119022533D01*
X121981310Y-118832057D02*
X122028929Y-118784438D01*
X122028929Y-118784438D02*
X122124167Y-118736819D01*
X122124167Y-118736819D02*
X122362262Y-118736819D01*
X122362262Y-118736819D02*
X122457500Y-118784438D01*
X122457500Y-118784438D02*
X122505119Y-118832057D01*
X122505119Y-118832057D02*
X122552738Y-118927295D01*
X122552738Y-118927295D02*
X122552738Y-119022533D01*
X122552738Y-119022533D02*
X122505119Y-119165390D01*
X122505119Y-119165390D02*
X121933691Y-119736819D01*
X121933691Y-119736819D02*
X122552738Y-119736819D01*
X172051905Y-60849819D02*
X172051905Y-61659342D01*
X172051905Y-61659342D02*
X172099524Y-61754580D01*
X172099524Y-61754580D02*
X172147143Y-61802200D01*
X172147143Y-61802200D02*
X172242381Y-61849819D01*
X172242381Y-61849819D02*
X172432857Y-61849819D01*
X172432857Y-61849819D02*
X172528095Y-61802200D01*
X172528095Y-61802200D02*
X172575714Y-61754580D01*
X172575714Y-61754580D02*
X172623333Y-61659342D01*
X172623333Y-61659342D02*
X172623333Y-60849819D01*
X173623333Y-61849819D02*
X173051905Y-61849819D01*
X173337619Y-61849819D02*
X173337619Y-60849819D01*
X173337619Y-60849819D02*
X173242381Y-60992676D01*
X173242381Y-60992676D02*
X173147143Y-61087914D01*
X173147143Y-61087914D02*
X173051905Y-61135533D01*
X174575714Y-61849819D02*
X174004286Y-61849819D01*
X174290000Y-61849819D02*
X174290000Y-60849819D01*
X174290000Y-60849819D02*
X174194762Y-60992676D01*
X174194762Y-60992676D02*
X174099524Y-61087914D01*
X174099524Y-61087914D02*
X174004286Y-61135533D01*
D14*
%TO.C,J3*%
X100540714Y-85850000D02*
X101920714Y-85850000D01*
X100540714Y-87230000D02*
X100540714Y-85850000D01*
X100540714Y-88500000D02*
X100540714Y-114010000D01*
X100540714Y-88500000D02*
X103190714Y-88500000D01*
X100540714Y-114010000D02*
X105840714Y-114010000D01*
X103190714Y-85850000D02*
X105840714Y-85850000D01*
X103190714Y-88500000D02*
X103190714Y-85850000D01*
X105840714Y-85850000D02*
X105840714Y-114010000D01*
%TO.C,U6*%
X155240000Y-103064000D02*
X155240000Y-115984000D01*
X155240000Y-115984000D02*
X196000000Y-115984000D01*
X196000000Y-103064000D02*
X155240000Y-103064000D01*
X196000000Y-108524000D02*
X196000000Y-103064000D01*
X196000000Y-115984000D02*
X196000000Y-110524000D01*
X196060000Y-100574000D02*
X155180000Y-100574000D01*
X155180000Y-118474000D01*
X196060000Y-118474000D01*
X196060000Y-100574000D01*
X196000000Y-110524000D02*
G75*
G02*
X196000000Y-108524000I0J1000000D01*
G01*
%TO.C,C3*%
X147983752Y-71504500D02*
X147461248Y-71504500D01*
X147983752Y-72974500D02*
X147461248Y-72974500D01*
%TO.C,U2*%
X133568334Y-84014000D02*
X133948334Y-84014000D01*
X133568334Y-89204000D02*
X133568334Y-84014000D01*
X133568334Y-89204000D02*
X133568334Y-94394000D01*
X133568334Y-94394000D02*
X133948334Y-94394000D01*
X152198334Y-84014000D02*
X151818334Y-84014000D01*
X152198334Y-89204000D02*
X152198334Y-84014000D01*
X152198334Y-89204000D02*
X152198334Y-94394000D01*
X152198334Y-94394000D02*
X151818334Y-94394000D01*
X152148334Y-83729000D02*
X151818334Y-83489000D01*
X152148334Y-83249000D01*
X152148334Y-83729000D01*
G36*
X152148334Y-83729000D02*
G01*
X151818334Y-83489000D01*
X152148334Y-83249000D01*
X152148334Y-83729000D01*
G37*
%TO.C,J2*%
X100550714Y-50435500D02*
X136330714Y-50435500D01*
X100550714Y-53085500D02*
X100550714Y-50435500D01*
X100550714Y-55735500D02*
X100550714Y-54355500D01*
X101930714Y-55735500D02*
X100550714Y-55735500D01*
X103200714Y-53085500D02*
X100550714Y-53085500D01*
X103200714Y-55735500D02*
X103200714Y-53085500D01*
X103200714Y-55735500D02*
X136330714Y-55735500D01*
X136330714Y-55735500D02*
X136330714Y-50435500D01*
%TO.C,J1*%
X188110714Y-50425500D02*
X188110714Y-53185500D01*
X195840714Y-50425500D02*
X188110714Y-50425500D01*
X195840714Y-50425500D02*
X195840714Y-53185500D01*
X195840714Y-53185500D02*
X188110714Y-53185500D01*
X197110714Y-50425500D02*
X198490714Y-50425500D01*
X198490714Y-50425500D02*
X198490714Y-51805500D01*
%TO.C,C11*%
X142507086Y-100738000D02*
X141984582Y-100738000D01*
X142507086Y-102208000D02*
X141984582Y-102208000D01*
%TO.C,C1*%
X114963752Y-71401000D02*
X114441248Y-71401000D01*
X114963752Y-72871000D02*
X114441248Y-72871000D01*
%TO.C,D1*%
X187770000Y-57285000D02*
X187770000Y-59555000D01*
X187770000Y-59555000D02*
X191830000Y-59555000D01*
X191830000Y-57285000D02*
X187770000Y-57285000D01*
%TO.C,D5*%
X187770000Y-69985000D02*
X187770000Y-72255000D01*
X187770000Y-72255000D02*
X191830000Y-72255000D01*
X191830000Y-69985000D02*
X187770000Y-69985000D01*
%TO.C,D4*%
X187770000Y-66810000D02*
X187770000Y-69080000D01*
X187770000Y-69080000D02*
X191830000Y-69080000D01*
X191830000Y-66810000D02*
X187770000Y-66810000D01*
%TO.C,U7*%
X102710000Y-60759500D02*
X102945000Y-60759500D01*
X102710000Y-64619500D02*
X102710000Y-60759500D01*
X102710000Y-64619500D02*
X102710000Y-68479500D01*
X102710000Y-68479500D02*
X102945000Y-68479500D01*
X115730000Y-60759500D02*
X115495000Y-60759500D01*
X115730000Y-64619500D02*
X115730000Y-60759500D01*
X115730000Y-64619500D02*
X115730000Y-68479500D01*
X115730000Y-68479500D02*
X115495000Y-68479500D01*
X115965000Y-60247000D02*
X115495000Y-59907000D01*
X115965000Y-59567000D01*
X115965000Y-60247000D01*
G36*
X115965000Y-60247000D02*
G01*
X115495000Y-59907000D01*
X115965000Y-59567000D01*
X115965000Y-60247000D01*
G37*
%TO.C,JP1*%
X184630000Y-76470000D02*
X187430000Y-76470000D01*
X184630000Y-78470000D02*
X184630000Y-76470000D01*
X187430000Y-76470000D02*
X187430000Y-78470000D01*
X187430000Y-78470000D02*
X184630000Y-78470000D01*
%TO.C,U8*%
X119220000Y-60759500D02*
X119455000Y-60759500D01*
X119220000Y-64619500D02*
X119220000Y-60759500D01*
X119220000Y-64619500D02*
X119220000Y-68479500D01*
X119220000Y-68479500D02*
X119455000Y-68479500D01*
X132240000Y-60759500D02*
X132005000Y-60759500D01*
X132240000Y-64619500D02*
X132240000Y-60759500D01*
X132240000Y-64619500D02*
X132240000Y-68479500D01*
X132240000Y-68479500D02*
X132005000Y-68479500D01*
X132475000Y-60247000D02*
X132005000Y-59907000D01*
X132475000Y-59567000D01*
X132475000Y-60247000D01*
G36*
X132475000Y-60247000D02*
G01*
X132005000Y-59907000D01*
X132475000Y-59567000D01*
X132475000Y-60247000D01*
G37*
%TO.C,R3*%
X195717936Y-62765000D02*
X196172064Y-62765000D01*
X195717936Y-64235000D02*
X196172064Y-64235000D01*
%TO.C,U10*%
X162560000Y-62240000D02*
X160610000Y-62240000D01*
X162560000Y-62240000D02*
X164510000Y-62240000D01*
X162560000Y-71110000D02*
X160610000Y-71110000D01*
X162560000Y-71110000D02*
X164510000Y-71110000D01*
X159860000Y-62305000D02*
X159620000Y-61975000D01*
X160100000Y-61975000D01*
X159860000Y-62305000D01*
G36*
X159860000Y-62305000D02*
G01*
X159620000Y-61975000D01*
X160100000Y-61975000D01*
X159860000Y-62305000D01*
G37*
%TO.C,C4*%
X164300000Y-58913752D02*
X164300000Y-58391248D01*
X165770000Y-58913752D02*
X165770000Y-58391248D01*
%TO.C,C10*%
X121546252Y-100738000D02*
X121023748Y-100738000D01*
X121546252Y-102208000D02*
X121023748Y-102208000D01*
%TO.C,R4*%
X195717936Y-65305000D02*
X196172064Y-65305000D01*
X195717936Y-66775000D02*
X196172064Y-66775000D01*
%TO.C,C5*%
X175030000Y-58913752D02*
X175030000Y-58391248D01*
X176500000Y-58913752D02*
X176500000Y-58391248D01*
%TO.C,U9*%
X135730000Y-60759500D02*
X135965000Y-60759500D01*
X135730000Y-64619500D02*
X135730000Y-60759500D01*
X135730000Y-64619500D02*
X135730000Y-68479500D01*
X135730000Y-68479500D02*
X135965000Y-68479500D01*
X148750000Y-60759500D02*
X148515000Y-60759500D01*
X148750000Y-64619500D02*
X148750000Y-60759500D01*
X148750000Y-64619500D02*
X148750000Y-68479500D01*
X148750000Y-68479500D02*
X148515000Y-68479500D01*
X148985000Y-60247000D02*
X148515000Y-59907000D01*
X148985000Y-59567000D01*
X148985000Y-60247000D01*
G36*
X148985000Y-60247000D02*
G01*
X148515000Y-59907000D01*
X148985000Y-59567000D01*
X148985000Y-60247000D01*
G37*
%TO.C,U5*%
X155240000Y-82744000D02*
X155240000Y-95664000D01*
X155240000Y-95664000D02*
X196000000Y-95664000D01*
X196000000Y-82744000D02*
X155240000Y-82744000D01*
X196000000Y-88204000D02*
X196000000Y-82744000D01*
X196000000Y-95664000D02*
X196000000Y-90204000D01*
X196060000Y-80254000D02*
X155180000Y-80254000D01*
X155180000Y-98154000D01*
X196060000Y-98154000D01*
X196060000Y-80254000D01*
X196000000Y-90204000D02*
G75*
G02*
X196000000Y-88204000I0J1000000D01*
G01*
%TO.C,C2*%
X131473752Y-71504500D02*
X130951248Y-71504500D01*
X131473752Y-72974500D02*
X130951248Y-72974500D01*
%TO.C,J5*%
X183030714Y-123375500D02*
X183030714Y-121995500D01*
X184410714Y-123375500D02*
X183030714Y-123375500D01*
X185680714Y-120615500D02*
X198490714Y-120615500D01*
X185680714Y-123375500D02*
X185680714Y-120615500D01*
X185680714Y-123375500D02*
X198490714Y-123375500D01*
X198490714Y-123375500D02*
X198490714Y-120615500D01*
%TO.C,J4*%
X149415714Y-50425500D02*
X149415714Y-53185500D01*
X172385714Y-50425500D02*
X149415714Y-50425500D01*
X172385714Y-50425500D02*
X172385714Y-53185500D01*
X172385714Y-53185500D02*
X149415714Y-53185500D01*
X173655714Y-50425500D02*
X175035714Y-50425500D01*
X175035714Y-50425500D02*
X175035714Y-51805500D01*
%TO.C,U1*%
X112613334Y-84014000D02*
X112993334Y-84014000D01*
X112613334Y-89204000D02*
X112613334Y-84014000D01*
X112613334Y-89204000D02*
X112613334Y-94394000D01*
X112613334Y-94394000D02*
X112993334Y-94394000D01*
X131243334Y-84014000D02*
X130863334Y-84014000D01*
X131243334Y-89204000D02*
X131243334Y-84014000D01*
X131243334Y-89204000D02*
X131243334Y-94394000D01*
X131243334Y-94394000D02*
X130863334Y-94394000D01*
X131193334Y-83729000D02*
X130863334Y-83489000D01*
X131193334Y-83249000D01*
X131193334Y-83729000D01*
G36*
X131193334Y-83729000D02*
G01*
X130863334Y-83489000D01*
X131193334Y-83249000D01*
X131193334Y-83729000D01*
G37*
%TO.C,D2*%
X187770000Y-60460000D02*
X187770000Y-62730000D01*
X187770000Y-62730000D02*
X191830000Y-62730000D01*
X191830000Y-60460000D02*
X187770000Y-60460000D01*
%TO.C,R5*%
X195717936Y-67845000D02*
X196172064Y-67845000D01*
X195717936Y-69315000D02*
X196172064Y-69315000D01*
%TO.C,C9*%
X142507086Y-96547000D02*
X141984582Y-96547000D01*
X142507086Y-98017000D02*
X141984582Y-98017000D01*
%TO.C,C7*%
X142501252Y-80418000D02*
X141978748Y-80418000D01*
X142501252Y-81888000D02*
X141978748Y-81888000D01*
%TO.C,C14*%
X191395000Y-92717252D02*
X191395000Y-92194748D01*
X192865000Y-92717252D02*
X192865000Y-92194748D01*
%TO.C,U3*%
X112613334Y-104334000D02*
X112993334Y-104334000D01*
X112613334Y-109524000D02*
X112613334Y-104334000D01*
X112613334Y-109524000D02*
X112613334Y-114714000D01*
X112613334Y-114714000D02*
X112993334Y-114714000D01*
X131243334Y-104334000D02*
X130863334Y-104334000D01*
X131243334Y-109524000D02*
X131243334Y-104334000D01*
X131243334Y-109524000D02*
X131243334Y-114714000D01*
X131243334Y-114714000D02*
X130863334Y-114714000D01*
X131193334Y-104049000D02*
X130863334Y-103809000D01*
X131193334Y-103569000D01*
X131193334Y-104049000D01*
G36*
X131193334Y-104049000D02*
G01*
X130863334Y-103809000D01*
X131193334Y-103569000D01*
X131193334Y-104049000D01*
G37*
%TO.C,C13*%
X142501252Y-116867000D02*
X141978748Y-116867000D01*
X142501252Y-118337000D02*
X141978748Y-118337000D01*
%TO.C,D3*%
X187770000Y-63635000D02*
X187770000Y-65905000D01*
X187770000Y-65905000D02*
X191830000Y-65905000D01*
X191830000Y-63635000D02*
X187770000Y-63635000D01*
%TO.C,U4*%
X133568334Y-104334000D02*
X133948334Y-104334000D01*
X133568334Y-109524000D02*
X133568334Y-104334000D01*
X133568334Y-109524000D02*
X133568334Y-114714000D01*
X133568334Y-114714000D02*
X133948334Y-114714000D01*
X152198334Y-104334000D02*
X151818334Y-104334000D01*
X152198334Y-109524000D02*
X152198334Y-104334000D01*
X152198334Y-109524000D02*
X152198334Y-114714000D01*
X152198334Y-114714000D02*
X151818334Y-114714000D01*
X152148334Y-104049000D02*
X151818334Y-103809000D01*
X152148334Y-103569000D01*
X152148334Y-104049000D01*
G36*
X152148334Y-104049000D02*
G01*
X151818334Y-103809000D01*
X152148334Y-103569000D01*
X152148334Y-104049000D01*
G37*
%TO.C,C8*%
X121546252Y-96547000D02*
X121023748Y-96547000D01*
X121546252Y-98017000D02*
X121023748Y-98017000D01*
%TO.C,C15*%
X191395000Y-113037252D02*
X191395000Y-112514748D01*
X192865000Y-113037252D02*
X192865000Y-112514748D01*
%TO.C,R2*%
X195717936Y-60131000D02*
X196172064Y-60131000D01*
X195717936Y-61601000D02*
X196172064Y-61601000D01*
%TO.C,C6*%
X121546252Y-80418000D02*
X121023748Y-80418000D01*
X121546252Y-81888000D02*
X121023748Y-81888000D01*
%TO.C,R6*%
X172342778Y-54510000D02*
X171888650Y-54510000D01*
X172342778Y-55980000D02*
X171888650Y-55980000D01*
%TO.C,C12*%
X121552086Y-116867000D02*
X121029582Y-116867000D01*
X121552086Y-118337000D02*
X121029582Y-118337000D01*
%TO.C,U11*%
X173290000Y-62240000D02*
X171340000Y-62240000D01*
X173290000Y-62240000D02*
X175240000Y-62240000D01*
X173290000Y-71110000D02*
X171340000Y-71110000D01*
X173290000Y-71110000D02*
X175240000Y-71110000D01*
X170590000Y-62305000D02*
X170350000Y-61975000D01*
X170830000Y-61975000D01*
X170590000Y-62305000D01*
G36*
X170590000Y-62305000D02*
G01*
X170350000Y-61975000D01*
X170830000Y-61975000D01*
X170590000Y-62305000D01*
G37*
%TO.C,R1*%
X195717936Y-57685000D02*
X196172064Y-57685000D01*
X195717936Y-59155000D02*
X196172064Y-59155000D01*
%TD*%
M02*
