%TF.GenerationSoftware,KiCad,Pcbnew,9.0.4*%
%TF.CreationDate,2026-03-06T19:45:06+01:00*%
%TF.ProjectId,memory,6d656d6f-7279-42e6-9b69-6361645f7063,rev?*%
%TF.SameCoordinates,Original*%
%TF.FileFunction,Legend,Bot*%
%TF.FilePolarity,Positive*%
%FSLAX46Y46*%
G04 Gerber Fmt 4.6, Leading zero omitted, Abs format (unit mm)*
G04 Created by KiCad (PCBNEW 9.0.4) date 2026-03-06 19:45:06*
%MOMM*%
%LPD*%
G01*
G04 APERTURE LIST*
%ADD10C,0.200000*%
%ADD11C,0.160000*%
%ADD12C,0.000000*%
G04 APERTURE END LIST*
D10*
X137416875Y-114891650D02*
X137274018Y-114939269D01*
X137274018Y-114939269D02*
X137035923Y-114939269D01*
X137035923Y-114939269D02*
X136940685Y-114891650D01*
X136940685Y-114891650D02*
X136893066Y-114844030D01*
X136893066Y-114844030D02*
X136845447Y-114748792D01*
X136845447Y-114748792D02*
X136845447Y-114653554D01*
X136845447Y-114653554D02*
X136893066Y-114558316D01*
X136893066Y-114558316D02*
X136940685Y-114510697D01*
X136940685Y-114510697D02*
X137035923Y-114463078D01*
X137035923Y-114463078D02*
X137226399Y-114415459D01*
X137226399Y-114415459D02*
X137321637Y-114367840D01*
X137321637Y-114367840D02*
X137369256Y-114320221D01*
X137369256Y-114320221D02*
X137416875Y-114224983D01*
X137416875Y-114224983D02*
X137416875Y-114129745D01*
X137416875Y-114129745D02*
X137369256Y-114034507D01*
X137369256Y-114034507D02*
X137321637Y-113986888D01*
X137321637Y-113986888D02*
X137226399Y-113939269D01*
X137226399Y-113939269D02*
X136988304Y-113939269D01*
X136988304Y-113939269D02*
X136845447Y-113986888D01*
X136416875Y-114272602D02*
X136416875Y-115272602D01*
X136416875Y-114320221D02*
X136321637Y-114272602D01*
X136321637Y-114272602D02*
X136131161Y-114272602D01*
X136131161Y-114272602D02*
X136035923Y-114320221D01*
X136035923Y-114320221D02*
X135988304Y-114367840D01*
X135988304Y-114367840D02*
X135940685Y-114463078D01*
X135940685Y-114463078D02*
X135940685Y-114748792D01*
X135940685Y-114748792D02*
X135988304Y-114844030D01*
X135988304Y-114844030D02*
X136035923Y-114891650D01*
X136035923Y-114891650D02*
X136131161Y-114939269D01*
X136131161Y-114939269D02*
X136321637Y-114939269D01*
X136321637Y-114939269D02*
X136416875Y-114891650D01*
X135131161Y-114891650D02*
X135226399Y-114939269D01*
X135226399Y-114939269D02*
X135416875Y-114939269D01*
X135416875Y-114939269D02*
X135512113Y-114891650D01*
X135512113Y-114891650D02*
X135559732Y-114796411D01*
X135559732Y-114796411D02*
X135559732Y-114415459D01*
X135559732Y-114415459D02*
X135512113Y-114320221D01*
X135512113Y-114320221D02*
X135416875Y-114272602D01*
X135416875Y-114272602D02*
X135226399Y-114272602D01*
X135226399Y-114272602D02*
X135131161Y-114320221D01*
X135131161Y-114320221D02*
X135083542Y-114415459D01*
X135083542Y-114415459D02*
X135083542Y-114510697D01*
X135083542Y-114510697D02*
X135559732Y-114605935D01*
X134226399Y-114891650D02*
X134321637Y-114939269D01*
X134321637Y-114939269D02*
X134512113Y-114939269D01*
X134512113Y-114939269D02*
X134607351Y-114891650D01*
X134607351Y-114891650D02*
X134654970Y-114844030D01*
X134654970Y-114844030D02*
X134702589Y-114748792D01*
X134702589Y-114748792D02*
X134702589Y-114463078D01*
X134702589Y-114463078D02*
X134654970Y-114367840D01*
X134654970Y-114367840D02*
X134607351Y-114320221D01*
X134607351Y-114320221D02*
X134512113Y-114272602D01*
X134512113Y-114272602D02*
X134321637Y-114272602D01*
X134321637Y-114272602D02*
X134226399Y-114320221D01*
X133797827Y-114939269D02*
X133797827Y-114272602D01*
X133797827Y-113939269D02*
X133845446Y-113986888D01*
X133845446Y-113986888D02*
X133797827Y-114034507D01*
X133797827Y-114034507D02*
X133750208Y-113986888D01*
X133750208Y-113986888D02*
X133797827Y-113939269D01*
X133797827Y-113939269D02*
X133797827Y-114034507D01*
X132893066Y-114939269D02*
X132893066Y-114415459D01*
X132893066Y-114415459D02*
X132940685Y-114320221D01*
X132940685Y-114320221D02*
X133035923Y-114272602D01*
X133035923Y-114272602D02*
X133226399Y-114272602D01*
X133226399Y-114272602D02*
X133321637Y-114320221D01*
X132893066Y-114891650D02*
X132988304Y-114939269D01*
X132988304Y-114939269D02*
X133226399Y-114939269D01*
X133226399Y-114939269D02*
X133321637Y-114891650D01*
X133321637Y-114891650D02*
X133369256Y-114796411D01*
X133369256Y-114796411D02*
X133369256Y-114701173D01*
X133369256Y-114701173D02*
X133321637Y-114605935D01*
X133321637Y-114605935D02*
X133226399Y-114558316D01*
X133226399Y-114558316D02*
X132988304Y-114558316D01*
X132988304Y-114558316D02*
X132893066Y-114510697D01*
X132274018Y-114939269D02*
X132369256Y-114891650D01*
X132369256Y-114891650D02*
X132416875Y-114796411D01*
X132416875Y-114796411D02*
X132416875Y-113939269D01*
X131274017Y-114272602D02*
X130893065Y-114272602D01*
X131131160Y-113939269D02*
X131131160Y-114796411D01*
X131131160Y-114796411D02*
X131083541Y-114891650D01*
X131083541Y-114891650D02*
X130988303Y-114939269D01*
X130988303Y-114939269D02*
X130893065Y-114939269D01*
X130559731Y-114939269D02*
X130559731Y-113939269D01*
X130131160Y-114939269D02*
X130131160Y-114415459D01*
X130131160Y-114415459D02*
X130178779Y-114320221D01*
X130178779Y-114320221D02*
X130274017Y-114272602D01*
X130274017Y-114272602D02*
X130416874Y-114272602D01*
X130416874Y-114272602D02*
X130512112Y-114320221D01*
X130512112Y-114320221D02*
X130559731Y-114367840D01*
X129226398Y-114939269D02*
X129226398Y-114415459D01*
X129226398Y-114415459D02*
X129274017Y-114320221D01*
X129274017Y-114320221D02*
X129369255Y-114272602D01*
X129369255Y-114272602D02*
X129559731Y-114272602D01*
X129559731Y-114272602D02*
X129654969Y-114320221D01*
X129226398Y-114891650D02*
X129321636Y-114939269D01*
X129321636Y-114939269D02*
X129559731Y-114939269D01*
X129559731Y-114939269D02*
X129654969Y-114891650D01*
X129654969Y-114891650D02*
X129702588Y-114796411D01*
X129702588Y-114796411D02*
X129702588Y-114701173D01*
X129702588Y-114701173D02*
X129654969Y-114605935D01*
X129654969Y-114605935D02*
X129559731Y-114558316D01*
X129559731Y-114558316D02*
X129321636Y-114558316D01*
X129321636Y-114558316D02*
X129226398Y-114510697D01*
X128750207Y-114272602D02*
X128750207Y-114939269D01*
X128750207Y-114367840D02*
X128702588Y-114320221D01*
X128702588Y-114320221D02*
X128607350Y-114272602D01*
X128607350Y-114272602D02*
X128464493Y-114272602D01*
X128464493Y-114272602D02*
X128369255Y-114320221D01*
X128369255Y-114320221D02*
X128321636Y-114415459D01*
X128321636Y-114415459D02*
X128321636Y-114939269D01*
X127845445Y-114939269D02*
X127845445Y-113939269D01*
X127750207Y-114558316D02*
X127464493Y-114939269D01*
X127464493Y-114272602D02*
X127845445Y-114653554D01*
X127083540Y-114891650D02*
X126988302Y-114939269D01*
X126988302Y-114939269D02*
X126797826Y-114939269D01*
X126797826Y-114939269D02*
X126702588Y-114891650D01*
X126702588Y-114891650D02*
X126654969Y-114796411D01*
X126654969Y-114796411D02*
X126654969Y-114748792D01*
X126654969Y-114748792D02*
X126702588Y-114653554D01*
X126702588Y-114653554D02*
X126797826Y-114605935D01*
X126797826Y-114605935D02*
X126940683Y-114605935D01*
X126940683Y-114605935D02*
X127035921Y-114558316D01*
X127035921Y-114558316D02*
X127083540Y-114463078D01*
X127083540Y-114463078D02*
X127083540Y-114415459D01*
X127083540Y-114415459D02*
X127035921Y-114320221D01*
X127035921Y-114320221D02*
X126940683Y-114272602D01*
X126940683Y-114272602D02*
X126797826Y-114272602D01*
X126797826Y-114272602D02*
X126702588Y-114320221D01*
X125607349Y-114272602D02*
X125226397Y-114272602D01*
X125464492Y-113939269D02*
X125464492Y-114796411D01*
X125464492Y-114796411D02*
X125416873Y-114891650D01*
X125416873Y-114891650D02*
X125321635Y-114939269D01*
X125321635Y-114939269D02*
X125226397Y-114939269D01*
X124750206Y-114939269D02*
X124845444Y-114891650D01*
X124845444Y-114891650D02*
X124893063Y-114844030D01*
X124893063Y-114844030D02*
X124940682Y-114748792D01*
X124940682Y-114748792D02*
X124940682Y-114463078D01*
X124940682Y-114463078D02*
X124893063Y-114367840D01*
X124893063Y-114367840D02*
X124845444Y-114320221D01*
X124845444Y-114320221D02*
X124750206Y-114272602D01*
X124750206Y-114272602D02*
X124607349Y-114272602D01*
X124607349Y-114272602D02*
X124512111Y-114320221D01*
X124512111Y-114320221D02*
X124464492Y-114367840D01*
X124464492Y-114367840D02*
X124416873Y-114463078D01*
X124416873Y-114463078D02*
X124416873Y-114748792D01*
X124416873Y-114748792D02*
X124464492Y-114844030D01*
X124464492Y-114844030D02*
X124512111Y-114891650D01*
X124512111Y-114891650D02*
X124607349Y-114939269D01*
X124607349Y-114939269D02*
X124750206Y-114939269D01*
X123988301Y-114844030D02*
X123940682Y-114891650D01*
X123940682Y-114891650D02*
X123988301Y-114939269D01*
X123988301Y-114939269D02*
X124035920Y-114891650D01*
X124035920Y-114891650D02*
X123988301Y-114844030D01*
X123988301Y-114844030D02*
X123988301Y-114939269D01*
X123988301Y-114320221D02*
X123940682Y-114367840D01*
X123940682Y-114367840D02*
X123988301Y-114415459D01*
X123988301Y-114415459D02*
X124035920Y-114367840D01*
X124035920Y-114367840D02*
X123988301Y-114320221D01*
X123988301Y-114320221D02*
X123988301Y-114415459D01*
D11*
X177551879Y-121478999D02*
X177313784Y-122478999D01*
X177313784Y-122478999D02*
X177123308Y-121764713D01*
X177123308Y-121764713D02*
X176932832Y-122478999D01*
X176932832Y-122478999D02*
X176694737Y-121478999D01*
X175885213Y-122478999D02*
X175885213Y-121955189D01*
X175885213Y-121955189D02*
X175932832Y-121859951D01*
X175932832Y-121859951D02*
X176028070Y-121812332D01*
X176028070Y-121812332D02*
X176218546Y-121812332D01*
X176218546Y-121812332D02*
X176313784Y-121859951D01*
X175885213Y-122431380D02*
X175980451Y-122478999D01*
X175980451Y-122478999D02*
X176218546Y-122478999D01*
X176218546Y-122478999D02*
X176313784Y-122431380D01*
X176313784Y-122431380D02*
X176361403Y-122336141D01*
X176361403Y-122336141D02*
X176361403Y-122240903D01*
X176361403Y-122240903D02*
X176313784Y-122145665D01*
X176313784Y-122145665D02*
X176218546Y-122098046D01*
X176218546Y-122098046D02*
X175980451Y-122098046D01*
X175980451Y-122098046D02*
X175885213Y-122050427D01*
X175504260Y-121812332D02*
X175266165Y-122478999D01*
X175028070Y-121812332D02*
X175266165Y-122478999D01*
X175266165Y-122478999D02*
X175361403Y-122717094D01*
X175361403Y-122717094D02*
X175409022Y-122764713D01*
X175409022Y-122764713D02*
X175504260Y-122812332D01*
X174742355Y-121478999D02*
X174504260Y-122478999D01*
X174504260Y-122478999D02*
X174313784Y-121764713D01*
X174313784Y-121764713D02*
X174123308Y-122478999D01*
X174123308Y-122478999D02*
X173885213Y-121478999D01*
X173075689Y-122478999D02*
X173075689Y-121955189D01*
X173075689Y-121955189D02*
X173123308Y-121859951D01*
X173123308Y-121859951D02*
X173218546Y-121812332D01*
X173218546Y-121812332D02*
X173409022Y-121812332D01*
X173409022Y-121812332D02*
X173504260Y-121859951D01*
X173075689Y-122431380D02*
X173170927Y-122478999D01*
X173170927Y-122478999D02*
X173409022Y-122478999D01*
X173409022Y-122478999D02*
X173504260Y-122431380D01*
X173504260Y-122431380D02*
X173551879Y-122336141D01*
X173551879Y-122336141D02*
X173551879Y-122240903D01*
X173551879Y-122240903D02*
X173504260Y-122145665D01*
X173504260Y-122145665D02*
X173409022Y-122098046D01*
X173409022Y-122098046D02*
X173170927Y-122098046D01*
X173170927Y-122098046D02*
X173075689Y-122050427D01*
X172694736Y-121812332D02*
X172456641Y-122478999D01*
X172218546Y-121812332D02*
X172456641Y-122478999D01*
X172456641Y-122478999D02*
X172551879Y-122717094D01*
X172551879Y-122717094D02*
X172599498Y-122764713D01*
X172599498Y-122764713D02*
X172694736Y-122812332D01*
X171932831Y-121478999D02*
X171694736Y-122478999D01*
X171694736Y-122478999D02*
X171504260Y-121764713D01*
X171504260Y-121764713D02*
X171313784Y-122478999D01*
X171313784Y-122478999D02*
X171075689Y-121478999D01*
X170266165Y-122478999D02*
X170266165Y-121955189D01*
X170266165Y-121955189D02*
X170313784Y-121859951D01*
X170313784Y-121859951D02*
X170409022Y-121812332D01*
X170409022Y-121812332D02*
X170599498Y-121812332D01*
X170599498Y-121812332D02*
X170694736Y-121859951D01*
X170266165Y-122431380D02*
X170361403Y-122478999D01*
X170361403Y-122478999D02*
X170599498Y-122478999D01*
X170599498Y-122478999D02*
X170694736Y-122431380D01*
X170694736Y-122431380D02*
X170742355Y-122336141D01*
X170742355Y-122336141D02*
X170742355Y-122240903D01*
X170742355Y-122240903D02*
X170694736Y-122145665D01*
X170694736Y-122145665D02*
X170599498Y-122098046D01*
X170599498Y-122098046D02*
X170361403Y-122098046D01*
X170361403Y-122098046D02*
X170266165Y-122050427D01*
X169885212Y-121812332D02*
X169647117Y-122478999D01*
X169409022Y-121812332D02*
X169647117Y-122478999D01*
X169647117Y-122478999D02*
X169742355Y-122717094D01*
X169742355Y-122717094D02*
X169789974Y-122764713D01*
X169789974Y-122764713D02*
X169885212Y-122812332D01*
D10*
X193899579Y-67867219D02*
X193899579Y-66867219D01*
X193471008Y-67867219D02*
X193471008Y-67343409D01*
X193471008Y-67343409D02*
X193518627Y-67248171D01*
X193518627Y-67248171D02*
X193613865Y-67200552D01*
X193613865Y-67200552D02*
X193756722Y-67200552D01*
X193756722Y-67200552D02*
X193851960Y-67248171D01*
X193851960Y-67248171D02*
X193899579Y-67295790D01*
X193137674Y-67200552D02*
X192756722Y-67200552D01*
X192994817Y-66867219D02*
X192994817Y-67724361D01*
X192994817Y-67724361D02*
X192947198Y-67819600D01*
X192947198Y-67819600D02*
X192851960Y-67867219D01*
X192851960Y-67867219D02*
X192756722Y-67867219D01*
X192566245Y-67200552D02*
X192185293Y-67200552D01*
X192423388Y-66867219D02*
X192423388Y-67724361D01*
X192423388Y-67724361D02*
X192375769Y-67819600D01*
X192375769Y-67819600D02*
X192280531Y-67867219D01*
X192280531Y-67867219D02*
X192185293Y-67867219D01*
X191851959Y-67200552D02*
X191851959Y-68200552D01*
X191851959Y-67248171D02*
X191756721Y-67200552D01*
X191756721Y-67200552D02*
X191566245Y-67200552D01*
X191566245Y-67200552D02*
X191471007Y-67248171D01*
X191471007Y-67248171D02*
X191423388Y-67295790D01*
X191423388Y-67295790D02*
X191375769Y-67391028D01*
X191375769Y-67391028D02*
X191375769Y-67676742D01*
X191375769Y-67676742D02*
X191423388Y-67771980D01*
X191423388Y-67771980D02*
X191471007Y-67819600D01*
X191471007Y-67819600D02*
X191566245Y-67867219D01*
X191566245Y-67867219D02*
X191756721Y-67867219D01*
X191756721Y-67867219D02*
X191851959Y-67819600D01*
X190994816Y-67819600D02*
X190899578Y-67867219D01*
X190899578Y-67867219D02*
X190709102Y-67867219D01*
X190709102Y-67867219D02*
X190613864Y-67819600D01*
X190613864Y-67819600D02*
X190566245Y-67724361D01*
X190566245Y-67724361D02*
X190566245Y-67676742D01*
X190566245Y-67676742D02*
X190613864Y-67581504D01*
X190613864Y-67581504D02*
X190709102Y-67533885D01*
X190709102Y-67533885D02*
X190851959Y-67533885D01*
X190851959Y-67533885D02*
X190947197Y-67486266D01*
X190947197Y-67486266D02*
X190994816Y-67391028D01*
X190994816Y-67391028D02*
X190994816Y-67343409D01*
X190994816Y-67343409D02*
X190947197Y-67248171D01*
X190947197Y-67248171D02*
X190851959Y-67200552D01*
X190851959Y-67200552D02*
X190709102Y-67200552D01*
X190709102Y-67200552D02*
X190613864Y-67248171D01*
X190137673Y-67771980D02*
X190090054Y-67819600D01*
X190090054Y-67819600D02*
X190137673Y-67867219D01*
X190137673Y-67867219D02*
X190185292Y-67819600D01*
X190185292Y-67819600D02*
X190137673Y-67771980D01*
X190137673Y-67771980D02*
X190137673Y-67867219D01*
X190137673Y-67248171D02*
X190090054Y-67295790D01*
X190090054Y-67295790D02*
X190137673Y-67343409D01*
X190137673Y-67343409D02*
X190185292Y-67295790D01*
X190185292Y-67295790D02*
X190137673Y-67248171D01*
X190137673Y-67248171D02*
X190137673Y-67343409D01*
X188947198Y-66819600D02*
X189804340Y-68105314D01*
X187899579Y-66819600D02*
X188756721Y-68105314D01*
X187137674Y-67200552D02*
X187137674Y-68010076D01*
X187137674Y-68010076D02*
X187185293Y-68105314D01*
X187185293Y-68105314D02*
X187232912Y-68152933D01*
X187232912Y-68152933D02*
X187328150Y-68200552D01*
X187328150Y-68200552D02*
X187471007Y-68200552D01*
X187471007Y-68200552D02*
X187566245Y-68152933D01*
X187137674Y-67819600D02*
X187232912Y-67867219D01*
X187232912Y-67867219D02*
X187423388Y-67867219D01*
X187423388Y-67867219D02*
X187518626Y-67819600D01*
X187518626Y-67819600D02*
X187566245Y-67771980D01*
X187566245Y-67771980D02*
X187613864Y-67676742D01*
X187613864Y-67676742D02*
X187613864Y-67391028D01*
X187613864Y-67391028D02*
X187566245Y-67295790D01*
X187566245Y-67295790D02*
X187518626Y-67248171D01*
X187518626Y-67248171D02*
X187423388Y-67200552D01*
X187423388Y-67200552D02*
X187232912Y-67200552D01*
X187232912Y-67200552D02*
X187137674Y-67248171D01*
X186661483Y-67867219D02*
X186661483Y-67200552D01*
X186661483Y-66867219D02*
X186709102Y-66914838D01*
X186709102Y-66914838D02*
X186661483Y-66962457D01*
X186661483Y-66962457D02*
X186613864Y-66914838D01*
X186613864Y-66914838D02*
X186661483Y-66867219D01*
X186661483Y-66867219D02*
X186661483Y-66962457D01*
X186328150Y-67200552D02*
X185947198Y-67200552D01*
X186185293Y-66867219D02*
X186185293Y-67724361D01*
X186185293Y-67724361D02*
X186137674Y-67819600D01*
X186137674Y-67819600D02*
X186042436Y-67867219D01*
X186042436Y-67867219D02*
X185947198Y-67867219D01*
X185613864Y-67867219D02*
X185613864Y-66867219D01*
X185185293Y-67867219D02*
X185185293Y-67343409D01*
X185185293Y-67343409D02*
X185232912Y-67248171D01*
X185232912Y-67248171D02*
X185328150Y-67200552D01*
X185328150Y-67200552D02*
X185471007Y-67200552D01*
X185471007Y-67200552D02*
X185566245Y-67248171D01*
X185566245Y-67248171D02*
X185613864Y-67295790D01*
X184280531Y-67200552D02*
X184280531Y-67867219D01*
X184709102Y-67200552D02*
X184709102Y-67724361D01*
X184709102Y-67724361D02*
X184661483Y-67819600D01*
X184661483Y-67819600D02*
X184566245Y-67867219D01*
X184566245Y-67867219D02*
X184423388Y-67867219D01*
X184423388Y-67867219D02*
X184328150Y-67819600D01*
X184328150Y-67819600D02*
X184280531Y-67771980D01*
X183804340Y-67867219D02*
X183804340Y-66867219D01*
X183804340Y-67248171D02*
X183709102Y-67200552D01*
X183709102Y-67200552D02*
X183518626Y-67200552D01*
X183518626Y-67200552D02*
X183423388Y-67248171D01*
X183423388Y-67248171D02*
X183375769Y-67295790D01*
X183375769Y-67295790D02*
X183328150Y-67391028D01*
X183328150Y-67391028D02*
X183328150Y-67676742D01*
X183328150Y-67676742D02*
X183375769Y-67771980D01*
X183375769Y-67771980D02*
X183423388Y-67819600D01*
X183423388Y-67819600D02*
X183518626Y-67867219D01*
X183518626Y-67867219D02*
X183709102Y-67867219D01*
X183709102Y-67867219D02*
X183804340Y-67819600D01*
X182899578Y-67771980D02*
X182851959Y-67819600D01*
X182851959Y-67819600D02*
X182899578Y-67867219D01*
X182899578Y-67867219D02*
X182947197Y-67819600D01*
X182947197Y-67819600D02*
X182899578Y-67771980D01*
X182899578Y-67771980D02*
X182899578Y-67867219D01*
X181994817Y-67819600D02*
X182090055Y-67867219D01*
X182090055Y-67867219D02*
X182280531Y-67867219D01*
X182280531Y-67867219D02*
X182375769Y-67819600D01*
X182375769Y-67819600D02*
X182423388Y-67771980D01*
X182423388Y-67771980D02*
X182471007Y-67676742D01*
X182471007Y-67676742D02*
X182471007Y-67391028D01*
X182471007Y-67391028D02*
X182423388Y-67295790D01*
X182423388Y-67295790D02*
X182375769Y-67248171D01*
X182375769Y-67248171D02*
X182280531Y-67200552D01*
X182280531Y-67200552D02*
X182090055Y-67200552D01*
X182090055Y-67200552D02*
X181994817Y-67248171D01*
X181423388Y-67867219D02*
X181518626Y-67819600D01*
X181518626Y-67819600D02*
X181566245Y-67771980D01*
X181566245Y-67771980D02*
X181613864Y-67676742D01*
X181613864Y-67676742D02*
X181613864Y-67391028D01*
X181613864Y-67391028D02*
X181566245Y-67295790D01*
X181566245Y-67295790D02*
X181518626Y-67248171D01*
X181518626Y-67248171D02*
X181423388Y-67200552D01*
X181423388Y-67200552D02*
X181280531Y-67200552D01*
X181280531Y-67200552D02*
X181185293Y-67248171D01*
X181185293Y-67248171D02*
X181137674Y-67295790D01*
X181137674Y-67295790D02*
X181090055Y-67391028D01*
X181090055Y-67391028D02*
X181090055Y-67676742D01*
X181090055Y-67676742D02*
X181137674Y-67771980D01*
X181137674Y-67771980D02*
X181185293Y-67819600D01*
X181185293Y-67819600D02*
X181280531Y-67867219D01*
X181280531Y-67867219D02*
X181423388Y-67867219D01*
X180661483Y-67867219D02*
X180661483Y-67200552D01*
X180661483Y-67295790D02*
X180613864Y-67248171D01*
X180613864Y-67248171D02*
X180518626Y-67200552D01*
X180518626Y-67200552D02*
X180375769Y-67200552D01*
X180375769Y-67200552D02*
X180280531Y-67248171D01*
X180280531Y-67248171D02*
X180232912Y-67343409D01*
X180232912Y-67343409D02*
X180232912Y-67867219D01*
X180232912Y-67343409D02*
X180185293Y-67248171D01*
X180185293Y-67248171D02*
X180090055Y-67200552D01*
X180090055Y-67200552D02*
X179947198Y-67200552D01*
X179947198Y-67200552D02*
X179851959Y-67248171D01*
X179851959Y-67248171D02*
X179804340Y-67343409D01*
X179804340Y-67343409D02*
X179804340Y-67867219D01*
X178613865Y-66819600D02*
X179471007Y-68105314D01*
X177994817Y-66867219D02*
X177994817Y-67581504D01*
X177994817Y-67581504D02*
X178042436Y-67724361D01*
X178042436Y-67724361D02*
X178137674Y-67819600D01*
X178137674Y-67819600D02*
X178280531Y-67867219D01*
X178280531Y-67867219D02*
X178375769Y-67867219D01*
X177661483Y-66867219D02*
X177328150Y-67867219D01*
X177328150Y-67867219D02*
X176994817Y-66867219D01*
X176090055Y-67867219D02*
X176423388Y-67391028D01*
X176661483Y-67867219D02*
X176661483Y-66867219D01*
X176661483Y-66867219D02*
X176280531Y-66867219D01*
X176280531Y-66867219D02*
X176185293Y-66914838D01*
X176185293Y-66914838D02*
X176137674Y-66962457D01*
X176137674Y-66962457D02*
X176090055Y-67057695D01*
X176090055Y-67057695D02*
X176090055Y-67200552D01*
X176090055Y-67200552D02*
X176137674Y-67295790D01*
X176137674Y-67295790D02*
X176185293Y-67343409D01*
X176185293Y-67343409D02*
X176280531Y-67391028D01*
X176280531Y-67391028D02*
X176661483Y-67391028D01*
X175137674Y-67867219D02*
X175709102Y-67867219D01*
X175423388Y-67867219D02*
X175423388Y-66867219D01*
X175423388Y-66867219D02*
X175518626Y-67010076D01*
X175518626Y-67010076D02*
X175613864Y-67105314D01*
X175613864Y-67105314D02*
X175709102Y-67152933D01*
X174185293Y-67867219D02*
X174756721Y-67867219D01*
X174471007Y-67867219D02*
X174471007Y-66867219D01*
X174471007Y-66867219D02*
X174566245Y-67010076D01*
X174566245Y-67010076D02*
X174661483Y-67105314D01*
X174661483Y-67105314D02*
X174756721Y-67152933D01*
X173756721Y-67486266D02*
X172994817Y-67486266D01*
X172518626Y-67867219D02*
X172518626Y-67200552D01*
X172518626Y-67295790D02*
X172471007Y-67248171D01*
X172471007Y-67248171D02*
X172375769Y-67200552D01*
X172375769Y-67200552D02*
X172232912Y-67200552D01*
X172232912Y-67200552D02*
X172137674Y-67248171D01*
X172137674Y-67248171D02*
X172090055Y-67343409D01*
X172090055Y-67343409D02*
X172090055Y-67867219D01*
X172090055Y-67343409D02*
X172042436Y-67248171D01*
X172042436Y-67248171D02*
X171947198Y-67200552D01*
X171947198Y-67200552D02*
X171804341Y-67200552D01*
X171804341Y-67200552D02*
X171709102Y-67248171D01*
X171709102Y-67248171D02*
X171661483Y-67343409D01*
X171661483Y-67343409D02*
X171661483Y-67867219D01*
X171185293Y-67867219D02*
X171185293Y-67200552D01*
X171185293Y-66867219D02*
X171232912Y-66914838D01*
X171232912Y-66914838D02*
X171185293Y-66962457D01*
X171185293Y-66962457D02*
X171137674Y-66914838D01*
X171137674Y-66914838D02*
X171185293Y-66867219D01*
X171185293Y-66867219D02*
X171185293Y-66962457D01*
X170709103Y-67200552D02*
X170709103Y-67867219D01*
X170709103Y-67295790D02*
X170661484Y-67248171D01*
X170661484Y-67248171D02*
X170566246Y-67200552D01*
X170566246Y-67200552D02*
X170423389Y-67200552D01*
X170423389Y-67200552D02*
X170328151Y-67248171D01*
X170328151Y-67248171D02*
X170280532Y-67343409D01*
X170280532Y-67343409D02*
X170280532Y-67867219D01*
X169804341Y-67867219D02*
X169804341Y-67200552D01*
X169804341Y-66867219D02*
X169851960Y-66914838D01*
X169851960Y-66914838D02*
X169804341Y-66962457D01*
X169804341Y-66962457D02*
X169756722Y-66914838D01*
X169756722Y-66914838D02*
X169804341Y-66867219D01*
X169804341Y-66867219D02*
X169804341Y-66962457D01*
X168899580Y-67819600D02*
X168994818Y-67867219D01*
X168994818Y-67867219D02*
X169185294Y-67867219D01*
X169185294Y-67867219D02*
X169280532Y-67819600D01*
X169280532Y-67819600D02*
X169328151Y-67771980D01*
X169328151Y-67771980D02*
X169375770Y-67676742D01*
X169375770Y-67676742D02*
X169375770Y-67391028D01*
X169375770Y-67391028D02*
X169328151Y-67295790D01*
X169328151Y-67295790D02*
X169280532Y-67248171D01*
X169280532Y-67248171D02*
X169185294Y-67200552D01*
X169185294Y-67200552D02*
X168994818Y-67200552D01*
X168994818Y-67200552D02*
X168899580Y-67248171D01*
X168328151Y-67867219D02*
X168423389Y-67819600D01*
X168423389Y-67819600D02*
X168471008Y-67771980D01*
X168471008Y-67771980D02*
X168518627Y-67676742D01*
X168518627Y-67676742D02*
X168518627Y-67391028D01*
X168518627Y-67391028D02*
X168471008Y-67295790D01*
X168471008Y-67295790D02*
X168423389Y-67248171D01*
X168423389Y-67248171D02*
X168328151Y-67200552D01*
X168328151Y-67200552D02*
X168185294Y-67200552D01*
X168185294Y-67200552D02*
X168090056Y-67248171D01*
X168090056Y-67248171D02*
X168042437Y-67295790D01*
X168042437Y-67295790D02*
X167994818Y-67391028D01*
X167994818Y-67391028D02*
X167994818Y-67676742D01*
X167994818Y-67676742D02*
X168042437Y-67771980D01*
X168042437Y-67771980D02*
X168090056Y-67819600D01*
X168090056Y-67819600D02*
X168185294Y-67867219D01*
X168185294Y-67867219D02*
X168328151Y-67867219D01*
X167566246Y-67867219D02*
X167566246Y-67200552D01*
X167566246Y-67295790D02*
X167518627Y-67248171D01*
X167518627Y-67248171D02*
X167423389Y-67200552D01*
X167423389Y-67200552D02*
X167280532Y-67200552D01*
X167280532Y-67200552D02*
X167185294Y-67248171D01*
X167185294Y-67248171D02*
X167137675Y-67343409D01*
X167137675Y-67343409D02*
X167137675Y-67867219D01*
X167137675Y-67343409D02*
X167090056Y-67248171D01*
X167090056Y-67248171D02*
X166994818Y-67200552D01*
X166994818Y-67200552D02*
X166851961Y-67200552D01*
X166851961Y-67200552D02*
X166756722Y-67248171D01*
X166756722Y-67248171D02*
X166709103Y-67343409D01*
X166709103Y-67343409D02*
X166709103Y-67867219D01*
X166232913Y-67200552D02*
X166232913Y-68200552D01*
X166232913Y-67248171D02*
X166137675Y-67200552D01*
X166137675Y-67200552D02*
X165947199Y-67200552D01*
X165947199Y-67200552D02*
X165851961Y-67248171D01*
X165851961Y-67248171D02*
X165804342Y-67295790D01*
X165804342Y-67295790D02*
X165756723Y-67391028D01*
X165756723Y-67391028D02*
X165756723Y-67676742D01*
X165756723Y-67676742D02*
X165804342Y-67771980D01*
X165804342Y-67771980D02*
X165851961Y-67819600D01*
X165851961Y-67819600D02*
X165947199Y-67867219D01*
X165947199Y-67867219D02*
X166137675Y-67867219D01*
X166137675Y-67867219D02*
X166232913Y-67819600D01*
X164899580Y-67200552D02*
X164899580Y-67867219D01*
X165328151Y-67200552D02*
X165328151Y-67724361D01*
X165328151Y-67724361D02*
X165280532Y-67819600D01*
X165280532Y-67819600D02*
X165185294Y-67867219D01*
X165185294Y-67867219D02*
X165042437Y-67867219D01*
X165042437Y-67867219D02*
X164947199Y-67819600D01*
X164947199Y-67819600D02*
X164899580Y-67771980D01*
X164566246Y-67200552D02*
X164185294Y-67200552D01*
X164423389Y-66867219D02*
X164423389Y-67724361D01*
X164423389Y-67724361D02*
X164375770Y-67819600D01*
X164375770Y-67819600D02*
X164280532Y-67867219D01*
X164280532Y-67867219D02*
X164185294Y-67867219D01*
X163471008Y-67819600D02*
X163566246Y-67867219D01*
X163566246Y-67867219D02*
X163756722Y-67867219D01*
X163756722Y-67867219D02*
X163851960Y-67819600D01*
X163851960Y-67819600D02*
X163899579Y-67724361D01*
X163899579Y-67724361D02*
X163899579Y-67343409D01*
X163899579Y-67343409D02*
X163851960Y-67248171D01*
X163851960Y-67248171D02*
X163756722Y-67200552D01*
X163756722Y-67200552D02*
X163566246Y-67200552D01*
X163566246Y-67200552D02*
X163471008Y-67248171D01*
X163471008Y-67248171D02*
X163423389Y-67343409D01*
X163423389Y-67343409D02*
X163423389Y-67438647D01*
X163423389Y-67438647D02*
X163899579Y-67533885D01*
X162994817Y-67867219D02*
X162994817Y-67200552D01*
X162994817Y-67391028D02*
X162947198Y-67295790D01*
X162947198Y-67295790D02*
X162899579Y-67248171D01*
X162899579Y-67248171D02*
X162804341Y-67200552D01*
X162804341Y-67200552D02*
X162709103Y-67200552D01*
D12*
%TO.C,G\u002A\u002A\u002A*%
G36*
X138936059Y-118128721D02*
G01*
X138936113Y-118299196D01*
X138936135Y-118488705D01*
X138936140Y-118698276D01*
X138936140Y-120226951D01*
X138911248Y-120247107D01*
X138904288Y-120252090D01*
X138894216Y-120256792D01*
X138879792Y-120260412D01*
X138858623Y-120263090D01*
X138828321Y-120264967D01*
X138786493Y-120266182D01*
X138730750Y-120266876D01*
X138658700Y-120267190D01*
X138567954Y-120267263D01*
X138524494Y-120267232D01*
X138438996Y-120266900D01*
X138371504Y-120266125D01*
X138319873Y-120264814D01*
X138281961Y-120262870D01*
X138255621Y-120260200D01*
X138238711Y-120256709D01*
X138229085Y-120252302D01*
X138228903Y-120252169D01*
X138224398Y-120248101D01*
X138220586Y-120241946D01*
X138217389Y-120231976D01*
X138214728Y-120216463D01*
X138212526Y-120193680D01*
X138210703Y-120161901D01*
X138209181Y-120119398D01*
X138207883Y-120064444D01*
X138206728Y-119995311D01*
X138205639Y-119910274D01*
X138204538Y-119807603D01*
X138203346Y-119685573D01*
X138198074Y-119133805D01*
X137834313Y-119127418D01*
X137785526Y-119126497D01*
X137655773Y-119123214D01*
X137543925Y-119118835D01*
X137447616Y-119113073D01*
X137364481Y-119105637D01*
X137292155Y-119096238D01*
X137228274Y-119084588D01*
X137170473Y-119070398D01*
X137116387Y-119053379D01*
X137063651Y-119033241D01*
X137036214Y-119021394D01*
X136917122Y-118956358D01*
X136810302Y-118874901D01*
X136716934Y-118778390D01*
X136638195Y-118668195D01*
X136575261Y-118545684D01*
X136529312Y-118412226D01*
X136526405Y-118401249D01*
X136517180Y-118363389D01*
X136510608Y-118328425D01*
X136506234Y-118291560D01*
X136503602Y-118247998D01*
X136502259Y-118192943D01*
X136501750Y-118121601D01*
X137259676Y-118121601D01*
X137260076Y-118167480D01*
X137262184Y-118203814D01*
X137267222Y-118231063D01*
X137276405Y-118255526D01*
X137290952Y-118283505D01*
X137294792Y-118290250D01*
X137342801Y-118354405D01*
X137403155Y-118406611D01*
X137470743Y-118442352D01*
X137486137Y-118447360D01*
X137529169Y-118457821D01*
X137581213Y-118467338D01*
X137634204Y-118474335D01*
X137639528Y-118474855D01*
X137686320Y-118478185D01*
X137748220Y-118481070D01*
X137820022Y-118483341D01*
X137896518Y-118484828D01*
X137972500Y-118485362D01*
X138203346Y-118485362D01*
X138203346Y-118126873D01*
X138203346Y-117768384D01*
X137921299Y-117768593D01*
X137854642Y-117768917D01*
X137777478Y-117769963D01*
X137706470Y-117771621D01*
X137645352Y-117773778D01*
X137597855Y-117776323D01*
X137567713Y-117779146D01*
X137481635Y-117800227D01*
X137404279Y-117838185D01*
X137340235Y-117891740D01*
X137290743Y-117960082D01*
X137277561Y-117985206D01*
X137267922Y-118009702D01*
X137262534Y-118036407D01*
X137260189Y-118071609D01*
X137259676Y-118121601D01*
X136501750Y-118121601D01*
X136501825Y-118056978D01*
X136502855Y-117998333D01*
X136505259Y-117951933D01*
X136509417Y-117913052D01*
X136515710Y-117876967D01*
X136524519Y-117838954D01*
X136541145Y-117778560D01*
X136583934Y-117661342D01*
X136638424Y-117557449D01*
X136707007Y-117462719D01*
X136792071Y-117372991D01*
X136820754Y-117346913D01*
X136907253Y-117280320D01*
X136998596Y-117229084D01*
X137101519Y-117189205D01*
X137126329Y-117181398D01*
X137157309Y-117172302D01*
X137188044Y-117164409D01*
X137220175Y-117157622D01*
X137255345Y-117151844D01*
X137295193Y-117146978D01*
X137341360Y-117142928D01*
X137395488Y-117139597D01*
X137459216Y-117136889D01*
X137534187Y-117134706D01*
X137622041Y-117132953D01*
X137724419Y-117131531D01*
X137842962Y-117130345D01*
X137979310Y-117129298D01*
X138135105Y-117128294D01*
X138894553Y-117123648D01*
X138915346Y-117146625D01*
X138916951Y-117148474D01*
X138919649Y-117152384D01*
X138922082Y-117157882D01*
X138924263Y-117165993D01*
X138926206Y-117177744D01*
X138927925Y-117194162D01*
X138929433Y-117216272D01*
X138930744Y-117245100D01*
X138931872Y-117281674D01*
X138932831Y-117327020D01*
X138933635Y-117382164D01*
X138934296Y-117448131D01*
X138934830Y-117525949D01*
X138935249Y-117616645D01*
X138935568Y-117721243D01*
X138935800Y-117840771D01*
X138935959Y-117976255D01*
X138936058Y-118126873D01*
X138936059Y-118128721D01*
G37*
G36*
X134857229Y-117142034D02*
G01*
X134960022Y-117143636D01*
X135048291Y-117148719D01*
X135127828Y-117158156D01*
X135204429Y-117172818D01*
X135283886Y-117193577D01*
X135371993Y-117221306D01*
X135381523Y-117224520D01*
X135546986Y-117291166D01*
X135701511Y-117374140D01*
X135843878Y-117472258D01*
X135972863Y-117584339D01*
X136087246Y-117709202D01*
X136185805Y-117845664D01*
X136267319Y-117992544D01*
X136330564Y-118148659D01*
X136346809Y-118199282D01*
X136369607Y-118282587D01*
X136385953Y-118364041D01*
X136396679Y-118449321D01*
X136402617Y-118544102D01*
X136404599Y-118654062D01*
X136404497Y-118718577D01*
X136403422Y-118784334D01*
X136400965Y-118837952D01*
X136396773Y-118884397D01*
X136390494Y-118928640D01*
X136381774Y-118975648D01*
X136376881Y-118999256D01*
X136331190Y-119171455D01*
X136270368Y-119329782D01*
X136193667Y-119475688D01*
X136100339Y-119610622D01*
X135989636Y-119736036D01*
X135903540Y-119817120D01*
X135769459Y-119921362D01*
X135625842Y-120007828D01*
X135471443Y-120077139D01*
X135305015Y-120129916D01*
X135125312Y-120166781D01*
X135079157Y-120172428D01*
X135003786Y-120177789D01*
X134918044Y-120180681D01*
X134827967Y-120181096D01*
X134739592Y-120179028D01*
X134658956Y-120174470D01*
X134592096Y-120167413D01*
X134556826Y-120162058D01*
X134399023Y-120129623D01*
X134252732Y-120084091D01*
X134113662Y-120023659D01*
X133977525Y-119946520D01*
X133840030Y-119850870D01*
X133833828Y-119846170D01*
X133761342Y-119789112D01*
X133698410Y-119735622D01*
X133646649Y-119687296D01*
X133607679Y-119645729D01*
X133583119Y-119612516D01*
X133574586Y-119589253D01*
X133574793Y-119585946D01*
X133579222Y-119571995D01*
X133590630Y-119553019D01*
X133610610Y-119527049D01*
X133640758Y-119492116D01*
X133682666Y-119446250D01*
X133737931Y-119387481D01*
X133797283Y-119325136D01*
X133850914Y-119269540D01*
X133893404Y-119226626D01*
X133926384Y-119194891D01*
X133951487Y-119172827D01*
X133970344Y-119158931D01*
X133984588Y-119151698D01*
X133995851Y-119149621D01*
X133996140Y-119149629D01*
X134011889Y-119156712D01*
X134039320Y-119175159D01*
X134074651Y-119202234D01*
X134114102Y-119235200D01*
X134163885Y-119277321D01*
X134274463Y-119361578D01*
X134380268Y-119428322D01*
X134483616Y-119478923D01*
X134586825Y-119514751D01*
X134594044Y-119516692D01*
X134626342Y-119523660D01*
X134663565Y-119528581D01*
X134709749Y-119531757D01*
X134768931Y-119533490D01*
X134845148Y-119534083D01*
X134925544Y-119533515D01*
X134994983Y-119530779D01*
X135052878Y-119524897D01*
X135104123Y-119514897D01*
X135153613Y-119499811D01*
X135206240Y-119478668D01*
X135266899Y-119450498D01*
X135382099Y-119384958D01*
X135484717Y-119304483D01*
X135570608Y-119211276D01*
X135639573Y-119105646D01*
X135691408Y-118987905D01*
X135725914Y-118858361D01*
X135742889Y-118717325D01*
X135743407Y-118610974D01*
X135727268Y-118475309D01*
X135692353Y-118347742D01*
X135639167Y-118229344D01*
X135568215Y-118121181D01*
X135480004Y-118024322D01*
X135375038Y-117939836D01*
X135288494Y-117885339D01*
X135198261Y-117841488D01*
X135104853Y-117810679D01*
X135001285Y-117790115D01*
X134912587Y-117781092D01*
X134770590Y-117783450D01*
X134630315Y-117806242D01*
X134492946Y-117849064D01*
X134359664Y-117911514D01*
X134231650Y-117993190D01*
X134110088Y-118093688D01*
X134077265Y-118123524D01*
X134042141Y-118152361D01*
X134015740Y-118168754D01*
X133994909Y-118174541D01*
X133976496Y-118171559D01*
X133966479Y-118165565D01*
X133941852Y-118146303D01*
X133907176Y-118116575D01*
X133865029Y-118078835D01*
X133817986Y-118035535D01*
X133768625Y-117989128D01*
X133719521Y-117942065D01*
X133673252Y-117896800D01*
X133632393Y-117855784D01*
X133599522Y-117821471D01*
X133577214Y-117796313D01*
X133568045Y-117782761D01*
X133564983Y-117762545D01*
X133568045Y-117740168D01*
X133579842Y-117715664D01*
X133602228Y-117686176D01*
X133637061Y-117648848D01*
X133686193Y-117600822D01*
X133698828Y-117588879D01*
X133841094Y-117469680D01*
X133994582Y-117367975D01*
X134159765Y-117283520D01*
X134337114Y-117216071D01*
X134527101Y-117165383D01*
X134568855Y-117157064D01*
X134609611Y-117150827D01*
X134653010Y-117146544D01*
X134703659Y-117143876D01*
X134766168Y-117142485D01*
X134845148Y-117142033D01*
X134857229Y-117142034D01*
G37*
G36*
X126936031Y-119514834D02*
G01*
X126935045Y-119595629D01*
X126929161Y-119669442D01*
X126918293Y-119729529D01*
X126879974Y-119839932D01*
X126823400Y-119945096D01*
X126751663Y-120038002D01*
X126666435Y-120117111D01*
X126569388Y-120180881D01*
X126462193Y-120227772D01*
X126346525Y-120256243D01*
X126298580Y-120260829D01*
X126234464Y-120262345D01*
X126162954Y-120260769D01*
X126090899Y-120256393D01*
X126025146Y-120249505D01*
X125972545Y-120240397D01*
X125947337Y-120233694D01*
X125877231Y-120208560D01*
X125800217Y-120173604D01*
X125722408Y-120131995D01*
X125649916Y-120086903D01*
X125588854Y-120041496D01*
X125563600Y-120020757D01*
X125531625Y-119995612D01*
X125508014Y-119978411D01*
X125496596Y-119972037D01*
X125493450Y-119979281D01*
X125490383Y-120003750D01*
X125488299Y-120041414D01*
X125487530Y-120088018D01*
X125487530Y-120204000D01*
X125128639Y-120204000D01*
X124769748Y-120204000D01*
X124772965Y-119360708D01*
X125487530Y-119360708D01*
X125487585Y-119430289D01*
X125487936Y-119489098D01*
X125488850Y-119532296D01*
X125490596Y-119562749D01*
X125493441Y-119583323D01*
X125497654Y-119596885D01*
X125503502Y-119606299D01*
X125511254Y-119614432D01*
X125537827Y-119636882D01*
X125588617Y-119671405D01*
X125646516Y-119703714D01*
X125703678Y-119729133D01*
X125732462Y-119738149D01*
X125795540Y-119750445D01*
X125865494Y-119757078D01*
X125933514Y-119757387D01*
X125990789Y-119750710D01*
X126022843Y-119742844D01*
X126091077Y-119715890D01*
X126142260Y-119677611D01*
X126177486Y-119626624D01*
X126197850Y-119561545D01*
X126204449Y-119480993D01*
X126203855Y-119458575D01*
X126191409Y-119385083D01*
X126162372Y-119322174D01*
X126116138Y-119269279D01*
X126052102Y-119225830D01*
X125969661Y-119191259D01*
X125868209Y-119164996D01*
X125864138Y-119164215D01*
X125833312Y-119159305D01*
X125790293Y-119153503D01*
X125739219Y-119147250D01*
X125684231Y-119140990D01*
X125629467Y-119135167D01*
X125579067Y-119130222D01*
X125537169Y-119126599D01*
X125507913Y-119124741D01*
X125495438Y-119125092D01*
X125494431Y-119127567D01*
X125492224Y-119147050D01*
X125490326Y-119183205D01*
X125488842Y-119232931D01*
X125487876Y-119293132D01*
X125487530Y-119360708D01*
X124772965Y-119360708D01*
X124773076Y-119331501D01*
X124773139Y-119314776D01*
X124773718Y-119156596D01*
X124774257Y-119017859D01*
X124774864Y-118897072D01*
X124775648Y-118792738D01*
X124776718Y-118703363D01*
X124778182Y-118627452D01*
X124780148Y-118563509D01*
X124782726Y-118510039D01*
X124786023Y-118465547D01*
X124790149Y-118428538D01*
X124795211Y-118397516D01*
X124801318Y-118370987D01*
X124808580Y-118347456D01*
X124817104Y-118325426D01*
X124826998Y-118303403D01*
X124838372Y-118279893D01*
X124851334Y-118253398D01*
X124865411Y-118226693D01*
X124919449Y-118148385D01*
X124988256Y-118074886D01*
X125067141Y-118010776D01*
X125151409Y-117960633D01*
X125155982Y-117958421D01*
X125272660Y-117911490D01*
X125407679Y-117874005D01*
X125561337Y-117845880D01*
X125620721Y-117839254D01*
X125701062Y-117833754D01*
X125792399Y-117830115D01*
X125889497Y-117828375D01*
X125987126Y-117828570D01*
X126080053Y-117830738D01*
X126163044Y-117834915D01*
X126230868Y-117841139D01*
X126269248Y-117846444D01*
X126328587Y-117855762D01*
X126397133Y-117867365D01*
X126469879Y-117880336D01*
X126541818Y-117893758D01*
X126607940Y-117906713D01*
X126663237Y-117918285D01*
X126702703Y-117927556D01*
X126742242Y-117937897D01*
X126742242Y-118220502D01*
X126742242Y-118503106D01*
X126697431Y-118495227D01*
X126672979Y-118489388D01*
X126632379Y-118477441D01*
X126583221Y-118461500D01*
X126531366Y-118443395D01*
X126492888Y-118429933D01*
X126425517Y-118407952D01*
X126357668Y-118387387D01*
X126299402Y-118371364D01*
X126256907Y-118361073D01*
X126217724Y-118353262D01*
X126179398Y-118348173D01*
X126136444Y-118345277D01*
X126083380Y-118344047D01*
X126014720Y-118343954D01*
X126000416Y-118344053D01*
X125878824Y-118349158D01*
X125775839Y-118362138D01*
X125690431Y-118383429D01*
X125621568Y-118413469D01*
X125568220Y-118452696D01*
X125529354Y-118501545D01*
X125503941Y-118560454D01*
X125498428Y-118580970D01*
X125490603Y-118619379D01*
X125487530Y-118649148D01*
X125487530Y-118682581D01*
X125590332Y-118689731D01*
X125621080Y-118691935D01*
X125776335Y-118705112D01*
X125921983Y-118720917D01*
X126055732Y-118739013D01*
X126175290Y-118759060D01*
X126278365Y-118780721D01*
X126362665Y-118803659D01*
X126443865Y-118831861D01*
X126565311Y-118886021D01*
X126668427Y-118949210D01*
X126753971Y-119022125D01*
X126822704Y-119105457D01*
X126875386Y-119199902D01*
X126912775Y-119306153D01*
X126923664Y-119359272D01*
X126932208Y-119433801D01*
X126934434Y-119480993D01*
X126936031Y-119514834D01*
G37*
G36*
X133427007Y-118672589D02*
G01*
X133426956Y-118846696D01*
X133426801Y-119018933D01*
X133426549Y-119184251D01*
X133426371Y-119266010D01*
X133426206Y-119341471D01*
X133425778Y-119489413D01*
X133425271Y-119626894D01*
X133424691Y-119752734D01*
X133424044Y-119865753D01*
X133423336Y-119964769D01*
X133422574Y-120048602D01*
X133421763Y-120116070D01*
X133420910Y-120165994D01*
X133420020Y-120197191D01*
X133419099Y-120208482D01*
X133418940Y-120208601D01*
X133405593Y-120210303D01*
X133373328Y-120211637D01*
X133324185Y-120212623D01*
X133260204Y-120213280D01*
X133183422Y-120213626D01*
X133095880Y-120213680D01*
X132999616Y-120213461D01*
X132896669Y-120212988D01*
X132789080Y-120212279D01*
X132678886Y-120211354D01*
X132568128Y-120210230D01*
X132458843Y-120208928D01*
X132353072Y-120207465D01*
X132252854Y-120205860D01*
X132160228Y-120204133D01*
X132077232Y-120202302D01*
X132005906Y-120200386D01*
X131948290Y-120198403D01*
X131906422Y-120196373D01*
X131882341Y-120194315D01*
X131777677Y-120175746D01*
X131631017Y-120136142D01*
X131496382Y-120082925D01*
X131374954Y-120016877D01*
X131267912Y-119938779D01*
X131176436Y-119849413D01*
X131101705Y-119749558D01*
X131044899Y-119639995D01*
X131042939Y-119635265D01*
X131035042Y-119615192D01*
X131029107Y-119596262D01*
X131024888Y-119575301D01*
X131022143Y-119549132D01*
X131020628Y-119514580D01*
X131020099Y-119468468D01*
X131020313Y-119407622D01*
X131021025Y-119328865D01*
X131021458Y-119294589D01*
X131022393Y-119249787D01*
X131776903Y-119249787D01*
X131777146Y-119279622D01*
X131780492Y-119342485D01*
X131789173Y-119391834D01*
X131804967Y-119432953D01*
X131829653Y-119471127D01*
X131865008Y-119511639D01*
X131869663Y-119516465D01*
X131902775Y-119546045D01*
X131940429Y-119570142D01*
X131988044Y-119591733D01*
X132051042Y-119613794D01*
X132066462Y-119618559D01*
X132091086Y-119625016D01*
X132117638Y-119630015D01*
X132149311Y-119633827D01*
X132189299Y-119636721D01*
X132240794Y-119638968D01*
X132306990Y-119640840D01*
X132391079Y-119642606D01*
X132657310Y-119647710D01*
X132657310Y-119266010D01*
X132657310Y-118884311D01*
X132359448Y-118888159D01*
X132328131Y-118888573D01*
X132246088Y-118889828D01*
X132181403Y-118891242D01*
X132131270Y-118893022D01*
X132092883Y-118895375D01*
X132063438Y-118898510D01*
X132040129Y-118902632D01*
X132020151Y-118907950D01*
X132000698Y-118914670D01*
X131990423Y-118918628D01*
X131914041Y-118957852D01*
X131852310Y-119008125D01*
X131807876Y-119067353D01*
X131799045Y-119083675D01*
X131788704Y-119106130D01*
X131782209Y-119128735D01*
X131778669Y-119156723D01*
X131777197Y-119195329D01*
X131776903Y-119249787D01*
X131022393Y-119249787D01*
X131023003Y-119220537D01*
X131025224Y-119151219D01*
X131027952Y-119090723D01*
X131031016Y-119043138D01*
X131034245Y-119012551D01*
X131040581Y-118980531D01*
X131065622Y-118903034D01*
X131101712Y-118830336D01*
X131145195Y-118770415D01*
X131153320Y-118761699D01*
X131212923Y-118708444D01*
X131286104Y-118656746D01*
X131366577Y-118610297D01*
X131448054Y-118572787D01*
X131524247Y-118547907D01*
X131542992Y-118543019D01*
X131570517Y-118534380D01*
X131584933Y-118527758D01*
X131585410Y-118526403D01*
X131576661Y-118515948D01*
X131554167Y-118499208D01*
X131521732Y-118479109D01*
X131454096Y-118433844D01*
X131375363Y-118363994D01*
X131307876Y-118284343D01*
X131256553Y-118200067D01*
X131245530Y-118177080D01*
X131212750Y-118098272D01*
X131192270Y-118025995D01*
X131966937Y-118025995D01*
X131967752Y-118056716D01*
X131979115Y-118137196D01*
X132004658Y-118202890D01*
X132045412Y-118255270D01*
X132102406Y-118295810D01*
X132176670Y-118325983D01*
X132208092Y-118333838D01*
X132248041Y-118340238D01*
X132299362Y-118345387D01*
X132365292Y-118349609D01*
X132449070Y-118353228D01*
X132657310Y-118360834D01*
X132657310Y-118038249D01*
X132657310Y-117715665D01*
X132448650Y-117715665D01*
X132440585Y-117715671D01*
X132338070Y-117717253D01*
X132253901Y-117722189D01*
X132185654Y-117731302D01*
X132130908Y-117745411D01*
X132087238Y-117765339D01*
X132052221Y-117791907D01*
X132023435Y-117825936D01*
X131998455Y-117868246D01*
X131990511Y-117884165D01*
X131977863Y-117913995D01*
X131970706Y-117942631D01*
X131967558Y-117977491D01*
X131966937Y-118025995D01*
X131192270Y-118025995D01*
X131191816Y-118024391D01*
X131180802Y-117947087D01*
X131177786Y-117858006D01*
X131183049Y-117757338D01*
X131202346Y-117651861D01*
X131236767Y-117557893D01*
X131287324Y-117472791D01*
X131355024Y-117393914D01*
X131369839Y-117379555D01*
X131462302Y-117306915D01*
X131570507Y-117247911D01*
X131694643Y-117202455D01*
X131834894Y-117170462D01*
X131852308Y-117167772D01*
X131878001Y-117164692D01*
X131908841Y-117162008D01*
X131946422Y-117159681D01*
X131992338Y-117157669D01*
X132048183Y-117155933D01*
X132115552Y-117154432D01*
X132196037Y-117153126D01*
X132291234Y-117151974D01*
X132402737Y-117150936D01*
X132532138Y-117149972D01*
X132681034Y-117149041D01*
X133427007Y-117144693D01*
X133427007Y-118038249D01*
X133427007Y-118672589D01*
G37*
G36*
X130624449Y-117135397D02*
G01*
X130702193Y-117135916D01*
X130775664Y-117136836D01*
X130842058Y-117138155D01*
X130898576Y-117139868D01*
X130942414Y-117141970D01*
X130970772Y-117144457D01*
X130980847Y-117147326D01*
X130980795Y-117147720D01*
X130977534Y-117161894D01*
X130969403Y-117195211D01*
X130956688Y-117246535D01*
X130939674Y-117314734D01*
X130918647Y-117398671D01*
X130893894Y-117497212D01*
X130865700Y-117609224D01*
X130834351Y-117733570D01*
X130800132Y-117869117D01*
X130763329Y-118014730D01*
X130724229Y-118169274D01*
X130683116Y-118331615D01*
X130640278Y-118500619D01*
X130595998Y-118675150D01*
X130589441Y-118700985D01*
X130545371Y-118874671D01*
X130502781Y-119042602D01*
X130461959Y-119203647D01*
X130423188Y-119356677D01*
X130386755Y-119500564D01*
X130352944Y-119634177D01*
X130322043Y-119756387D01*
X130294335Y-119866064D01*
X130270107Y-119962080D01*
X130249644Y-120043305D01*
X130233231Y-120108609D01*
X130221154Y-120156863D01*
X130213699Y-120186937D01*
X130211150Y-120197702D01*
X130209642Y-120198233D01*
X130192022Y-120199566D01*
X130156384Y-120200784D01*
X130104948Y-120201854D01*
X130039938Y-120202744D01*
X129963576Y-120203420D01*
X129878082Y-120203850D01*
X129785681Y-120204000D01*
X129360212Y-120204000D01*
X129274777Y-119869235D01*
X129269194Y-119847333D01*
X129248411Y-119765502D01*
X129223663Y-119667691D01*
X129195807Y-119557306D01*
X129165702Y-119437758D01*
X129134205Y-119312456D01*
X129102174Y-119184807D01*
X129070467Y-119058222D01*
X129039943Y-118936109D01*
X129015829Y-118839876D01*
X128989807Y-118736830D01*
X128965576Y-118641711D01*
X128943602Y-118556311D01*
X128924353Y-118482423D01*
X128908296Y-118421838D01*
X128895899Y-118376348D01*
X128887628Y-118347745D01*
X128883951Y-118337822D01*
X128880599Y-118347126D01*
X128872323Y-118375440D01*
X128859540Y-118421327D01*
X128842637Y-118483339D01*
X128822000Y-118560026D01*
X128798015Y-118649940D01*
X128771069Y-118751634D01*
X128741548Y-118863657D01*
X128709839Y-118984562D01*
X128676328Y-119112901D01*
X128641401Y-119247224D01*
X128608604Y-119373514D01*
X128574832Y-119503345D01*
X128542805Y-119626249D01*
X128512917Y-119740728D01*
X128485559Y-119845282D01*
X128461127Y-119938414D01*
X128440012Y-120018624D01*
X128422609Y-120084414D01*
X128409310Y-120134286D01*
X128400508Y-120166739D01*
X128396597Y-120180277D01*
X128387753Y-120204000D01*
X127965662Y-120204000D01*
X127932674Y-120203992D01*
X127842828Y-120203880D01*
X127760684Y-120203649D01*
X127688473Y-120203314D01*
X127628424Y-120202890D01*
X127582770Y-120202391D01*
X127553742Y-120201833D01*
X127543570Y-120201228D01*
X127543510Y-120200941D01*
X127540196Y-120187561D01*
X127532023Y-120155039D01*
X127519276Y-120104501D01*
X127502240Y-120037072D01*
X127481201Y-119953880D01*
X127456443Y-119856049D01*
X127428252Y-119744705D01*
X127396912Y-119620974D01*
X127362709Y-119485982D01*
X127325927Y-119340854D01*
X127286853Y-119186717D01*
X127245770Y-119024696D01*
X127202965Y-118855916D01*
X127158722Y-118681504D01*
X127152379Y-118656500D01*
X127108287Y-118482582D01*
X127065676Y-118314319D01*
X127024832Y-118152848D01*
X126986040Y-117999306D01*
X126949586Y-117854830D01*
X126915756Y-117720558D01*
X126884836Y-117597626D01*
X126857112Y-117487171D01*
X126832868Y-117390332D01*
X126812392Y-117308244D01*
X126795969Y-117242045D01*
X126783884Y-117192873D01*
X126776423Y-117161863D01*
X126773873Y-117150154D01*
X126774505Y-117148280D01*
X126780814Y-117144786D01*
X126795390Y-117141979D01*
X126820062Y-117139792D01*
X126856662Y-117138157D01*
X126907023Y-117137004D01*
X126972976Y-117136265D01*
X127056352Y-117135872D01*
X127158983Y-117135756D01*
X127544092Y-117135756D01*
X127552647Y-117159480D01*
X127553448Y-117162309D01*
X127558474Y-117183350D01*
X127567496Y-117223000D01*
X127580197Y-117279809D01*
X127596258Y-117352327D01*
X127615362Y-117439105D01*
X127637190Y-117538692D01*
X127661425Y-117649639D01*
X127687749Y-117770497D01*
X127715842Y-117899816D01*
X127745389Y-118036145D01*
X127776070Y-118178036D01*
X127785563Y-118221958D01*
X127823555Y-118397012D01*
X127858083Y-118554893D01*
X127889057Y-118695215D01*
X127916391Y-118817592D01*
X127939996Y-118921636D01*
X127959782Y-119006962D01*
X127975663Y-119073181D01*
X127987549Y-119119908D01*
X127995351Y-119146755D01*
X127998983Y-119153337D01*
X127999337Y-119152285D01*
X128003858Y-119135273D01*
X128012800Y-119099503D01*
X128025814Y-119046436D01*
X128042547Y-118977530D01*
X128062649Y-118894245D01*
X128085769Y-118798042D01*
X128111557Y-118690378D01*
X128139660Y-118572715D01*
X128169729Y-118446511D01*
X128201412Y-118313226D01*
X128234359Y-118174320D01*
X128240523Y-118148306D01*
X128273372Y-118009732D01*
X128304936Y-117876684D01*
X128334856Y-117750660D01*
X128362777Y-117633159D01*
X128388341Y-117525683D01*
X128411191Y-117429729D01*
X128430970Y-117346799D01*
X128447321Y-117278390D01*
X128459887Y-117226004D01*
X128468311Y-117191139D01*
X128472235Y-117175295D01*
X128482781Y-117135756D01*
X128861329Y-117135756D01*
X128944455Y-117135966D01*
X129025295Y-117136604D01*
X129097048Y-117137618D01*
X129157314Y-117138955D01*
X129203694Y-117140559D01*
X129233787Y-117142377D01*
X129245192Y-117144357D01*
X129245970Y-117146692D01*
X129251300Y-117166152D01*
X129261247Y-117204064D01*
X129275451Y-117259021D01*
X129293555Y-117329616D01*
X129315200Y-117414440D01*
X129340029Y-117512086D01*
X129367683Y-117621147D01*
X129397805Y-117740214D01*
X129430035Y-117867881D01*
X129464016Y-118002739D01*
X129499389Y-118143381D01*
X129514187Y-118202256D01*
X129549067Y-118340911D01*
X129582414Y-118473323D01*
X129613871Y-118598071D01*
X129643076Y-118713735D01*
X129669670Y-118818892D01*
X129693294Y-118912121D01*
X129713586Y-118992002D01*
X129730187Y-119057114D01*
X129742738Y-119106035D01*
X129750878Y-119137344D01*
X129754247Y-119149621D01*
X129758246Y-119156677D01*
X129764573Y-119153973D01*
X129765114Y-119151876D01*
X129769352Y-119132678D01*
X129777429Y-119094799D01*
X129789048Y-119039671D01*
X129803909Y-118968725D01*
X129821716Y-118883395D01*
X129842170Y-118785110D01*
X129864973Y-118675304D01*
X129889826Y-118555408D01*
X129916432Y-118426854D01*
X129944492Y-118291074D01*
X129973709Y-118149499D01*
X129984915Y-118095189D01*
X130013763Y-117955673D01*
X130041380Y-117822515D01*
X130067465Y-117697145D01*
X130091719Y-117580992D01*
X130113838Y-117475486D01*
X130133524Y-117382057D01*
X130150474Y-117302136D01*
X130164387Y-117237152D01*
X130174964Y-117188535D01*
X130181902Y-117157715D01*
X130184901Y-117146122D01*
X130195916Y-117143389D01*
X130225129Y-117140973D01*
X130269680Y-117138988D01*
X130326768Y-117137432D01*
X130393590Y-117136299D01*
X130467346Y-117135585D01*
X130545232Y-117135286D01*
X130624449Y-117135397D01*
G37*
G36*
X124518970Y-117895026D02*
G01*
X124604612Y-117895462D01*
X124672322Y-117896278D01*
X124723756Y-117897531D01*
X124760573Y-117899281D01*
X124784430Y-117901585D01*
X124796985Y-117904502D01*
X124799895Y-117908089D01*
X124799311Y-117909687D01*
X124792762Y-117927227D01*
X124779409Y-117962828D01*
X124759728Y-118015228D01*
X124734195Y-118083162D01*
X124703285Y-118165368D01*
X124667473Y-118260581D01*
X124627234Y-118367538D01*
X124583045Y-118484976D01*
X124535379Y-118611630D01*
X124484712Y-118746238D01*
X124431520Y-118887536D01*
X124376278Y-119034260D01*
X123957205Y-120147251D01*
X124051746Y-120389137D01*
X124146287Y-120631024D01*
X124197461Y-120629459D01*
X124199773Y-120629369D01*
X124224927Y-120627750D01*
X124267994Y-120624427D01*
X124326339Y-120619625D01*
X124397331Y-120613568D01*
X124478334Y-120606479D01*
X124566716Y-120598583D01*
X124659842Y-120590104D01*
X124717110Y-120584869D01*
X125092761Y-120551966D01*
X125454682Y-120522944D01*
X125806342Y-120497648D01*
X126151210Y-120475922D01*
X126492754Y-120457611D01*
X126834444Y-120442560D01*
X127179748Y-120430614D01*
X127532135Y-120421617D01*
X127895074Y-120415414D01*
X128272034Y-120411850D01*
X128666484Y-120410770D01*
X128879199Y-120410997D01*
X129095723Y-120411681D01*
X129296454Y-120412897D01*
X129484164Y-120414721D01*
X129661624Y-120417231D01*
X129831608Y-120420507D01*
X129996888Y-120424626D01*
X130160235Y-120429665D01*
X130324422Y-120435703D01*
X130492221Y-120442819D01*
X130666405Y-120451089D01*
X130849745Y-120460591D01*
X131045015Y-120471405D01*
X131254986Y-120483608D01*
X131435238Y-120494554D01*
X132331753Y-120557008D01*
X133230774Y-120632820D01*
X134129367Y-120721642D01*
X135024595Y-120823123D01*
X135913522Y-120936914D01*
X136793211Y-121062664D01*
X137660727Y-121200024D01*
X138513133Y-121348643D01*
X138578489Y-121360582D01*
X138679648Y-121379091D01*
X138762857Y-121394389D01*
X138829904Y-121406843D01*
X138882580Y-121416817D01*
X138922674Y-121424678D01*
X138951977Y-121430790D01*
X138972277Y-121435519D01*
X138985364Y-121439232D01*
X138993029Y-121442292D01*
X138997061Y-121445066D01*
X138999249Y-121447920D01*
X139001100Y-121453640D01*
X139006897Y-121477160D01*
X139015514Y-121515064D01*
X139026144Y-121563510D01*
X139037978Y-121618653D01*
X139050208Y-121676651D01*
X139062027Y-121733659D01*
X139072627Y-121785834D01*
X139081198Y-121829332D01*
X139086933Y-121860310D01*
X139089025Y-121874924D01*
X139088043Y-121876879D01*
X139075089Y-121879087D01*
X139045968Y-121876667D01*
X138999250Y-121869457D01*
X138933504Y-121857294D01*
X138597375Y-121792652D01*
X137889221Y-121660348D01*
X137198103Y-121536698D01*
X136522606Y-121421528D01*
X135861315Y-121314661D01*
X135212814Y-121215921D01*
X134575688Y-121125132D01*
X133948521Y-121042117D01*
X133329897Y-120966702D01*
X132718403Y-120898709D01*
X132112621Y-120837963D01*
X131511137Y-120784288D01*
X130912535Y-120737507D01*
X130315400Y-120697445D01*
X129718315Y-120663926D01*
X129119867Y-120636773D01*
X129012134Y-120632547D01*
X128786649Y-120624395D01*
X128575370Y-120617847D01*
X128373605Y-120612827D01*
X128176661Y-120609257D01*
X127979845Y-120607062D01*
X127778464Y-120606167D01*
X127567826Y-120606494D01*
X127343238Y-120607968D01*
X127217734Y-120609115D01*
X127069614Y-120610691D01*
X126936935Y-120612442D01*
X126816493Y-120614468D01*
X126705087Y-120616867D01*
X126599515Y-120619740D01*
X126496576Y-120623185D01*
X126393065Y-120627303D01*
X126285783Y-120632192D01*
X126171526Y-120637952D01*
X126047093Y-120644682D01*
X125909282Y-120652482D01*
X125869840Y-120654808D01*
X125781258Y-120660362D01*
X125682474Y-120666927D01*
X125575326Y-120674354D01*
X125461651Y-120682497D01*
X125343287Y-120691208D01*
X125222071Y-120700338D01*
X125099840Y-120709740D01*
X124978431Y-120719266D01*
X124859683Y-120728769D01*
X124745433Y-120738100D01*
X124637517Y-120747112D01*
X124537773Y-120755657D01*
X124448040Y-120763587D01*
X124370153Y-120770755D01*
X124305951Y-120777012D01*
X124257271Y-120782211D01*
X124225950Y-120786204D01*
X124213825Y-120788844D01*
X124213726Y-120789021D01*
X124216382Y-120801196D01*
X124225600Y-120829327D01*
X124240154Y-120870058D01*
X124258816Y-120920038D01*
X124280362Y-120975911D01*
X124303565Y-121034324D01*
X124303617Y-121034464D01*
X124300628Y-121037978D01*
X124288013Y-121040841D01*
X124264135Y-121043111D01*
X124227358Y-121044842D01*
X124176043Y-121046090D01*
X124108554Y-121046913D01*
X124023253Y-121047365D01*
X123918503Y-121047504D01*
X123528125Y-121047504D01*
X123494181Y-120952610D01*
X123480044Y-120914006D01*
X123467409Y-120883830D01*
X123456903Y-120866866D01*
X123446127Y-120859413D01*
X123432683Y-120857773D01*
X123431328Y-120857796D01*
X123411010Y-120858954D01*
X123373093Y-120861689D01*
X123320537Y-120865767D01*
X123256301Y-120870954D01*
X123183347Y-120877015D01*
X123104633Y-120883716D01*
X123055868Y-120887886D01*
X122950195Y-120896763D01*
X122836099Y-120906175D01*
X122720935Y-120915523D01*
X122612063Y-120924207D01*
X122516838Y-120931628D01*
X122229541Y-120953652D01*
X122182610Y-120921363D01*
X122163970Y-120908310D01*
X122139405Y-120888846D01*
X122131690Y-120876589D01*
X122140011Y-120869084D01*
X122163554Y-120863877D01*
X122173848Y-120862363D01*
X122207788Y-120857832D01*
X122258011Y-120851461D01*
X122322192Y-120843521D01*
X122398004Y-120834287D01*
X122483121Y-120824030D01*
X122575217Y-120813025D01*
X122671966Y-120801544D01*
X122771041Y-120789860D01*
X122870116Y-120778247D01*
X122966866Y-120766977D01*
X123058963Y-120756323D01*
X123144082Y-120746560D01*
X123219897Y-120737959D01*
X123284081Y-120730794D01*
X123334308Y-120725338D01*
X123368252Y-120721865D01*
X123383587Y-120720646D01*
X123391295Y-120719325D01*
X123399859Y-120709646D01*
X123397912Y-120703433D01*
X123389193Y-120678634D01*
X123373854Y-120636025D01*
X123352313Y-120576738D01*
X123324983Y-120501902D01*
X123292282Y-120412648D01*
X123254625Y-120310106D01*
X123212427Y-120195408D01*
X123166104Y-120069683D01*
X123116072Y-119934062D01*
X123062746Y-119789676D01*
X123006542Y-119637654D01*
X122947876Y-119479129D01*
X122887163Y-119315229D01*
X122842958Y-119195933D01*
X122783560Y-119035581D01*
X122726445Y-118881333D01*
X122672035Y-118734328D01*
X122620751Y-118595706D01*
X122573012Y-118466604D01*
X122529241Y-118348163D01*
X122489856Y-118241520D01*
X122455281Y-118147816D01*
X122425934Y-118068188D01*
X122402237Y-118003776D01*
X122384610Y-117955719D01*
X122373475Y-117925155D01*
X122369252Y-117913225D01*
X122368701Y-117909686D01*
X122370665Y-117905468D01*
X122377671Y-117902166D01*
X122391725Y-117899692D01*
X122414833Y-117897960D01*
X122448999Y-117896884D01*
X122496230Y-117896377D01*
X122558530Y-117896353D01*
X122637906Y-117896726D01*
X122736363Y-117897409D01*
X123108690Y-117900181D01*
X123330717Y-118609069D01*
X123358497Y-118697590D01*
X123394145Y-118810661D01*
X123427684Y-118916451D01*
X123458594Y-119013353D01*
X123486356Y-119099761D01*
X123510450Y-119174067D01*
X123530358Y-119234665D01*
X123545561Y-119279948D01*
X123555539Y-119308308D01*
X123559774Y-119318139D01*
X123562159Y-119313937D01*
X123570797Y-119292244D01*
X123584852Y-119253891D01*
X123603613Y-119200911D01*
X123626370Y-119135337D01*
X123652414Y-119059203D01*
X123681035Y-118974543D01*
X123711523Y-118883390D01*
X123714802Y-118873539D01*
X123750138Y-118767575D01*
X123787281Y-118656542D01*
X123824823Y-118544622D01*
X123861360Y-118435994D01*
X123895484Y-118334841D01*
X123925790Y-118245344D01*
X123950871Y-118171684D01*
X124045499Y-117894909D01*
X124424969Y-117894909D01*
X124518970Y-117895026D01*
G37*
G36*
X167073052Y-59632448D02*
G01*
X167073052Y-59864190D01*
X167220637Y-59638345D01*
X167420523Y-59372658D01*
X167743216Y-59059782D01*
X168117767Y-58808009D01*
X168536851Y-58622991D01*
X168573338Y-58610693D01*
X168744286Y-58559698D01*
X168900854Y-58529141D01*
X169075249Y-58514265D01*
X169299676Y-58510312D01*
X169668422Y-58531601D01*
X170076077Y-58617383D01*
X170448387Y-58772828D01*
X170794893Y-59002113D01*
X171125137Y-59309415D01*
X171219321Y-59406956D01*
X171314270Y-59496846D01*
X171374269Y-59542824D01*
X171389204Y-59536201D01*
X171388473Y-59533779D01*
X171368726Y-59463625D01*
X171331788Y-59328713D01*
X171281407Y-59142854D01*
X171221326Y-58919863D01*
X171155291Y-58673550D01*
X171082975Y-58396722D01*
X171026618Y-58163297D01*
X170993200Y-57997911D01*
X170981620Y-57895055D01*
X170990780Y-57849220D01*
X171022535Y-57828234D01*
X171067180Y-57857257D01*
X171069415Y-57862438D01*
X171090626Y-57930281D01*
X171130557Y-58069182D01*
X171187333Y-58272278D01*
X171259079Y-58532706D01*
X171343921Y-58843605D01*
X171439983Y-59198110D01*
X171545391Y-59589359D01*
X171658270Y-60010490D01*
X171776746Y-60454640D01*
X172454059Y-62999837D01*
X172464720Y-60741127D01*
X172475381Y-58482417D01*
X173037484Y-58493887D01*
X173599587Y-58505356D01*
X173649646Y-58702723D01*
X173674832Y-58785024D01*
X173799539Y-59016423D01*
X173986481Y-59204334D01*
X174225250Y-59340097D01*
X174505439Y-59415048D01*
X174701299Y-59442480D01*
X174701299Y-58963610D01*
X174701299Y-58484739D01*
X175273890Y-58484739D01*
X175846481Y-58484739D01*
X175873796Y-58666888D01*
X175899731Y-58775392D01*
X176003514Y-58984994D01*
X176161243Y-59167520D01*
X176354918Y-59304504D01*
X176566540Y-59377485D01*
X176569191Y-59377914D01*
X176646912Y-59385560D01*
X176697783Y-59366011D01*
X176740843Y-59302762D01*
X176795130Y-59179306D01*
X176869645Y-59023461D01*
X177073253Y-58713835D01*
X177331572Y-58429040D01*
X177626053Y-58188053D01*
X177938150Y-58009851D01*
X178012628Y-57977574D01*
X178116481Y-57937611D01*
X178223387Y-57905117D01*
X178342168Y-57879418D01*
X178481646Y-57859837D01*
X178650644Y-57845698D01*
X178857986Y-57836325D01*
X179112493Y-57831043D01*
X179422988Y-57829177D01*
X179798293Y-57830049D01*
X180247232Y-57832985D01*
X181896574Y-57845616D01*
X183053186Y-60101787D01*
X183074320Y-60143009D01*
X183278613Y-60541180D01*
X183471529Y-60916629D01*
X183649793Y-61263020D01*
X183810132Y-61574016D01*
X183949271Y-61843280D01*
X184063937Y-62064478D01*
X184150856Y-62231271D01*
X184206754Y-62337324D01*
X184228357Y-62376300D01*
X184229486Y-62375783D01*
X184257158Y-62331347D01*
X184318516Y-62220685D01*
X184410318Y-62049965D01*
X184529324Y-61825355D01*
X184672295Y-61553022D01*
X184835990Y-61239134D01*
X185017169Y-60889860D01*
X185212592Y-60511366D01*
X185419018Y-60109821D01*
X186527662Y-57948701D01*
X187562183Y-57948701D01*
X187562310Y-57969317D01*
X187575550Y-60123782D01*
X187576547Y-60285071D01*
X187579501Y-60739725D01*
X187582437Y-61121553D01*
X187585675Y-61437867D01*
X187589531Y-61695978D01*
X187594324Y-61903199D01*
X187600373Y-62066839D01*
X187607995Y-62194213D01*
X187617510Y-62292630D01*
X187629235Y-62369402D01*
X187643488Y-62431842D01*
X187660588Y-62487261D01*
X187680853Y-62542971D01*
X187807181Y-62827579D01*
X188034931Y-63185631D01*
X188315064Y-63482972D01*
X188644223Y-63716245D01*
X189019055Y-63882093D01*
X189055575Y-63893815D01*
X189456813Y-63978791D01*
X189851699Y-63986533D01*
X190232106Y-63921804D01*
X190589908Y-63789367D01*
X190916980Y-63593984D01*
X191205196Y-63340418D01*
X191446430Y-63033431D01*
X191632557Y-62677786D01*
X191755451Y-62278246D01*
X191765830Y-62223304D01*
X191788252Y-62037677D01*
X191797567Y-61839897D01*
X191793957Y-61653385D01*
X191777604Y-61501563D01*
X191748690Y-61407852D01*
X191703517Y-61395898D01*
X191616540Y-61412005D01*
X191559213Y-61429670D01*
X191425883Y-61468861D01*
X191277273Y-61510988D01*
X191050487Y-61573994D01*
X191049316Y-61895194D01*
X191044319Y-62023208D01*
X190985747Y-62330879D01*
X190857470Y-62601563D01*
X190654583Y-62847085D01*
X190533611Y-62956114D01*
X190279639Y-63122400D01*
X190004105Y-63216934D01*
X189689773Y-63246859D01*
X189551141Y-63244510D01*
X189398096Y-63229529D01*
X189268104Y-63194504D01*
X189126369Y-63132365D01*
X189123875Y-63131140D01*
X188843100Y-62951169D01*
X188608178Y-62716218D01*
X188436033Y-62443181D01*
X188329059Y-62216395D01*
X188317082Y-60453652D01*
X188305105Y-58690908D01*
X189399468Y-58690908D01*
X190493832Y-58690908D01*
X190493832Y-58319804D01*
X190493832Y-57948701D01*
X189028007Y-57948701D01*
X187562183Y-57948701D01*
X186527662Y-57948701D01*
X186591121Y-57824999D01*
X188604327Y-57824999D01*
X190617533Y-57824999D01*
X190617533Y-58340421D01*
X190617533Y-58855843D01*
X189522271Y-58855843D01*
X188427008Y-58855843D01*
X188439884Y-60494886D01*
X188452760Y-62133928D01*
X188559562Y-62360714D01*
X188609355Y-62460821D01*
X188741370Y-62668850D01*
X188897422Y-62827525D01*
X189098781Y-62960502D01*
X189158096Y-62992478D01*
X189264360Y-63040322D01*
X189369933Y-63067396D01*
X189502507Y-63079394D01*
X189689773Y-63082009D01*
X189871381Y-63078691D01*
X190017165Y-63065014D01*
X190129787Y-63036568D01*
X190235025Y-62988953D01*
X190332522Y-62931564D01*
X190574203Y-62729952D01*
X190756673Y-62481395D01*
X190872400Y-62198061D01*
X190913853Y-61892120D01*
X190911769Y-61765884D01*
X190902995Y-61631940D01*
X190889507Y-61548497D01*
X190885416Y-61532112D01*
X190890962Y-61498819D01*
X190927695Y-61468394D01*
X191007844Y-61435217D01*
X191143638Y-61393670D01*
X191347305Y-61338133D01*
X191405249Y-61322827D01*
X191607929Y-61272722D01*
X191744784Y-61246408D01*
X191825972Y-61242320D01*
X191861648Y-61258893D01*
X191886052Y-61323451D01*
X191911573Y-61465007D01*
X191927864Y-61650688D01*
X191932718Y-61839897D01*
X191933203Y-61858804D01*
X191925868Y-62067665D01*
X191881963Y-62372761D01*
X191757648Y-62761072D01*
X191564720Y-63118351D01*
X191310156Y-63436275D01*
X191000934Y-63706521D01*
X190644032Y-63920766D01*
X190246429Y-64070689D01*
X190243115Y-64071598D01*
X190015749Y-64110441D01*
X189741401Y-64122313D01*
X189450009Y-64108600D01*
X189171506Y-64070690D01*
X188935830Y-64009969D01*
X188889134Y-63992807D01*
X188553729Y-63824239D01*
X188238484Y-63590004D01*
X187958167Y-63304819D01*
X187727548Y-62983402D01*
X187561398Y-62640468D01*
X187558908Y-62633726D01*
X187537740Y-62574244D01*
X187519940Y-62515379D01*
X187505130Y-62449577D01*
X187492930Y-62369286D01*
X187482960Y-62266953D01*
X187474841Y-62135026D01*
X187468193Y-61965952D01*
X187462637Y-61752177D01*
X187457793Y-61486150D01*
X187453281Y-61160318D01*
X187448723Y-60767127D01*
X187443738Y-60299025D01*
X187421916Y-58216720D01*
X185942576Y-61103084D01*
X185878217Y-61228608D01*
X185646852Y-61679059D01*
X185426088Y-62107651D01*
X185218914Y-62508652D01*
X185028317Y-62876331D01*
X184857287Y-63204954D01*
X184708812Y-63488790D01*
X184585880Y-63722105D01*
X184491480Y-63899168D01*
X184428599Y-64014246D01*
X184400228Y-64061606D01*
X184331799Y-64111897D01*
X184211083Y-64129979D01*
X184095336Y-64082223D01*
X184090907Y-64076928D01*
X184052305Y-64013008D01*
X183980124Y-63882887D01*
X183877344Y-63692244D01*
X183746945Y-63446760D01*
X183591910Y-63152115D01*
X183415218Y-62813987D01*
X183219850Y-62438058D01*
X183008787Y-62030008D01*
X182785009Y-61595516D01*
X182551497Y-61140262D01*
X181071916Y-58249844D01*
X181062099Y-60979382D01*
X181061335Y-61191804D01*
X181050753Y-64133765D01*
X180535604Y-64133765D01*
X180020455Y-64133765D01*
X180020455Y-61494804D01*
X180020455Y-58855843D01*
X179313956Y-58855843D01*
X179181761Y-58856546D01*
X178930844Y-58861945D01*
X178715065Y-58871958D01*
X178550190Y-58885735D01*
X178451990Y-58902423D01*
X178311505Y-58961299D01*
X178109143Y-59095287D01*
X177925020Y-59269056D01*
X177785692Y-59460367D01*
X177722143Y-59588931D01*
X177632905Y-59891150D01*
X177618636Y-60195892D01*
X177676145Y-60491128D01*
X177802237Y-60764833D01*
X177993721Y-61004979D01*
X178247403Y-61199538D01*
X178293180Y-61225663D01*
X178388932Y-61269710D01*
X178492519Y-61296026D01*
X178628804Y-61309626D01*
X178822651Y-61315523D01*
X179212346Y-61321793D01*
X179332005Y-61783408D01*
X179341225Y-61819184D01*
X179390684Y-62024001D01*
X179416559Y-62163516D01*
X179420473Y-62249209D01*
X179404052Y-62292560D01*
X179372404Y-62307266D01*
X179255874Y-62325404D01*
X179060334Y-62336398D01*
X178787743Y-62340097D01*
X178219045Y-62340097D01*
X177748727Y-63181041D01*
X177670277Y-63321075D01*
X177540668Y-63551345D01*
X177426301Y-63753190D01*
X177333395Y-63915704D01*
X177268165Y-64027977D01*
X177236831Y-64079104D01*
X177212678Y-64098097D01*
X177149738Y-64115358D01*
X177040225Y-64124943D01*
X176872223Y-64127752D01*
X176633819Y-64124685D01*
X176072386Y-64113149D01*
X176137902Y-63996647D01*
X176309416Y-63996647D01*
X176326032Y-64000435D01*
X176408515Y-64005398D01*
X176544469Y-64008801D01*
X176716320Y-64010064D01*
X177123224Y-64010064D01*
X177637606Y-63092613D01*
X177713698Y-62956988D01*
X177854953Y-62706631D01*
X177964406Y-62516541D01*
X178047747Y-62378589D01*
X178110664Y-62284651D01*
X178158845Y-62226598D01*
X178197978Y-62196305D01*
X178233751Y-62185645D01*
X178271854Y-62186491D01*
X178406213Y-62195781D01*
X178576692Y-62202485D01*
X178761385Y-62206276D01*
X178940970Y-62207071D01*
X179096124Y-62204789D01*
X179207523Y-62199348D01*
X179255844Y-62190665D01*
X179259132Y-62179728D01*
X179253714Y-62104822D01*
X179231200Y-61978127D01*
X179194862Y-61819561D01*
X179108123Y-61474188D01*
X178791156Y-61470854D01*
X178608410Y-61458426D01*
X178298015Y-61379823D01*
X178028750Y-61229969D01*
X177802293Y-61009939D01*
X177620320Y-60720808D01*
X177600335Y-60679791D01*
X177538819Y-60539569D01*
X177503853Y-60417473D01*
X177488189Y-60280020D01*
X177484578Y-60093723D01*
X177487512Y-59930812D01*
X177502588Y-59777510D01*
X177535988Y-59647858D01*
X177593764Y-59509483D01*
X177765508Y-59233418D01*
X178001348Y-58996536D01*
X178282536Y-58820711D01*
X178320469Y-58803149D01*
X178398807Y-58770269D01*
X178477181Y-58745960D01*
X178569328Y-58728640D01*
X178688987Y-58716723D01*
X178849894Y-58708626D01*
X179065788Y-58702764D01*
X179350406Y-58697552D01*
X180185390Y-58683578D01*
X180185390Y-61346821D01*
X180185390Y-64010064D01*
X180535877Y-64010064D01*
X180886364Y-64010064D01*
X180886364Y-60979382D01*
X180886364Y-57998564D01*
X181103808Y-57998564D01*
X181108724Y-58008914D01*
X181145847Y-58082930D01*
X181216593Y-58222288D01*
X181318101Y-58421400D01*
X181447511Y-58674676D01*
X181601961Y-58976527D01*
X181778590Y-59321365D01*
X181974539Y-59703601D01*
X182186947Y-60117645D01*
X182412952Y-60557909D01*
X182649695Y-61018804D01*
X182754727Y-61223054D01*
X182987438Y-61674371D01*
X183208679Y-62101796D01*
X183415555Y-62499823D01*
X183605171Y-62862947D01*
X183774630Y-63185665D01*
X183921037Y-63462473D01*
X184041497Y-63687864D01*
X184133114Y-63856337D01*
X184192992Y-63962385D01*
X184218235Y-64000504D01*
X184264811Y-63984871D01*
X184324094Y-63919848D01*
X184329605Y-63910466D01*
X184369888Y-63835858D01*
X184443791Y-63695549D01*
X184548342Y-63495282D01*
X184680570Y-63240798D01*
X184837502Y-62937840D01*
X185016166Y-62592151D01*
X185213591Y-62209471D01*
X185426803Y-61795544D01*
X185652832Y-61356111D01*
X185888705Y-60896915D01*
X187391499Y-57969317D01*
X187059475Y-57957227D01*
X186871614Y-57955659D01*
X186742637Y-57968914D01*
X186678122Y-57998461D01*
X186675433Y-58002096D01*
X186640954Y-58061989D01*
X186573044Y-58187629D01*
X186475028Y-58372638D01*
X186350232Y-58610635D01*
X186201980Y-58895242D01*
X186033597Y-59220079D01*
X185848408Y-59578767D01*
X185649738Y-59964927D01*
X185440912Y-60372180D01*
X185389419Y-60472681D01*
X185183891Y-60872053D01*
X184989749Y-61246555D01*
X184810235Y-61590104D01*
X184648590Y-61896614D01*
X184508054Y-62160003D01*
X184391869Y-62374185D01*
X184303276Y-62533077D01*
X184245515Y-62630595D01*
X184221828Y-62660654D01*
X184219379Y-62657126D01*
X184186939Y-62598906D01*
X184120978Y-62475081D01*
X184024759Y-62291934D01*
X183901547Y-62055746D01*
X183754603Y-61772797D01*
X183587193Y-61449370D01*
X183402580Y-61091744D01*
X183204026Y-60706202D01*
X182994796Y-60299025D01*
X181798968Y-57969317D01*
X181440694Y-57957330D01*
X181281015Y-57953966D01*
X181166045Y-57958280D01*
X181110931Y-57972662D01*
X181103808Y-57998564D01*
X180886364Y-57998564D01*
X180886364Y-57948701D01*
X179783361Y-57949416D01*
X179587221Y-57949879D01*
X179220166Y-57953649D01*
X178919031Y-57962437D01*
X178672551Y-57977740D01*
X178469462Y-58001058D01*
X178298498Y-58033888D01*
X178148394Y-58077727D01*
X178007886Y-58134075D01*
X177865710Y-58204429D01*
X177811304Y-58234346D01*
X177488737Y-58462260D01*
X177223464Y-58739960D01*
X177016977Y-59057787D01*
X176870766Y-59406081D01*
X176786321Y-59775181D01*
X176765131Y-60155429D01*
X176808687Y-60537163D01*
X176918479Y-60910725D01*
X177095998Y-61266453D01*
X177342732Y-61594689D01*
X177532306Y-61804058D01*
X176920861Y-62893643D01*
X176860141Y-63001912D01*
X176712377Y-63265967D01*
X176580439Y-63502557D01*
X176469251Y-63702800D01*
X176383736Y-63857818D01*
X176328817Y-63958727D01*
X176309416Y-63996647D01*
X176137902Y-63996647D01*
X176605712Y-63164772D01*
X176730381Y-62942944D01*
X176873572Y-62687818D01*
X177003338Y-62456255D01*
X177112917Y-62260331D01*
X177195552Y-62112118D01*
X177244485Y-62023690D01*
X177349932Y-61830985D01*
X177153261Y-61590736D01*
X176970763Y-61335622D01*
X176775385Y-60942564D01*
X176650409Y-60507111D01*
X176585044Y-60175324D01*
X176220444Y-60175324D01*
X175855845Y-60175324D01*
X175855845Y-61824675D01*
X175855845Y-63474025D01*
X175278572Y-63474025D01*
X174701299Y-63474025D01*
X174701299Y-61824675D01*
X174701299Y-60175324D01*
X174165733Y-60175324D01*
X173630167Y-60175324D01*
X173619386Y-61814366D01*
X173608604Y-63453408D01*
X173103491Y-63464986D01*
X173096555Y-63465147D01*
X172867439Y-63473270D01*
X172713080Y-63485650D01*
X172626026Y-63503202D01*
X172598823Y-63526837D01*
X172602762Y-63556645D01*
X172625156Y-63653434D01*
X172660674Y-63779523D01*
X172687648Y-63873982D01*
X172717433Y-64022600D01*
X172710276Y-64107047D01*
X172666280Y-64133765D01*
X172663611Y-64133688D01*
X172650086Y-64129355D01*
X172635565Y-64113873D01*
X172618222Y-64081010D01*
X172596232Y-64024529D01*
X172567767Y-63938198D01*
X172531004Y-63815780D01*
X172484115Y-63651041D01*
X172425275Y-63437748D01*
X172352659Y-63169664D01*
X172264440Y-62840557D01*
X172158793Y-62444190D01*
X172033892Y-61974331D01*
X171794319Y-61072526D01*
X171783448Y-61158950D01*
X171762340Y-61326756D01*
X171688885Y-61675394D01*
X171533987Y-62064537D01*
X171312360Y-62424664D01*
X171031985Y-62746819D01*
X170700843Y-63022049D01*
X170326915Y-63241397D01*
X169918182Y-63395910D01*
X169855409Y-63409413D01*
X169698467Y-63429340D01*
X169503802Y-63443070D01*
X169299676Y-63448213D01*
X169238588Y-63448039D01*
X169031443Y-63442188D01*
X168866913Y-63424529D01*
X168713180Y-63390324D01*
X168538423Y-63334833D01*
X168386296Y-63277021D01*
X167990266Y-63071458D01*
X167644420Y-62808614D01*
X167353369Y-62496447D01*
X167121723Y-62142913D01*
X166954090Y-61755971D01*
X166855081Y-61343577D01*
X166838978Y-61075011D01*
X166988696Y-61075011D01*
X167008340Y-61356866D01*
X167051422Y-61594530D01*
X167182347Y-61951240D01*
X167392062Y-62309153D01*
X167662603Y-62627196D01*
X167984189Y-62895809D01*
X168347040Y-63105431D01*
X168741375Y-63246501D01*
X168915801Y-63281922D01*
X169288852Y-63308490D01*
X169672466Y-63278478D01*
X170040694Y-63194853D01*
X170367584Y-63060583D01*
X170669861Y-62871578D01*
X170990098Y-62593001D01*
X171248259Y-62273803D01*
X171443064Y-61922631D01*
X171573231Y-61548131D01*
X171637481Y-61158950D01*
X171634533Y-60763735D01*
X171563107Y-60371133D01*
X171421922Y-59989790D01*
X171209697Y-59628354D01*
X170925153Y-59295472D01*
X170699056Y-59103585D01*
X170348616Y-58892981D01*
X169962782Y-58744598D01*
X169556401Y-58662401D01*
X169144317Y-58650353D01*
X168741375Y-58712417D01*
X168390570Y-58833349D01*
X168020673Y-59036443D01*
X167692471Y-59300139D01*
X167415239Y-59615377D01*
X167198248Y-59973095D01*
X167050771Y-60364235D01*
X167019790Y-60513343D01*
X166992507Y-60782619D01*
X166988696Y-61075011D01*
X166838978Y-61075011D01*
X166829305Y-60913691D01*
X166881372Y-60474269D01*
X166935376Y-60216558D01*
X166447558Y-60216558D01*
X165959741Y-60216558D01*
X165959741Y-61865908D01*
X165959741Y-63515259D01*
X165320617Y-63515259D01*
X164681494Y-63515259D01*
X164681494Y-60979382D01*
X164681494Y-58567207D01*
X164805195Y-58567207D01*
X164805195Y-60979382D01*
X164805195Y-63391558D01*
X165300000Y-63391558D01*
X165794806Y-63391558D01*
X165794806Y-61742207D01*
X165794806Y-60092856D01*
X166351461Y-60092856D01*
X166908117Y-60092856D01*
X166908117Y-59806088D01*
X166908117Y-59519320D01*
X166753491Y-59493363D01*
X166608637Y-59461917D01*
X166324013Y-59348290D01*
X166094775Y-59177578D01*
X165925432Y-58953706D01*
X165820488Y-58680600D01*
X165793234Y-58567207D01*
X165299215Y-58567207D01*
X164805195Y-58567207D01*
X164681494Y-58567207D01*
X164681494Y-58443506D01*
X165320617Y-58443506D01*
X165959741Y-58443506D01*
X165960646Y-58556899D01*
X165976372Y-58685327D01*
X166059763Y-58888510D01*
X166201857Y-59070059D01*
X166387877Y-59216526D01*
X166603046Y-59314462D01*
X166832586Y-59350419D01*
X166958445Y-59359389D01*
X167032046Y-59397738D01*
X167065283Y-59482935D01*
X167067174Y-59519320D01*
X167073052Y-59632448D01*
G37*
G36*
X171090468Y-61191166D02*
G01*
X171011467Y-61532828D01*
X170865941Y-61853135D01*
X170660623Y-62141895D01*
X170402246Y-62388916D01*
X170097544Y-62584006D01*
X169753247Y-62716972D01*
X169724263Y-62724508D01*
X169394207Y-62767864D01*
X169045405Y-62744866D01*
X168700537Y-62658883D01*
X168382282Y-62513287D01*
X168239428Y-62414390D01*
X168023951Y-62212184D01*
X167829849Y-61969289D01*
X167678569Y-61710182D01*
X167662462Y-61675962D01*
X167609198Y-61553993D01*
X167575463Y-61447942D01*
X167556838Y-61333217D01*
X167548903Y-61185228D01*
X167547620Y-61026322D01*
X167666801Y-61026322D01*
X167710341Y-61373165D01*
X167822299Y-61695919D01*
X167839308Y-61729903D01*
X168020175Y-61998287D01*
X168261076Y-62236537D01*
X168542791Y-62428474D01*
X168846104Y-62557915D01*
X169030642Y-62602319D01*
X169382390Y-62627038D01*
X169723380Y-62576366D01*
X170043268Y-62454850D01*
X170331707Y-62267039D01*
X170578353Y-62017482D01*
X170772862Y-61710727D01*
X170787132Y-61681782D01*
X170853680Y-61540243D01*
X170895199Y-61426895D01*
X170917571Y-61314076D01*
X170926680Y-61174126D01*
X170928409Y-60979382D01*
X170928383Y-60941108D01*
X170925811Y-60757664D01*
X170914857Y-60624296D01*
X170889636Y-60513343D01*
X170844265Y-60397144D01*
X170772862Y-60248038D01*
X170734718Y-60175076D01*
X170527272Y-59877944D01*
X170272039Y-59642333D01*
X169978184Y-59471408D01*
X169654866Y-59368330D01*
X169311248Y-59336262D01*
X168956492Y-59378369D01*
X168599759Y-59497811D01*
X168588066Y-59503162D01*
X168367430Y-59637734D01*
X168149584Y-59825858D01*
X167959142Y-60043270D01*
X167820719Y-60265709D01*
X167785071Y-60346251D01*
X167691703Y-60676861D01*
X167666801Y-61026322D01*
X167547620Y-61026322D01*
X167547241Y-60979382D01*
X167547304Y-60923618D01*
X167550063Y-60733834D01*
X167560150Y-60596030D01*
X167581985Y-60485614D01*
X167619984Y-60377995D01*
X167678569Y-60248583D01*
X167759571Y-60100011D01*
X167882893Y-59914119D01*
X168007021Y-59760614D01*
X168141875Y-59629690D01*
X168438177Y-59417252D01*
X168755841Y-59275358D01*
X169085793Y-59201202D01*
X169418960Y-59191981D01*
X169746268Y-59244891D01*
X170058644Y-59357127D01*
X170347013Y-59525885D01*
X170602303Y-59748360D01*
X170815441Y-60021748D01*
X170977351Y-60343246D01*
X171078962Y-60710048D01*
X171096213Y-60838341D01*
X171093916Y-60979382D01*
X171090468Y-61191166D01*
G37*
%TD*%
M02*
