%TF.GenerationSoftware,KiCad,Pcbnew,9.0.4*%
%TF.CreationDate,2026-03-06T19:45:06+01:00*%
%TF.ProjectId,memory,6d656d6f-7279-42e6-9b69-6361645f7063,rev?*%
%TF.SameCoordinates,Original*%
%TF.FileFunction,Soldermask,Top*%
%TF.FilePolarity,Negative*%
%FSLAX46Y46*%
G04 Gerber Fmt 4.6, Leading zero omitted, Abs format (unit mm)*
G04 Created by KiCad (PCBNEW 9.0.4) date 2026-03-06 19:45:06*
%MOMM*%
%LPD*%
G01*
G04 APERTURE LIST*
G04 Aperture macros list*
%AMRoundRect*
0 Rectangle with rounded corners*
0 $1 Rounding radius*
0 $2 $3 $4 $5 $6 $7 $8 $9 X,Y pos of 4 corners*
0 Add a 4 corners polygon primitive as box body*
4,1,4,$2,$3,$4,$5,$6,$7,$8,$9,$2,$3,0*
0 Add four circle primitives for the rounded corners*
1,1,$1+$1,$2,$3*
1,1,$1+$1,$4,$5*
1,1,$1+$1,$6,$7*
1,1,$1+$1,$8,$9*
0 Add four rect primitives between the rounded corners*
20,1,$1+$1,$2,$3,$4,$5,0*
20,1,$1+$1,$4,$5,$6,$7,0*
20,1,$1+$1,$6,$7,$8,$9,0*
20,1,$1+$1,$8,$9,$2,$3,0*%
G04 Aperture macros list end*
%ADD10R,1.700000X1.700000*%
%ADD11C,1.700000*%
%ADD12RoundRect,0.250000X-0.550000X0.550000X-0.550000X-0.550000X0.550000X-0.550000X0.550000X0.550000X0*%
%ADD13C,1.600000*%
%ADD14RoundRect,0.250000X0.337500X0.475000X-0.337500X0.475000X-0.337500X-0.475000X0.337500X-0.475000X0*%
%ADD15RoundRect,0.137500X-0.137500X0.625000X-0.137500X-0.625000X0.137500X-0.625000X0.137500X0.625000X0*%
%ADD16RoundRect,0.250001X-0.462499X-0.624999X0.462499X-0.624999X0.462499X0.624999X-0.462499X0.624999X0*%
%ADD17RoundRect,0.150000X-0.150000X0.875000X-0.150000X-0.875000X0.150000X-0.875000X0.150000X0.875000X0*%
%ADD18R,1.000000X1.500000*%
%ADD19RoundRect,0.250000X-0.350000X-0.450000X0.350000X-0.450000X0.350000X0.450000X-0.350000X0.450000X0*%
%ADD20RoundRect,0.150000X-0.825000X-0.150000X0.825000X-0.150000X0.825000X0.150000X-0.825000X0.150000X0*%
%ADD21RoundRect,0.250000X0.475000X-0.337500X0.475000X0.337500X-0.475000X0.337500X-0.475000X-0.337500X0*%
%ADD22RoundRect,0.250000X0.350000X0.450000X-0.350000X0.450000X-0.350000X-0.450000X0.350000X-0.450000X0*%
G04 APERTURE END LIST*
%TO.C,JP1*%
G36*
X186180000Y-78220000D02*
G01*
X185880000Y-78220000D01*
X185880000Y-76720000D01*
X186180000Y-76720000D01*
X186180000Y-78220000D01*
G37*
%TD*%
D10*
%TO.C,J3*%
X101920714Y-87230000D03*
D11*
X104460714Y-87230000D03*
X101920714Y-89770000D03*
X104460714Y-89770000D03*
X101920714Y-92310000D03*
X104460714Y-92310000D03*
X101920714Y-94850000D03*
X104460714Y-94850000D03*
X101920714Y-97390000D03*
X104460714Y-97390000D03*
X101920714Y-99930000D03*
X104460714Y-99930000D03*
X101920714Y-102470000D03*
X104460714Y-102470000D03*
X101920714Y-105010000D03*
X104460714Y-105010000D03*
X101920714Y-107550000D03*
X104460714Y-107550000D03*
X101920714Y-110090000D03*
X104460714Y-110090000D03*
X101920714Y-112630000D03*
X104460714Y-112630000D03*
%TD*%
D12*
%TO.C,U6*%
X194670000Y-101904000D03*
D13*
X192130000Y-101904000D03*
X189590000Y-101904000D03*
X187050000Y-101904000D03*
X184510000Y-101904000D03*
X181970000Y-101904000D03*
X179430000Y-101904000D03*
X176890000Y-101904000D03*
X174350000Y-101904000D03*
X171810000Y-101904000D03*
X169270000Y-101904000D03*
X166730000Y-101904000D03*
X164190000Y-101904000D03*
X161650000Y-101904000D03*
X159110000Y-101904000D03*
X156570000Y-101904000D03*
X156570000Y-117144000D03*
X159110000Y-117144000D03*
X161650000Y-117144000D03*
X164190000Y-117144000D03*
X166730000Y-117144000D03*
X169270000Y-117144000D03*
X171810000Y-117144000D03*
X174350000Y-117144000D03*
X176890000Y-117144000D03*
X179430000Y-117144000D03*
X181970000Y-117144000D03*
X184510000Y-117144000D03*
X187050000Y-117144000D03*
X189590000Y-117144000D03*
X192130000Y-117144000D03*
X194670000Y-117144000D03*
%TD*%
D14*
%TO.C,C3*%
X148760000Y-72239500D03*
X146685000Y-72239500D03*
%TD*%
D15*
%TO.C,U2*%
X151283334Y-83616500D03*
X150483334Y-83616500D03*
X149683334Y-83616500D03*
X148883334Y-83616500D03*
X148083334Y-83616500D03*
X147283334Y-83616500D03*
X146483334Y-83616500D03*
X145683334Y-83616500D03*
X144883334Y-83616500D03*
X144083334Y-83616500D03*
X143283334Y-83616500D03*
X142483334Y-83616500D03*
X141683334Y-83616500D03*
X140883334Y-83616500D03*
X140083334Y-83616500D03*
X139283334Y-83616500D03*
X138483334Y-83616500D03*
X137683334Y-83616500D03*
X136883334Y-83616500D03*
X136083334Y-83616500D03*
X135283334Y-83616500D03*
X134483334Y-83616500D03*
X134483334Y-94791500D03*
X135283334Y-94791500D03*
X136083334Y-94791500D03*
X136883334Y-94791500D03*
X137683334Y-94791500D03*
X138483334Y-94791500D03*
X139283334Y-94791500D03*
X140083334Y-94791500D03*
X140883334Y-94791500D03*
X141683334Y-94791500D03*
X142483334Y-94791500D03*
X143283334Y-94791500D03*
X144083334Y-94791500D03*
X144883334Y-94791500D03*
X145683334Y-94791500D03*
X146483334Y-94791500D03*
X147283334Y-94791500D03*
X148083334Y-94791500D03*
X148883334Y-94791500D03*
X149683334Y-94791500D03*
X150483334Y-94791500D03*
X151283334Y-94791500D03*
%TD*%
D10*
%TO.C,J2*%
X101930714Y-54355500D03*
D11*
X101930714Y-51815500D03*
X104470714Y-54355500D03*
X104470714Y-51815500D03*
X107010714Y-54355500D03*
X107010714Y-51815500D03*
X109550714Y-54355500D03*
X109550714Y-51815500D03*
X112090714Y-54355500D03*
X112090714Y-51815500D03*
X114630714Y-54355500D03*
X114630714Y-51815500D03*
X117170714Y-54355500D03*
X117170714Y-51815500D03*
X119710714Y-54355500D03*
X119710714Y-51815500D03*
X122250714Y-54355500D03*
X122250714Y-51815500D03*
X124790714Y-54355500D03*
X124790714Y-51815500D03*
X127330714Y-54355500D03*
X127330714Y-51815500D03*
X129870714Y-54355500D03*
X129870714Y-51815500D03*
X132410714Y-54355500D03*
X132410714Y-51815500D03*
X134950714Y-54355500D03*
X134950714Y-51815500D03*
%TD*%
D10*
%TO.C,J1*%
X197110714Y-51805500D03*
D11*
X194570714Y-51805500D03*
X192030714Y-51805500D03*
X189490714Y-51805500D03*
%TD*%
D14*
%TO.C,C11*%
X143283334Y-101473000D03*
X141208334Y-101473000D03*
%TD*%
%TO.C,C1*%
X115740000Y-72136000D03*
X113665000Y-72136000D03*
%TD*%
D16*
%TO.C,D1*%
X188742500Y-58420000D03*
X191717500Y-58420000D03*
%TD*%
%TO.C,D5*%
X188742500Y-71120000D03*
X191717500Y-71120000D03*
%TD*%
%TO.C,D4*%
X188742500Y-67945000D03*
X191717500Y-67945000D03*
%TD*%
D17*
%TO.C,U7*%
X114935000Y-59969500D03*
X113665000Y-59969500D03*
X112395000Y-59969500D03*
X111125000Y-59969500D03*
X109855000Y-59969500D03*
X108585000Y-59969500D03*
X107315000Y-59969500D03*
X106045000Y-59969500D03*
X104775000Y-59969500D03*
X103505000Y-59969500D03*
X103505000Y-69269500D03*
X104775000Y-69269500D03*
X106045000Y-69269500D03*
X107315000Y-69269500D03*
X108585000Y-69269500D03*
X109855000Y-69269500D03*
X111125000Y-69269500D03*
X112395000Y-69269500D03*
X113665000Y-69269500D03*
X114935000Y-69269500D03*
%TD*%
D18*
%TO.C,JP1*%
X186680000Y-77470000D03*
X185380000Y-77470000D03*
%TD*%
D17*
%TO.C,U8*%
X131445000Y-59969500D03*
X130175000Y-59969500D03*
X128905000Y-59969500D03*
X127635000Y-59969500D03*
X126365000Y-59969500D03*
X125095000Y-59969500D03*
X123825000Y-59969500D03*
X122555000Y-59969500D03*
X121285000Y-59969500D03*
X120015000Y-59969500D03*
X120015000Y-69269500D03*
X121285000Y-69269500D03*
X122555000Y-69269500D03*
X123825000Y-69269500D03*
X125095000Y-69269500D03*
X126365000Y-69269500D03*
X127635000Y-69269500D03*
X128905000Y-69269500D03*
X130175000Y-69269500D03*
X131445000Y-69269500D03*
%TD*%
D19*
%TO.C,R3*%
X194945000Y-63500000D03*
X196945000Y-63500000D03*
%TD*%
D20*
%TO.C,U10*%
X160085000Y-62865000D03*
X160085000Y-64135000D03*
X160085000Y-65405000D03*
X160085000Y-66675000D03*
X160085000Y-67945000D03*
X160085000Y-69215000D03*
X160085000Y-70485000D03*
X165035000Y-70485000D03*
X165035000Y-69215000D03*
X165035000Y-67945000D03*
X165035000Y-66675000D03*
X165035000Y-65405000D03*
X165035000Y-64135000D03*
X165035000Y-62865000D03*
%TD*%
D21*
%TO.C,C4*%
X165035000Y-59690000D03*
X165035000Y-57615000D03*
%TD*%
D14*
%TO.C,C10*%
X122322500Y-101473000D03*
X120247500Y-101473000D03*
%TD*%
D19*
%TO.C,R4*%
X194945000Y-66040000D03*
X196945000Y-66040000D03*
%TD*%
D21*
%TO.C,C5*%
X175765000Y-59690000D03*
X175765000Y-57615000D03*
%TD*%
D17*
%TO.C,U9*%
X147955000Y-59969500D03*
X146685000Y-59969500D03*
X145415000Y-59969500D03*
X144145000Y-59969500D03*
X142875000Y-59969500D03*
X141605000Y-59969500D03*
X140335000Y-59969500D03*
X139065000Y-59969500D03*
X137795000Y-59969500D03*
X136525000Y-59969500D03*
X136525000Y-69269500D03*
X137795000Y-69269500D03*
X139065000Y-69269500D03*
X140335000Y-69269500D03*
X141605000Y-69269500D03*
X142875000Y-69269500D03*
X144145000Y-69269500D03*
X145415000Y-69269500D03*
X146685000Y-69269500D03*
X147955000Y-69269500D03*
%TD*%
D12*
%TO.C,U5*%
X194670000Y-81584000D03*
D13*
X192130000Y-81584000D03*
X189590000Y-81584000D03*
X187050000Y-81584000D03*
X184510000Y-81584000D03*
X181970000Y-81584000D03*
X179430000Y-81584000D03*
X176890000Y-81584000D03*
X174350000Y-81584000D03*
X171810000Y-81584000D03*
X169270000Y-81584000D03*
X166730000Y-81584000D03*
X164190000Y-81584000D03*
X161650000Y-81584000D03*
X159110000Y-81584000D03*
X156570000Y-81584000D03*
X156570000Y-96824000D03*
X159110000Y-96824000D03*
X161650000Y-96824000D03*
X164190000Y-96824000D03*
X166730000Y-96824000D03*
X169270000Y-96824000D03*
X171810000Y-96824000D03*
X174350000Y-96824000D03*
X176890000Y-96824000D03*
X179430000Y-96824000D03*
X181970000Y-96824000D03*
X184510000Y-96824000D03*
X187050000Y-96824000D03*
X189590000Y-96824000D03*
X192130000Y-96824000D03*
X194670000Y-96824000D03*
%TD*%
D14*
%TO.C,C2*%
X132250000Y-72239500D03*
X130175000Y-72239500D03*
%TD*%
D10*
%TO.C,J5*%
X184410714Y-121995500D03*
D11*
X186950714Y-121995500D03*
X189490714Y-121995500D03*
X192030714Y-121995500D03*
X194570714Y-121995500D03*
X197110714Y-121995500D03*
%TD*%
D10*
%TO.C,J4*%
X173655714Y-51805500D03*
D11*
X171115714Y-51805500D03*
X168575714Y-51805500D03*
X166035714Y-51805500D03*
X163495714Y-51805500D03*
X160955714Y-51805500D03*
X158415714Y-51805500D03*
X155875714Y-51805500D03*
X153335714Y-51805500D03*
X150795714Y-51805500D03*
%TD*%
D15*
%TO.C,U1*%
X130328334Y-83616500D03*
X129528334Y-83616500D03*
X128728334Y-83616500D03*
X127928334Y-83616500D03*
X127128334Y-83616500D03*
X126328334Y-83616500D03*
X125528334Y-83616500D03*
X124728334Y-83616500D03*
X123928334Y-83616500D03*
X123128334Y-83616500D03*
X122328334Y-83616500D03*
X121528334Y-83616500D03*
X120728334Y-83616500D03*
X119928334Y-83616500D03*
X119128334Y-83616500D03*
X118328334Y-83616500D03*
X117528334Y-83616500D03*
X116728334Y-83616500D03*
X115928334Y-83616500D03*
X115128334Y-83616500D03*
X114328334Y-83616500D03*
X113528334Y-83616500D03*
X113528334Y-94791500D03*
X114328334Y-94791500D03*
X115128334Y-94791500D03*
X115928334Y-94791500D03*
X116728334Y-94791500D03*
X117528334Y-94791500D03*
X118328334Y-94791500D03*
X119128334Y-94791500D03*
X119928334Y-94791500D03*
X120728334Y-94791500D03*
X121528334Y-94791500D03*
X122328334Y-94791500D03*
X123128334Y-94791500D03*
X123928334Y-94791500D03*
X124728334Y-94791500D03*
X125528334Y-94791500D03*
X126328334Y-94791500D03*
X127128334Y-94791500D03*
X127928334Y-94791500D03*
X128728334Y-94791500D03*
X129528334Y-94791500D03*
X130328334Y-94791500D03*
%TD*%
D16*
%TO.C,D2*%
X188742500Y-61595000D03*
X191717500Y-61595000D03*
%TD*%
D19*
%TO.C,R5*%
X194945000Y-68580000D03*
X196945000Y-68580000D03*
%TD*%
D14*
%TO.C,C9*%
X143283334Y-97282000D03*
X141208334Y-97282000D03*
%TD*%
%TO.C,C7*%
X143277500Y-81153000D03*
X141202500Y-81153000D03*
%TD*%
D21*
%TO.C,C14*%
X192130000Y-93493500D03*
X192130000Y-91418500D03*
%TD*%
D15*
%TO.C,U3*%
X130328334Y-103936500D03*
X129528334Y-103936500D03*
X128728334Y-103936500D03*
X127928334Y-103936500D03*
X127128334Y-103936500D03*
X126328334Y-103936500D03*
X125528334Y-103936500D03*
X124728334Y-103936500D03*
X123928334Y-103936500D03*
X123128334Y-103936500D03*
X122328334Y-103936500D03*
X121528334Y-103936500D03*
X120728334Y-103936500D03*
X119928334Y-103936500D03*
X119128334Y-103936500D03*
X118328334Y-103936500D03*
X117528334Y-103936500D03*
X116728334Y-103936500D03*
X115928334Y-103936500D03*
X115128334Y-103936500D03*
X114328334Y-103936500D03*
X113528334Y-103936500D03*
X113528334Y-115111500D03*
X114328334Y-115111500D03*
X115128334Y-115111500D03*
X115928334Y-115111500D03*
X116728334Y-115111500D03*
X117528334Y-115111500D03*
X118328334Y-115111500D03*
X119128334Y-115111500D03*
X119928334Y-115111500D03*
X120728334Y-115111500D03*
X121528334Y-115111500D03*
X122328334Y-115111500D03*
X123128334Y-115111500D03*
X123928334Y-115111500D03*
X124728334Y-115111500D03*
X125528334Y-115111500D03*
X126328334Y-115111500D03*
X127128334Y-115111500D03*
X127928334Y-115111500D03*
X128728334Y-115111500D03*
X129528334Y-115111500D03*
X130328334Y-115111500D03*
%TD*%
D14*
%TO.C,C13*%
X143277500Y-117602000D03*
X141202500Y-117602000D03*
%TD*%
D16*
%TO.C,D3*%
X188742500Y-64770000D03*
X191717500Y-64770000D03*
%TD*%
D15*
%TO.C,U4*%
X151283334Y-103936500D03*
X150483334Y-103936500D03*
X149683334Y-103936500D03*
X148883334Y-103936500D03*
X148083334Y-103936500D03*
X147283334Y-103936500D03*
X146483334Y-103936500D03*
X145683334Y-103936500D03*
X144883334Y-103936500D03*
X144083334Y-103936500D03*
X143283334Y-103936500D03*
X142483334Y-103936500D03*
X141683334Y-103936500D03*
X140883334Y-103936500D03*
X140083334Y-103936500D03*
X139283334Y-103936500D03*
X138483334Y-103936500D03*
X137683334Y-103936500D03*
X136883334Y-103936500D03*
X136083334Y-103936500D03*
X135283334Y-103936500D03*
X134483334Y-103936500D03*
X134483334Y-115111500D03*
X135283334Y-115111500D03*
X136083334Y-115111500D03*
X136883334Y-115111500D03*
X137683334Y-115111500D03*
X138483334Y-115111500D03*
X139283334Y-115111500D03*
X140083334Y-115111500D03*
X140883334Y-115111500D03*
X141683334Y-115111500D03*
X142483334Y-115111500D03*
X143283334Y-115111500D03*
X144083334Y-115111500D03*
X144883334Y-115111500D03*
X145683334Y-115111500D03*
X146483334Y-115111500D03*
X147283334Y-115111500D03*
X148083334Y-115111500D03*
X148883334Y-115111500D03*
X149683334Y-115111500D03*
X150483334Y-115111500D03*
X151283334Y-115111500D03*
%TD*%
D14*
%TO.C,C8*%
X122322500Y-97282000D03*
X120247500Y-97282000D03*
%TD*%
D21*
%TO.C,C15*%
X192130000Y-113813500D03*
X192130000Y-111738500D03*
%TD*%
D19*
%TO.C,R2*%
X194945000Y-60866000D03*
X196945000Y-60866000D03*
%TD*%
D14*
%TO.C,C6*%
X122322500Y-81153000D03*
X120247500Y-81153000D03*
%TD*%
D22*
%TO.C,R6*%
X173115714Y-55245000D03*
X171115714Y-55245000D03*
%TD*%
D14*
%TO.C,C12*%
X122328334Y-117602000D03*
X120253334Y-117602000D03*
%TD*%
D20*
%TO.C,U11*%
X170815000Y-62865000D03*
X170815000Y-64135000D03*
X170815000Y-65405000D03*
X170815000Y-66675000D03*
X170815000Y-67945000D03*
X170815000Y-69215000D03*
X170815000Y-70485000D03*
X175765000Y-70485000D03*
X175765000Y-69215000D03*
X175765000Y-67945000D03*
X175765000Y-66675000D03*
X175765000Y-65405000D03*
X175765000Y-64135000D03*
X175765000Y-62865000D03*
%TD*%
D19*
%TO.C,R1*%
X194945000Y-58420000D03*
X196945000Y-58420000D03*
%TD*%
M02*
